<svg width="443" height="62" viewBox="770 38 443 62" fill="none" xmlns="http://www.w3.org/2000/svg">
<g>
<g clip-path="url(#madeiramadeira-mono-clip3_1457_43)">
<g clip-path="url(#madeiramadeira-mono-clip4_1457_43)">
<g clip-path="url(#madeiramadeira-mono-clip5_1457_43)">
<path d="M831.09 81.8986L821.487 43.0925C821.278 42.2279 820.9 41.4143 820.376 40.6996C819.852 39.9848 819.192 39.3834 818.435 38.9305C817.678 38.4777 816.839 38.1827 815.968 38.0628C815.097 37.9429 814.21 38.0006 813.361 38.2324L775.023 47.9526C774.174 48.1583 773.373 48.5341 772.669 49.058C771.965 49.5818 771.372 50.243 770.924 51.0026C770.477 51.7622 770.184 52.6048 770.064 53.4807C769.943 54.3566 769.997 55.2481 770.222 56.1026L779.825 94.9087C780.034 95.7733 780.411 96.5869 780.935 97.3016C781.46 98.0164 782.12 98.6178 782.877 99.0706C783.634 99.5234 784.473 99.8185 785.344 99.9384C786.215 100.058 787.101 100.001 787.95 99.7688L819.936 91.6935L819.714 91.4692C818.384 90.0486 816.464 89.4504 814.026 89.5252L795.559 89.3009C790.61 89.3009 789.132 85.6371 789.058 83.6931L787.581 69.5614H782.632C782.24 69.5614 781.864 69.4038 781.587 69.1234C781.31 68.8429 781.154 68.4626 781.154 68.066C781.149 67.8694 781.186 67.6741 781.263 67.4934C781.339 67.3127 781.453 67.1509 781.598 67.0192L799.326 49.6723C799.575 49.4116 799.914 49.2582 800.272 49.2443C800.63 49.2304 800.979 49.3569 801.247 49.5976L819.936 66.2714C820.088 66.384 820.216 66.5275 820.311 66.6928C820.406 66.858 820.465 67.0415 820.486 67.2314C820.507 67.4213 820.489 67.6136 820.432 67.7959C820.375 67.9782 820.282 68.1466 820.157 68.2903C820.024 68.4758 819.844 68.622 819.636 68.714C819.429 68.806 819.201 68.8404 818.975 68.8137H815.06V82.1977C815.06 82.5943 814.905 82.9746 814.628 83.2551C814.351 83.5355 813.975 83.6931 813.583 83.6931L803.685 83.6183L800.73 75.3935L797.701 79.9545V62.4582L808.781 75.7674L803.611 74.6458C803.611 74.6458 804.645 78.0853 805.384 80.6275H812.327V67.393C812.327 66.9964 812.483 66.616 812.76 66.3356C813.037 66.0551 813.413 65.8976 813.805 65.8976H815.282L800.434 52.7379L786.325 66.6453H789.058C789.426 66.6434 789.781 66.7803 790.054 67.0292C790.327 67.278 790.499 67.621 790.536 67.9912L792.013 83.394C792.013 83.8426 792.309 86.2353 795.633 86.2353L814.026 86.3848C817.424 86.2353 820.01 87.2073 821.93 89.3757C822.363 89.8226 822.735 90.3254 823.038 90.8711L826.288 90.0486C827.134 89.8356 827.93 89.4553 828.63 88.9296C829.329 88.4039 829.919 87.7431 830.366 86.9855C830.812 86.2279 831.106 85.3884 831.23 84.5153C831.354 83.6423 831.307 82.7529 831.09 81.8986Z" fill="black"></path>
<path d="M881.173 84.2911V65.5984C881.173 62.6076 880.804 60.5888 879.991 59.4672C879.178 58.3457 877.849 57.897 875.78 57.897C874.768 57.8277 873.752 57.9862 872.807 58.3611C871.862 58.736 871.011 59.318 870.314 60.0654C868.985 61.5608 868.394 63.6544 868.394 66.2714V84.2164H863.37V65.5984C863.37 62.6076 863.001 60.5888 862.189 59.4672C861.376 58.3457 860.046 57.897 857.978 57.897C856.965 57.8277 855.95 57.9862 855.005 58.3611C854.06 58.736 853.208 59.318 852.512 60.0654C851.182 61.5608 850.591 63.6544 850.591 66.2714V84.2164H845.716V53.336H850.37V58.4204C851.305 56.8518 852.646 55.5707 854.246 54.7145C855.847 53.8583 857.648 53.4593 859.455 53.5603C861.096 53.4586 862.73 53.8519 864.15 54.6905C865.57 55.529 866.713 56.775 867.433 58.2709C868.568 56.7844 870.004 55.5607 871.644 54.6819C873.257 53.9047 875.028 53.5206 876.815 53.5603C878.5 53.4952 880.176 53.855 881.69 54.6071C883.048 55.2474 884.181 56.2905 884.94 57.598C885.389 58.436 885.689 59.3469 885.827 60.2897C886.035 61.926 886.134 63.5747 886.122 65.2246V84.2911H881.173ZM912.789 77.1879V62.6824C912.789 59.6168 911.829 57.2989 909.982 55.8782C908.135 54.4576 905.254 53.7099 901.339 53.7099C897.646 53.7099 894.839 54.5323 892.77 56.2521C891.755 57.0871 890.945 58.1504 890.407 59.3576C889.868 60.5647 889.615 61.8823 889.668 63.2058V63.4301H894.322C894.271 62.6801 894.398 61.9287 894.694 61.2391C894.99 60.5495 895.445 59.9419 896.021 59.4672C897.547 58.5092 899.323 58.0401 901.118 58.1213C902.806 58.0193 904.491 58.381 905.993 59.1681C906.522 59.5399 906.945 60.0472 907.218 60.6383C907.49 61.2295 907.603 61.8832 907.544 62.5328C907.629 63.2937 907.527 64.064 907.249 64.7759C907.139 64.9903 906.982 65.1761 906.79 65.3188C906.598 65.4615 906.376 65.5572 906.141 65.5984C904.618 66.0045 903.059 66.255 901.487 66.3461L898.015 66.72C894.617 67.1686 892.179 68.0659 890.407 69.636C889.594 70.4281 888.951 71.3815 888.519 72.4365C888.087 73.4915 887.874 74.6254 887.895 75.7673C887.895 78.459 888.708 80.6274 890.407 82.1228C892.372 83.7735 894.873 84.6263 897.424 84.5155C899.302 84.519 901.162 84.1375 902.89 83.3939C904.723 82.5537 906.359 81.3306 907.692 79.8049V80.0292C907.651 80.671 907.741 81.3144 907.957 81.9191C908.173 82.5239 908.51 83.0769 908.948 83.5434C909.952 84.2782 911.185 84.6231 912.42 84.5155C912.789 84.2912 912.789 77.487 912.789 77.1879ZM907.618 73.2251C907.648 74.2249 907.427 75.2161 906.975 76.1055C906.522 76.995 905.854 77.7534 905.033 78.3095C903.147 79.6874 900.854 80.3732 898.532 80.2535C897.139 80.3453 895.756 79.9493 894.617 79.132C894.137 78.723 893.76 78.2049 893.516 77.6201C893.272 77.0353 893.169 76.4004 893.214 75.7673C893.183 75.1667 893.271 74.566 893.474 74.0008C893.677 73.4356 893.991 72.9176 894.395 72.4774C895.538 71.6085 896.89 71.0662 898.311 70.9072C898.901 70.8324 899.714 70.6828 900.896 70.5333C904.072 70.1595 906.288 69.636 907.618 68.8883V73.2251ZM942.632 43.541V84.2911H937.904V79.7301C936.72 81.1577 935.263 82.3277 933.62 83.1696C932.004 83.9395 930.235 84.3232 928.449 84.2911C926.689 84.3852 924.931 84.0625 923.315 83.3487C921.699 82.6348 920.27 81.5494 919.142 80.1787C916.778 77.4122 915.596 73.6737 915.596 69.0379C915.596 64.4021 916.778 60.514 919.142 57.7475C920.266 56.3668 921.692 55.2697 923.308 54.543C924.923 53.8163 926.683 53.4799 928.449 53.5603C930.295 53.5679 932.124 53.9229 933.842 54.6071C935.452 55.4005 936.866 56.5505 937.978 57.9718V43.6158H942.632V43.541ZM938.126 68.664C938.126 65.075 937.387 62.3833 935.984 60.514C934.58 58.6447 932.29 57.8223 929.483 57.8223C928.252 57.751 927.022 57.9864 925.902 58.5078C924.782 59.0292 923.805 59.8208 923.057 60.8131C921.505 62.7571 920.841 65.5984 920.841 69.337C920.841 72.6269 921.653 75.1691 923.204 77.1131C923.978 78.0468 924.953 78.7885 926.055 79.281C927.156 79.7736 928.354 80.004 929.557 79.9544C930.771 80.0356 931.987 79.8119 933.095 79.3032C934.203 78.7945 935.17 78.0165 935.91 77.0384C937.313 75.0196 938.126 72.3278 938.126 68.664ZM966.713 74.0475H971.515C971.143 77.0261 969.631 79.7379 967.304 81.5994C964.855 83.5067 961.823 84.4856 958.735 84.3659C954.673 84.3659 951.422 83.02 949.132 80.3283C946.842 77.6365 945.587 73.9728 945.587 69.337C945.587 64.4021 946.769 60.5888 949.132 57.7475C951.496 54.9062 954.673 53.6351 958.735 53.6351C962.946 53.6351 966.27 54.9062 968.486 57.5232C970.702 60.1402 971.958 63.6544 971.958 68.2902V69.5613C971.978 69.813 971.953 70.0663 971.884 70.309H950.758C950.831 73.3746 951.57 75.6925 952.974 77.3375C954.415 78.7659 956.306 79.6378 958.316 79.8017C960.327 79.9656 962.331 79.4112 963.98 78.2347C964.691 77.7598 965.3 77.1439 965.77 76.4243C966.24 75.7047 966.561 74.8961 966.713 74.0475ZM950.684 66.2714H966.787C966.787 63.5796 966.122 61.486 964.793 60.0654C963.205 58.6678 961.172 57.8981 959.068 57.8981C956.964 57.8981 954.931 58.6678 953.343 60.0654C951.718 61.4113 950.905 63.5796 950.684 66.2714ZM974.174 49.2984V43.6158H979.049V49.2236H974.174V49.2984ZM974.174 84.2911V53.336H979.049V84.3659H974.174V84.2911ZM983.26 84.2911V54.0837H987.988V59.4672C988.569 57.6584 989.676 56.0689 991.164 54.9062C992.581 53.8768 994.296 53.351 996.039 53.4108H996.852C997.027 53.4044 997.202 53.4297 997.369 53.4856V58.869L996.926 58.7943H996.187C993.528 58.7943 991.533 59.542 990.204 60.9626C988.874 62.3833 988.209 64.6264 988.209 67.3929V84.2164L983.26 84.2911ZM1025.14 84.2911V54.2333H1032.75V57.598C1033.76 56.2808 1035.05 55.2079 1036.52 54.4576C1037.94 53.7339 1039.51 53.3745 1041.1 53.4108C1042.76 53.3459 1044.41 53.7059 1045.9 54.4576C1047.34 55.2341 1048.54 56.3984 1049.37 57.8223C1050.23 56.6009 1051.33 55.576 1052.61 54.8145C1053.88 54.053 1055.3 53.5719 1056.77 53.4026C1058.24 53.2333 1059.73 53.3795 1061.14 53.8319C1062.55 54.2842 1063.85 55.0324 1064.96 56.0278C1066.81 57.8223 1067.62 60.2149 1067.62 63.3553V84.3659H1059.79V65.075C1059.85 63.8167 1059.43 62.5833 1058.61 61.6356C1058.17 61.2211 1057.66 60.901 1057.1 60.6952C1056.54 60.4894 1055.95 60.4023 1055.36 60.4392C1054.66 60.4098 1053.97 60.5352 1053.34 60.8066C1052.7 61.078 1052.13 61.4887 1051.66 62.0094C1050.7 63.1831 1050.2 64.6737 1050.26 66.1966V84.3659H1042.43V65.075C1042.52 63.8261 1042.12 62.5915 1041.32 61.6356C1040.91 61.2169 1040.41 60.8933 1039.86 60.6868C1039.31 60.4804 1038.73 60.3959 1038.14 60.4392C1037.45 60.4098 1036.76 60.5352 1036.12 60.8066C1035.49 61.078 1034.91 61.4887 1034.45 62.0094C1033.47 63.1962 1032.99 64.7286 1033.12 66.2714V84.4407L1025.14 84.2911ZM1126.27 43.541V84.2911H1118.66V79.2815C1117.68 80.8565 1116.34 82.1656 1114.75 83.0948C1113.18 83.8597 1111.46 84.2681 1109.72 84.2911C1108.02 84.354 1106.32 83.9995 1104.78 83.2576C1103.23 82.5157 1101.89 81.4083 1100.86 80.0292C1098.64 77.1879 1097.46 73.4494 1097.46 68.8136C1097.46 64.1778 1098.57 60.3645 1100.86 57.5232C1101.86 56.1224 1103.18 54.9934 1104.72 54.2367C1106.25 53.48 1107.94 53.1192 1109.65 53.1865C1111.41 53.1834 1113.15 53.566 1114.75 54.308C1116.3 55.1059 1117.6 56.322 1118.51 57.8223V43.6158H1126.27V43.541ZM1105.51 68.4397C1105.51 71.4306 1106.1 73.6737 1107.14 75.1691C1107.69 75.9377 1108.43 76.5483 1109.28 76.9414C1110.14 77.3346 1111.08 77.4968 1112.01 77.4122C1112.93 77.4624 1113.85 77.2843 1114.69 76.8934C1115.53 76.5024 1116.26 75.9105 1116.82 75.1691C1117.92 73.6737 1118.44 71.3558 1118.44 68.4397C1118.44 65.6732 1117.85 63.5048 1116.74 62.0094C1116.15 61.2908 1115.4 60.7162 1114.55 60.3281C1113.71 59.9399 1112.79 59.7479 1111.87 59.7663C1110.97 59.7246 1110.07 59.9075 1109.26 60.2987C1108.45 60.6899 1107.75 61.2775 1107.21 62.0094C1106.03 63.6544 1105.51 65.748 1105.51 68.4397ZM1148.36 74.5709H1156.19C1155.48 77.4847 1153.78 80.0526 1151.39 81.8237C1148.79 83.6489 1145.68 84.5677 1142.52 84.4407C1138.16 84.4407 1134.77 83.02 1132.33 80.1787C1129.89 77.3375 1128.56 73.5241 1128.56 68.664C1128.56 63.9535 1129.82 60.0654 1132.33 57.3736C1134.84 54.6819 1138.16 53.2612 1142.45 53.2612C1147.03 53.2612 1150.5 54.6071 1153.01 57.2989C1155.52 59.9906 1156.78 63.8039 1156.78 68.8883V70.0847C1156.79 70.3363 1156.77 70.5889 1156.7 70.8324H1136.91C1136.86 72.6876 1137.44 74.5038 1138.53 75.9916C1139.1 76.5877 1139.8 77.0504 1140.56 77.3475C1141.33 77.6445 1142.15 77.7687 1142.96 77.7113C1144.14 77.7674 1145.31 77.5095 1146.36 76.9636C1147.22 76.3519 1147.91 75.5281 1148.36 74.5709ZM1136.76 65.748H1148.43C1148.5 64.1075 1147.94 62.5036 1146.88 61.2617C1146.3 60.7323 1145.63 60.3267 1144.89 60.0697C1144.15 59.8127 1143.37 59.7095 1142.6 59.7663C1141.84 59.7347 1141.08 59.8574 1140.37 60.1271C1139.66 60.3968 1139.01 60.808 1138.46 61.3365C1137.36 62.5339 1136.75 64.112 1136.76 65.748ZM1158.7 54.308H1166.6V84.2911H1158.7V54.308ZM1158.7 43.541V50.9433H1164.39C1165.28 50.243 1166.03 49.3808 1166.6 48.4011V43.6158H1158.62V43.541H1158.7ZM1170.44 84.2164V54.2333H1177.83V59.1681C1178.64 57.4015 1179.92 55.899 1181.52 54.8314C1182.98 53.8892 1184.67 53.3956 1186.4 53.4108H1187.14C1187.29 53.399 1187.44 53.4247 1187.58 53.4856V61.4112H1184.92C1182.78 61.4112 1181.08 62.0094 1180.05 63.0562C1179.01 64.103 1178.5 65.8227 1178.5 67.9911V84.2164H1170.44ZM1212.99 77.9356V61.4112C1213.03 60.1924 1212.74 58.9863 1212.15 57.9204C1211.57 56.8544 1210.71 55.968 1209.67 55.3548C1207.53 53.9342 1204.28 53.336 1200.14 53.336C1196.3 53.336 1193.42 54.1585 1191.28 55.953C1190.23 56.7886 1189.39 57.8588 1188.83 59.0787C1188.27 60.2987 1187.99 61.6349 1188.02 62.9814V63.4301H1195.49V62.9814C1195.46 62.4554 1195.57 61.9324 1195.81 61.4615C1196.04 60.9906 1196.39 60.5873 1196.82 60.2897C1197.93 59.6186 1199.22 59.3057 1200.51 59.3925C1201.81 59.3214 1203.1 59.5783 1204.28 60.1402C1204.67 60.4201 1204.99 60.8054 1205.18 61.2538C1205.38 61.7023 1205.45 62.1965 1205.38 62.6824C1205.38 64.1778 1203.76 65.1498 1200.36 65.5984C1199.03 65.748 1197.92 65.8975 1197.11 66.0471C1193.49 66.5704 1190.98 67.5425 1189.35 69.0379C1187.73 70.5333 1186.99 72.5521 1186.99 75.3186C1186.99 78.3095 1187.8 80.5526 1189.35 82.1228C1190.25 82.9597 1191.29 83.6089 1192.43 84.0325C1193.58 84.4561 1194.79 84.6457 1196 84.5902C1197.94 84.6493 1199.87 84.2392 1201.62 83.3939C1203.22 82.6131 1204.59 81.4285 1205.61 79.9544C1205.76 81.5189 1206.03 83.0689 1206.42 84.5902H1212.99V77.9356ZM1205.38 71.8044C1205.42 72.6927 1205.28 73.5791 1204.98 74.413C1204.67 75.2469 1204.21 76.012 1203.61 76.6645C1202.21 77.8661 1200.42 78.5048 1198.59 78.459C1197.56 78.4969 1196.54 78.1808 1195.71 77.5618C1195.34 77.2374 1195.05 76.8339 1194.86 76.3809C1194.67 75.9279 1194.58 75.4371 1194.6 74.9448C1194.55 74.0475 1194.84 73.1648 1195.41 72.4774C1196.26 71.7558 1197.28 71.2666 1198.37 71.0567L1201.03 70.4585C1202.58 70.1676 1204.09 69.6907 1205.53 69.0379L1205.38 71.8044ZM1095.47 77.8608V61.3365C1095.5 60.1176 1095.21 58.9115 1094.63 57.8456C1094.04 56.7796 1093.18 55.8933 1092.14 55.2801C1090 53.8594 1086.75 53.2612 1082.61 53.2612C1078.77 53.2612 1075.89 54.0837 1073.75 55.8782C1072.7 56.7238 1071.86 57.8065 1071.29 59.0398C1070.73 60.2731 1070.46 61.6229 1070.5 62.9814V63.4301H1077.96V62.9814C1077.94 62.4554 1078.05 61.9324 1078.28 61.4615C1078.51 60.9906 1078.86 60.5873 1079.29 60.2897C1080.4 59.6186 1081.69 59.3057 1082.98 59.3925C1084.28 59.3214 1085.58 59.5783 1086.75 60.1402C1087.15 60.4201 1087.46 60.8054 1087.66 61.2538C1087.85 61.7023 1087.92 62.1965 1087.86 62.6824C1087.86 64.1778 1086.23 65.1498 1082.84 65.5984C1081.51 65.748 1080.4 65.8975 1079.59 66.0471C1075.97 66.5704 1073.45 67.5425 1071.83 69.0379C1070.2 70.5333 1069.47 72.5521 1069.47 75.3186C1069.47 78.3095 1070.28 80.5526 1071.83 82.1228C1072.72 82.9597 1073.77 83.6089 1074.91 84.0325C1076.05 84.4561 1077.26 84.6457 1078.48 84.5902C1080.42 84.6493 1082.34 84.2392 1084.09 83.3939C1085.69 82.6131 1087.06 81.4285 1088.08 79.9544C1088.22 81.5198 1088.5 83.0704 1088.89 84.5902H1095.47V77.8608ZM1087.93 71.7296C1087.97 72.6179 1087.83 73.5043 1087.52 74.3382C1087.22 75.1721 1086.76 75.9372 1086.16 76.5898C1084.76 77.7913 1082.97 78.43 1081.14 78.3842C1080.1 78.4222 1079.09 78.106 1078.26 77.487C1077.89 77.158 1077.61 76.7536 1077.42 76.3018C1077.23 75.8499 1077.13 75.3614 1077.15 74.87C1077.1 73.9727 1077.39 73.09 1077.96 72.4026C1078.81 71.681 1079.83 71.1918 1080.91 70.9819L1083.57 70.3838C1085.13 70.0929 1086.64 69.616 1088.08 68.9631L1087.93 71.7296ZM1021.15 77.1879V62.6824C1021.15 59.6168 1020.19 57.2989 1018.35 55.8782C1016.5 54.4576 1013.62 53.7099 1009.71 53.7099C1006.01 53.7099 1003.2 54.5323 1001.14 56.2521C1000.11 57.0808 999.299 58.143 998.76 59.3516C998.22 60.5603 997.972 61.8811 998.034 63.2058V63.4301H1002.69C1002.64 62.6801 1002.76 61.9287 1003.06 61.2391C1003.36 60.5495 1003.81 59.9419 1004.39 59.4672C1005.91 58.5092 1007.69 58.0401 1009.48 58.1213C1011.17 58.0193 1012.86 58.381 1014.36 59.1681C1014.89 59.5399 1015.31 60.0472 1015.58 60.6383C1015.86 61.2295 1015.97 61.8832 1015.91 62.5328C1015.99 63.2937 1015.89 64.064 1015.61 64.7759C1015.51 64.9903 1015.35 65.1761 1015.16 65.3188C1014.96 65.4615 1014.74 65.5572 1014.51 65.5984C1012.98 66.0045 1011.42 66.255 1009.85 66.3461L1006.38 66.72C1002.98 67.1686 1000.55 68.0659 998.772 69.636C997.96 70.4281 997.317 71.3815 996.885 72.4365C996.453 73.4915 996.24 74.6254 996.261 75.7673C996.261 78.459 997.073 80.6274 998.772 82.1228C1000.74 83.7735 1003.24 84.6263 1005.79 84.5155C1007.67 84.519 1009.53 84.1375 1011.26 83.3939C1013.09 82.5537 1014.73 81.3306 1016.06 79.8049V80.0292C1016.02 80.671 1016.11 81.3144 1016.32 81.9191C1016.54 82.5239 1016.88 83.0769 1017.31 83.5434C1018.32 84.2782 1019.55 84.6231 1020.79 84.5155C1021.15 84.2912 1021.15 77.487 1021.15 77.1879ZM1016.06 73.2251C1016.09 74.2249 1015.87 75.2161 1015.41 76.1055C1014.96 76.995 1014.29 77.7534 1013.47 78.3095C1011.59 79.6874 1009.29 80.3732 1006.97 80.2535C1005.58 80.3453 1004.2 79.9493 1003.06 79.132C1002.58 78.723 1002.2 78.2049 1001.96 77.6201C1001.71 77.0353 1001.61 76.4004 1001.65 75.7673C1001.62 75.1667 1001.71 74.566 1001.91 74.0008C1002.12 73.4356 1002.43 72.9176 1002.84 72.4774C1003.98 71.6085 1005.33 71.0662 1006.75 70.9072C1007.34 70.8324 1008.15 70.6828 1009.34 70.5333C1012.51 70.1595 1014.73 69.636 1016.06 68.8883V73.2251Z" fill="black"></path>
</g>
</g>
</g>
</g>
<defs>
<clipPath id="madeiramadeira-mono-clip3_1457_43">
<rect width="443" height="98" fill="white" transform="translate(770 20)"></rect>
</clipPath>
<clipPath id="madeiramadeira-mono-clip4_1457_43">
<rect width="442.938" height="97.4316" fill="white" transform="translate(770 20)"></rect>
</clipPath>
<clipPath id="madeiramadeira-mono-clip5_1457_43">
<rect width="443" height="62" fill="white" transform="translate(770 38)"></rect>
</clipPath>
</defs>
</svg>
