<svg width="233.01" height="87.13" viewBox="1669 20.91 233.01 87.13" fill="none" xmlns="http://www.w3.org/2000/svg">
<g>
<g clip-path="url(#sky-reversed-clip2_1457_43)">
<path fill-rule="evenodd" clip-rule="evenodd" d="M1740.32 48.5357C1729.72 42.3402 1722.66 40.925 1715.09 40.925C1710.89 40.925 1706.18 41.9835 1705.5 46.2318C1705 49.9479 1708.36 50.8367 1715.43 52.4301C1728.38 55.2632 1741.5 58.9823 1743.18 72.9695L1750.25 36.3173L1740.32 48.5357ZM1837.89 49.597L1857.23 23.3913H1886L1845.3 73.8554L1839.24 105.371H1814.68L1821.57 70.1364L1808.96 47.2931L1792.48 66.242L1814.68 105.371H1785.07L1767.74 72.7941L1761.85 105.371H1736.96L1740.49 86.6031C1733.76 102.716 1721.15 108.031 1703.99 108.031C1689.52 108.031 1676.23 103.423 1669 95.0995L1682.62 78.282C1688.51 84.302 1697.6 87.4889 1707.19 87.4889C1713.91 87.4889 1717.95 84.8342 1718.12 81.2906C1718.28 75.2706 1708.36 74.3847 1699.28 71.7299C1689.02 68.7213 1678.08 61.4616 1680.94 46.2318C1683.13 34.5455 1693.05 20.912 1718.28 20.912C1732.42 20.912 1742.85 24.2743 1751.42 30.651L1752.77 23.3913H1777.67L1770.43 58.9823L1799.71 23.3913H1824.44L1837.89 49.597Z" fill="white"></path>
<path d="M1894.03 30.3917H1895.91C1896.69 30.3917 1897.19 30.0037 1897.38 29.2332C1897.57 28.4796 1897.31 28.1056 1896.59 28.1056H1894.61L1894.03 30.3917ZM1891.61 34.0671L1893.47 26.798H1897.05C1898.63 26.798 1899.23 27.5488 1898.84 29.056C1898.56 30.1499 1898.04 30.8051 1897.26 31.0273C1897.88 31.1932 1898.1 31.6684 1897.9 32.453L1897.48 34.0671H1896.01L1896.35 32.7229C1896.52 32.0396 1896.27 31.6965 1895.58 31.6965H1893.7L1893.09 34.0671H1891.61ZM1896.94 24.8942C1895.47 24.8942 1894.08 25.4398 1892.76 26.5308C1891.44 27.6247 1890.58 28.9435 1890.19 30.493C1889.79 32.0424 1889.98 33.364 1890.74 34.4579C1891.5 35.5546 1892.61 36.1002 1894.08 36.1002C1895.55 36.1002 1896.94 35.5546 1898.25 34.4579C1899.56 33.364 1900.42 32.0424 1900.81 30.493C1901.21 28.9492 1901.03 27.6331 1900.27 26.5364C1899.52 25.4398 1898.4 24.8942 1896.94 24.8942ZM1897.17 24C1898.89 24 1900.2 24.6327 1901.1 25.9009C1902 27.1692 1902.23 28.6989 1901.77 30.493C1901.31 32.2842 1900.31 33.8168 1898.76 35.0906C1897.22 36.3617 1895.58 37 1893.86 37C1892.12 37 1890.8 36.3617 1889.9 35.0934C1888.99 33.8252 1888.77 32.2927 1889.23 30.493C1889.69 28.6989 1890.69 27.1692 1892.24 25.9009C1893.79 24.6327 1895.44 24 1897.17 24Z" fill="white"></path>
</g>
</g>
<defs>
<clipPath id="sky-reversed-clip2_1457_43">
<rect width="233" height="89" fill="white" transform="translate(1669 20)"></rect>
</clipPath>
</defs>
</svg>
