<svg width="321.94" height="82.66" viewBox="1669 36.67 321.94 82.66" fill="none" xmlns="http://www.w3.org/2000/svg">
<g>
<g>
<path fill-rule="evenodd" clip-rule="evenodd" d="M1917.14 37.6727C1914.12 38.1745 1911.08 38.6923 1910.38 38.8231L1909.11 39.0617V51.3826C1909.11 58.1592 1909.02 63.7039 1908.92 63.7039C1908.81 63.7039 1907.21 63.2632 1905.35 62.7246C1901.32 61.5593 1895.53 61.403 1891.5 62.3521C1883.28 64.2899 1877.69 70.0492 1874.78 79.5827C1873.8 82.828 1873.71 83.6267 1873.69 90.1444C1873.65 98.1953 1874.01 100.07 1876.66 105.577C1879.55 111.597 1885.12 116.088 1892.27 118.168C1898.36 119.94 1911.33 119.522 1920.9 117.244L1924.58 116.368L1924.68 76.5215L1924.78 36.6758L1923.7 36.7185C1923.11 36.7416 1920.15 37.1713 1917.14 37.6727ZM1679.32 41.7445C1672.42 42.8366 1669.01 45.9472 1669 51.1691C1668.99 55.1767 1670.76 59.9352 1673.88 64.3063C1675.49 66.5634 1679.35 70.363 1680.03 70.363C1680.19 70.363 1680.49 70.041 1680.7 69.6477C1681 69.0876 1680.75 68.4303 1679.54 66.612C1676.61 62.2283 1675.55 57.6794 1676.78 54.7776C1678.55 50.5788 1689.43 49.1393 1699.84 51.7265C1707.23 53.564 1715.49 57.0969 1724.59 62.3098C1729.22 64.9664 1729.91 65.219 1730.2 64.3894C1730.68 63.0533 1728.02 60.3363 1721.56 55.5555C1713.38 49.5114 1702.23 44.5265 1692.49 42.562C1688.08 41.6725 1682.12 41.3023 1679.32 41.7445ZM1732.23 44.9295C1728.34 45.3589 1721.43 47.0781 1721.04 47.7162C1720.88 47.9763 1720.91 48.5019 1721.12 48.8843C1721.41 49.4334 1721.76 49.52 1722.76 49.2971C1723.45 49.1416 1726.58 49.0147 1729.7 49.0147C1734.8 49.0147 1735.58 49.1075 1737.34 49.9145C1742.06 52.0842 1744.15 54.7353 1743.64 57.9257C1743.19 60.7175 1741.08 64.0799 1737.54 67.6476C1733.6 71.6145 1729.51 74.7031 1722.16 79.2568L1716.78 82.5946L1717.92 84.0192C1718.55 84.8027 1720.19 86.545 1721.55 87.8905L1724.04 90.3372L1728.05 88.0221C1735.38 83.7858 1741.01 79.4315 1746.18 74.0043C1751.81 68.0805 1754.74 62.8817 1755.07 58.1929C1755.24 55.8399 1755.13 55.232 1754.22 53.3541C1753.04 50.9529 1750.15 48.1283 1747.62 46.9085C1743.81 45.0741 1737.86 44.3091 1732.23 44.9295ZM1774.94 47.7879L1767.5 49.0155L1767.5 75.4556C1767.5 104.509 1767.53 104.871 1769.92 109.775C1772.92 115.922 1779.78 119.332 1789.13 119.324C1794.72 119.319 1803.14 117.559 1803.63 116.294C1803.85 115.724 1802.17 105.469 1801.75 104.783C1801.59 104.53 1800.61 104.631 1799 105.068C1797.43 105.493 1794.95 105.759 1792.38 105.78C1787.15 105.822 1786.05 105.286 1784.35 101.892L1783.17 99.5455L1783.05 87.6962L1782.92 75.847H1792.35H1801.78V69.3837V62.9205H1792.38H1782.97V54.6945C1782.97 50.1702 1782.84 46.4893 1782.68 46.5144C1782.52 46.5395 1779.04 47.1126 1774.94 47.7879ZM1687.98 57.194C1687.21 57.7699 1687.22 57.8435 1688.96 62.9929C1694.58 79.7092 1708.93 100.089 1721.22 108.813C1727.13 113.015 1733.3 115.074 1737.4 114.222C1741.4 113.393 1744.35 110.155 1745.6 105.225C1746.88 100.229 1745.83 92.3694 1743.19 87.1576C1742.23 85.2539 1741.52 84.7196 1740.68 85.2445C1740.27 85.496 1740.26 85.9218 1740.61 87.3402C1741.27 89.9306 1741.18 96.1701 1740.47 98.1965C1737.44 106.788 1729.62 104.944 1717.67 92.8222C1709.18 84.2096 1698.91 71.6811 1693.16 62.9205C1688.91 56.4553 1688.94 56.4858 1687.98 57.194ZM1829.67 62.1226C1821.6 64.2993 1814.71 70.5353 1811.79 78.3018C1809.71 83.8155 1809.14 90.2851 1810.2 96.337C1811.37 103.092 1813.65 107.65 1818.07 112.126C1822.87 116.98 1829.01 119.327 1836.9 119.327C1852.67 119.327 1862.96 109.109 1863.94 92.4657C1864.78 78.1878 1857.73 66.532 1845.93 62.6788C1841.49 61.2298 1833.94 60.9717 1829.67 62.1226ZM1956.89 62.1327C1947.83 64.5559 1941.4 70.6685 1938.42 79.7096C1937.31 83.0772 1937.16 84.0991 1937.01 89.1651C1936.86 94.0036 1936.96 95.3671 1937.68 98.3704C1938.93 103.629 1941.12 107.831 1944.44 111.323C1949.57 116.729 1954.66 118.923 1962.78 119.236C1966.92 119.395 1968.22 119.294 1971.01 118.592C1981.59 115.933 1988.09 108.837 1990.4 97.4263C1991.3 92.993 1991.02 84.711 1989.84 80.7433C1987.18 71.7606 1980.88 65.1481 1972.41 62.4418C1968.72 61.2627 1960.74 61.1041 1956.89 62.1327ZM1841.34 75.854C1845.77 78.095 1848.27 84.107 1847.88 91.5154C1847.54 97.8729 1845.47 102.457 1841.96 104.624C1840.22 105.693 1839.71 105.813 1836.84 105.813C1833.96 105.813 1833.45 105.693 1831.71 104.623C1829.48 103.248 1827.66 100.696 1826.6 97.4667C1825.57 94.3393 1825.56 86.3531 1826.58 83.2895C1828.59 77.2794 1832.57 74.369 1838.01 74.948C1839.09 75.0627 1840.59 75.4705 1841.34 75.854ZM1968.06 75.6401C1970.93 76.8121 1972.94 79.5341 1974.28 84.0463C1975.13 86.9058 1975.13 93.7732 1974.28 96.6343C1972.35 103.145 1969.36 105.795 1963.95 105.795C1960.69 105.795 1958.73 105.029 1956.82 103.009C1955.18 101.275 1953.41 97.0867 1953.02 94.0275C1952 85.8583 1954.23 79.0468 1958.9 76.0828C1961.05 74.7204 1965.3 74.5147 1968.06 75.6401ZM1907.05 76.2304L1909.11 77.1185V91.3133V105.508L1907.05 105.755C1898.35 106.8 1894.14 104.91 1891.15 98.6172C1889.85 95.8736 1889.74 95.3663 1889.6 91.1464C1889.3 82.3086 1891.44 77.4867 1896.53 75.5786C1898.7 74.7623 1904.48 75.1199 1907.05 76.2304ZM1695.43 92.5417C1688.6 95.3205 1681.19 96.5223 1678.31 95.3154C1677.09 94.8031 1676.8 94.7921 1676.42 95.2461C1675.61 96.2207 1676.81 97.8753 1679.17 99.0496C1683.76 101.33 1690.78 101.345 1700.81 99.0962C1702.27 98.7699 1703.46 98.3434 1703.46 98.1479C1703.46 97.4119 1698.93 91.5648 1698.37 91.5746C1698.04 91.5801 1696.72 92.0152 1695.43 92.5417Z" fill="white"></path>
</g>
</g>
</svg>
