<svg width="592" height="300" viewBox="0 0 592 300" fill="none" xmlns="http://www.w3.org/2000/svg">
<g id="Implement API Gateway security on distributed infrastructure" clip-path="url(#clip0_1616_203)">
<g id="Connector line">
<path id="Connector line_2" d="M-69 150L602 150" stroke="#F3652B" stroke-width="0.8" stroke-dasharray="2 2"/>
</g>
<g id="Icon box" filter="url(#filter0_dd_1616_203)">
<mask id="path-6-inside-1_1616_203" fill="white">
<path d="M95 136.25C95 130.037 100.037 125 106.25 125H134.375C140.588 125 145.625 130.037 145.625 136.25V164.25C145.625 170.463 140.588 175.5 134.375 175.5H106.25C100.037 175.5 95 170.463 95 164.25V136.25Z"/>
</mask>
<path d="M95 136.25C95 130.037 100.037 125 106.25 125H134.375C140.588 125 145.625 130.037 145.625 136.25V164.25C145.625 170.463 140.588 175.5 134.375 175.5H106.25C100.037 175.5 95 170.463 95 164.25V136.25Z" fill="#0A0A0A"/>
<path d="M106.25 125V126.125H134.375V125V123.875H106.25V125ZM145.625 136.25H144.5V164.25H145.625H146.75V136.25H145.625ZM134.375 175.5V174.375H106.25V175.5V176.625H134.375V175.5ZM95 164.25H96.125V136.25H95H93.875V164.25H95ZM106.25 175.5V174.375C100.658 174.375 96.125 169.842 96.125 164.25H95H93.875C93.875 171.085 99.4155 176.625 106.25 176.625V175.5ZM145.625 164.25H144.5C144.5 169.842 139.967 174.375 134.375 174.375V175.5V176.625C141.21 176.625 146.75 171.085 146.75 164.25H145.625ZM134.375 125V126.125C139.967 126.125 144.5 130.658 144.5 136.25H145.625H146.75C146.75 129.415 141.21 123.875 134.375 123.875V125ZM106.25 125V123.875C99.4155 123.875 93.875 129.415 93.875 136.25H95H96.125C96.125 130.658 100.658 126.125 106.25 126.125V125Z" fill="url(#paint0_linear_1616_203)" fill-opacity="0.1" mask="url(#path-6-inside-1_1616_203)"/>
<g id="pi-users">
<path id="Vector" d="M122.585 152.238C125.221 152.238 131.391 152.238 131.391 157.635C131.388 157.86 131.297 158.076 131.138 158.235C130.979 158.394 130.764 158.484 130.539 158.487C130.314 158.484 130.099 158.394 129.939 158.235C129.78 158.076 129.69 157.86 129.687 157.635C129.687 155.42 128.482 153.942 122.585 153.942C116.688 153.942 115.483 155.42 115.483 157.635C115.483 157.861 115.393 158.078 115.233 158.238C115.074 158.398 114.857 158.487 114.631 158.487C114.405 158.487 114.188 158.398 114.028 158.238C113.869 158.078 113.779 157.861 113.779 157.635C113.779 152.238 119.949 152.238 122.585 152.238ZM114.062 151.67C114.289 151.67 114.506 151.76 114.666 151.919C114.826 152.079 114.915 152.296 114.915 152.522C114.915 152.748 114.826 152.965 114.666 153.125C114.506 153.284 114.289 153.375 114.062 153.375C111.393 153.375 110.939 154.227 110.938 156.783C110.936 157.008 110.845 157.223 110.686 157.382C110.526 157.542 110.311 157.632 110.086 157.635C109.861 157.632 109.645 157.542 109.486 157.382C109.327 157.223 109.237 157.008 109.234 156.783C109.234 153.715 110.052 151.671 114.062 151.67ZM113.919 145.402C114.62 144.825 115.522 144.549 116.426 144.636C116.542 144.641 116.656 144.67 116.761 144.72C116.865 144.771 116.958 144.843 117.034 144.93C117.11 145.018 117.167 145.12 117.202 145.23C117.237 145.341 117.249 145.457 117.237 145.573C117.226 145.688 117.191 145.801 117.135 145.902C117.078 146.003 117.001 146.092 116.909 146.163C116.817 146.233 116.712 146.285 116.6 146.314C116.487 146.343 116.37 146.348 116.256 146.33C116.034 146.308 115.809 146.33 115.597 146.396C115.384 146.462 115.187 146.571 115.018 146.715C114.845 146.855 114.702 147.027 114.597 147.222C114.491 147.417 114.425 147.631 114.403 147.852C114.38 148.075 114.401 148.301 114.466 148.516C114.53 148.731 114.638 148.932 114.78 149.105C114.923 149.278 115.099 149.422 115.298 149.527C115.496 149.632 115.714 149.696 115.938 149.715C116.307 149.747 116.678 149.659 116.994 149.465C117.187 149.346 117.419 149.309 117.64 149.361C117.86 149.413 118.051 149.551 118.17 149.744C118.289 149.936 118.327 150.169 118.274 150.389C118.222 150.61 118.084 150.8 117.892 150.919C117.365 151.256 116.756 151.44 116.131 151.454H115.768C114.864 151.366 114.031 150.923 113.453 150.222C112.876 149.521 112.6 148.619 112.688 147.715C112.775 146.812 113.218 145.979 113.919 145.402ZM121.753 142.093C122.579 141.929 123.436 142.014 124.215 142.336C124.993 142.659 125.66 143.205 126.128 143.906C126.596 144.606 126.846 145.43 126.846 146.273C126.846 147.403 126.397 148.487 125.598 149.286C124.799 150.085 123.715 150.534 122.585 150.534C121.742 150.534 120.918 150.284 120.218 149.816C119.517 149.348 118.971 148.681 118.648 147.903C118.326 147.124 118.241 146.267 118.405 145.441C118.57 144.615 118.975 143.855 119.571 143.259C120.167 142.664 120.927 142.258 121.753 142.093ZM122.585 143.716C122.079 143.716 121.584 143.866 121.164 144.147C120.744 144.428 120.416 144.827 120.223 145.294C120.029 145.761 119.979 146.275 120.077 146.771C120.176 147.267 120.42 147.723 120.777 148.081C121.135 148.438 121.59 148.681 122.086 148.78C122.582 148.878 123.096 148.828 123.563 148.634C124.03 148.441 124.429 148.113 124.71 147.693C124.991 147.273 125.142 146.779 125.142 146.273C125.142 145.595 124.872 144.945 124.393 144.465C123.913 143.986 123.263 143.716 122.585 143.716Z" fill="#FAFAFA"/>
</g>
</g>
<g id="Icon box_2" filter="url(#filter1_dd_1616_203)">
<mask id="path-9-inside-2_1616_203" fill="white">
<path d="M157.625 136.25C157.625 130.037 162.662 125 168.875 125H197C203.213 125 208.25 130.037 208.25 136.25V164.25C208.25 170.463 203.213 175.5 197 175.5H168.875C162.662 175.5 157.625 170.463 157.625 164.25V136.25Z"/>
</mask>
<path d="M157.625 136.25C157.625 130.037 162.662 125 168.875 125H197C203.213 125 208.25 130.037 208.25 136.25V164.25C208.25 170.463 203.213 175.5 197 175.5H168.875C162.662 175.5 157.625 170.463 157.625 164.25V136.25Z" fill="#0A0A0A"/>
<path d="M168.875 125V126.125H197V125V123.875H168.875V125ZM208.25 136.25H207.125V164.25H208.25H209.375V136.25H208.25ZM197 175.5V174.375H168.875V175.5V176.625H197V175.5ZM157.625 164.25H158.75V136.25H157.625H156.5V164.25H157.625ZM168.875 175.5V174.375C163.283 174.375 158.75 169.842 158.75 164.25H157.625H156.5C156.5 171.085 162.04 176.625 168.875 176.625V175.5ZM208.25 164.25H207.125C207.125 169.842 202.592 174.375 197 174.375V175.5V176.625C203.835 176.625 209.375 171.085 209.375 164.25H208.25ZM197 125V126.125C202.592 126.125 207.125 130.658 207.125 136.25H208.25H209.375C209.375 129.415 203.835 123.875 197 123.875V125ZM168.875 125V123.875C162.04 123.875 156.5 129.415 156.5 136.25H157.625H158.75C158.75 130.658 163.283 126.125 168.875 126.125V125Z" fill="url(#paint1_linear_1616_203)" fill-opacity="0.1" mask="url(#path-9-inside-2_1616_203)"/>
<g id="ai-azion-api">
<path id="Vector_2" d="M188.371 154.747C188.475 154.747 188.573 154.77 188.662 154.81H189.602C190.643 154.811 191.487 155.654 191.487 156.695C191.487 157.735 190.643 158.58 189.602 158.58H189.081V160.194C189.081 160.586 188.763 160.904 188.371 160.904C187.979 160.904 187.661 160.586 187.661 160.194V155.457C187.661 155.065 187.979 154.747 188.371 154.747ZM193.235 154.747C193.627 154.747 193.945 155.065 193.945 155.457V160.194C193.945 160.586 193.627 160.904 193.235 160.904C192.843 160.904 192.524 160.586 192.524 160.194V155.457C192.524 155.065 192.843 154.747 193.235 154.747ZM184.119 154.747C184.572 154.747 184.916 155.049 185.06 155.421L185.064 155.429L185.067 155.438L186.678 159.956C186.809 160.325 186.616 160.731 186.247 160.863C185.877 160.995 185.471 160.802 185.34 160.432L185.079 159.701H183.159L182.899 160.432C182.768 160.802 182.361 160.994 181.992 160.863C181.623 160.731 181.43 160.325 181.561 159.956L183.171 155.438L183.174 155.429L183.178 155.421C183.322 155.049 183.666 154.747 184.119 154.747ZM181.078 140.523C182.002 139.324 183.811 139.324 184.735 140.523L186.035 142.211C186.17 142.385 186.388 142.475 186.607 142.447L188.719 142.174C190.22 141.979 191.499 143.258 191.304 144.76L191.031 146.872C191.003 147.091 191.093 147.308 191.268 147.443L192.955 148.743C194.154 149.667 194.154 151.476 192.955 152.4L192.531 152.727C192.162 153.012 191.632 152.943 191.347 152.574C191.063 152.205 191.132 151.675 191.501 151.39L191.925 151.063C192.247 150.815 192.247 150.328 191.925 150.08L190.238 148.78C189.588 148.279 189.253 147.469 189.358 146.655L189.632 144.543C189.684 144.139 189.339 143.795 188.935 143.847L186.824 144.121C186.01 144.226 185.199 143.89 184.698 143.24L183.398 141.553C183.15 141.231 182.663 141.231 182.415 141.553L181.115 143.24C180.614 143.89 179.804 144.226 178.99 144.121L176.878 143.847C176.474 143.795 176.13 144.139 176.182 144.543L176.456 146.655C176.561 147.469 176.225 148.279 175.575 148.78L173.888 150.08C173.566 150.328 173.566 150.815 173.888 151.063L175.575 152.363C176.225 152.864 176.561 153.675 176.456 154.489L176.182 156.6C176.13 157.004 176.474 157.349 176.878 157.297L177.409 157.227L178.616 157.071C179.078 157.011 179.501 157.338 179.561 157.8C179.621 158.262 179.295 158.685 178.833 158.745L177.626 158.901L177.095 158.969C175.593 159.164 174.314 157.885 174.509 156.384L174.782 154.272C174.81 154.053 174.72 153.835 174.546 153.7L172.858 152.4C171.659 151.476 171.659 149.667 172.858 148.743L174.546 147.443C174.72 147.308 174.81 147.091 174.782 146.872L174.509 144.76C174.314 143.258 175.593 141.979 177.095 142.174L179.207 142.447C179.426 142.475 179.643 142.385 179.778 142.211L181.078 140.523ZM183.666 158.281H184.572L184.119 157.009L183.666 158.281ZM189.081 157.408H189.602C189.996 157.408 190.315 157.088 190.315 156.695C190.315 156.302 189.996 155.982 189.602 155.982H189.081V157.408ZM182.906 147.435C184.606 147.435 185.985 148.814 185.985 150.514C185.985 152.215 184.607 153.593 182.906 153.594C181.206 153.593 179.827 152.215 179.827 150.514C179.827 148.814 181.206 147.436 182.906 147.435ZM182.906 149.123C182.138 149.123 181.515 149.746 181.514 150.514C181.514 151.283 182.138 151.906 182.906 151.906C183.675 151.906 184.298 151.283 184.298 150.514C184.297 149.746 183.674 149.123 182.906 149.123Z" fill="#FAFAFA"/>
</g>
</g>
<g id="Frame 636106">
<rect x="220.75" y="102.5" width="212.875" height="95.5" rx="15.5" fill="#141414"/>
<rect x="220.75" y="102.5" width="212.875" height="95.5" rx="15.5" stroke="#2B2B2B"/>
<g id="Icon box_3" filter="url(#filter2_dd_1616_203)">
<mask id="path-13-inside-3_1616_203" fill="white">
<path d="M243.25 136.25C243.25 130.037 248.287 125 254.5 125H282.625C288.838 125 293.875 130.037 293.875 136.25V164.25C293.875 170.463 288.838 175.5 282.625 175.5H254.5C248.287 175.5 243.25 170.463 243.25 164.25V136.25Z"/>
</mask>
<path d="M243.25 136.25C243.25 130.037 248.287 125 254.5 125H282.625C288.838 125 293.875 130.037 293.875 136.25V164.25C293.875 170.463 288.838 175.5 282.625 175.5H254.5C248.287 175.5 243.25 170.463 243.25 164.25V136.25Z" fill="#0A0A0A"/>
<path d="M254.5 125V126.125H282.625V125V123.875H254.5V125ZM293.875 136.25H292.75V164.25H293.875H295V136.25H293.875ZM282.625 175.5V174.375H254.5V175.5V176.625H282.625V175.5ZM243.25 164.25H244.375V136.25H243.25H242.125V164.25H243.25ZM254.5 175.5V174.375C248.908 174.375 244.375 169.842 244.375 164.25H243.25H242.125C242.125 171.085 247.665 176.625 254.5 176.625V175.5ZM293.875 164.25H292.75C292.75 169.842 288.217 174.375 282.625 174.375V175.5V176.625C289.46 176.625 295 171.085 295 164.25H293.875ZM282.625 125V126.125C288.217 126.125 292.75 130.658 292.75 136.25H293.875H295C295 129.415 289.46 123.875 282.625 123.875V125ZM254.5 125V123.875C247.665 123.875 242.125 129.415 242.125 136.25H243.25H244.375C244.375 130.658 248.908 126.125 254.5 126.125V125Z" fill="url(#paint2_linear_1616_203)" mask="url(#path-13-inside-3_1616_203)"/>
<g id="pi-lock">
<path id="Vector_3" d="M268.562 140.308C269.993 140.308 271.366 140.877 272.378 141.889C273.39 142.901 273.959 144.274 273.959 145.705V148.261H274.243C275.072 148.261 275.867 148.591 276.453 149.177C277.039 149.763 277.368 150.558 277.368 151.386V157.068C277.368 157.896 277.039 158.691 276.453 159.277C275.867 159.863 275.072 160.192 274.243 160.192H262.881C262.052 160.192 261.257 159.863 260.671 159.277C260.085 158.691 259.756 157.896 259.756 157.068V151.386C259.756 150.558 260.085 149.763 260.671 149.177C261.257 148.591 262.052 148.261 262.881 148.261H263.165V145.705C263.165 144.274 263.733 142.901 264.745 141.889C265.757 140.877 267.13 140.308 268.562 140.308ZM262.881 149.966C262.504 149.966 262.142 150.116 261.876 150.382C261.61 150.649 261.46 151.01 261.46 151.386V157.068C261.46 157.444 261.61 157.805 261.876 158.072C262.142 158.338 262.504 158.488 262.881 158.488H274.243C274.62 158.488 274.981 158.338 275.247 158.072C275.513 157.805 275.663 157.444 275.663 157.068V151.386C275.663 151.009 275.513 150.649 275.247 150.382C274.981 150.116 274.62 149.966 274.243 149.966H262.881ZM268.562 142.012C267.582 142.012 266.644 142.402 265.951 143.094C265.259 143.787 264.869 144.726 264.869 145.705V148.261H272.255V145.705C272.255 144.726 271.865 143.787 271.173 143.094C270.48 142.402 269.541 142.012 268.562 142.012Z" fill="#FAFAFA"/>
</g>
</g>
<g id="Icon box_4" filter="url(#filter3_dd_1616_203)">
<mask id="path-16-inside-4_1616_203" fill="white">
<path d="M301.875 136.25C301.875 130.037 306.912 125 313.125 125H341.25C347.463 125 352.5 130.037 352.5 136.25V164.25C352.5 170.463 347.463 175.5 341.25 175.5H313.125C306.912 175.5 301.875 170.463 301.875 164.25V136.25Z"/>
</mask>
<path d="M301.875 136.25C301.875 130.037 306.912 125 313.125 125H341.25C347.463 125 352.5 130.037 352.5 136.25V164.25C352.5 170.463 347.463 175.5 341.25 175.5H313.125C306.912 175.5 301.875 170.463 301.875 164.25V136.25Z" fill="#0A0A0A"/>
<path d="M313.125 125V126.125H341.25V125V123.875H313.125V125ZM352.5 136.25H351.375V164.25H352.5H353.625V136.25H352.5ZM341.25 175.5V174.375H313.125V175.5V176.625H341.25V175.5ZM301.875 164.25H303V136.25H301.875H300.75V164.25H301.875ZM313.125 175.5V174.375C307.533 174.375 303 169.842 303 164.25H301.875H300.75C300.75 171.085 306.29 176.625 313.125 176.625V175.5ZM352.5 164.25H351.375C351.375 169.842 346.842 174.375 341.25 174.375V175.5V176.625C348.085 176.625 353.625 171.085 353.625 164.25H352.5ZM341.25 125V126.125C346.842 126.125 351.375 130.658 351.375 136.25H352.5H353.625C353.625 129.415 348.085 123.875 341.25 123.875V125ZM313.125 125V123.875C306.29 123.875 300.75 129.415 300.75 136.25H301.875H303C303 130.658 307.533 126.125 313.125 126.125V125Z" fill="url(#paint3_linear_1616_203)" mask="url(#path-16-inside-4_1616_203)"/>
<g id="pi-shopping-cart">
<path id="Vector_4" d="M324.632 156.215C325.575 156.215 326.336 156.976 326.336 157.919C326.336 158.862 325.575 159.624 324.632 159.624C323.689 159.624 322.928 158.862 322.928 157.919C322.928 156.976 323.689 156.215 324.632 156.215ZM332.018 156.215C332.96 156.215 333.722 156.977 333.722 157.919C333.722 158.862 332.961 159.624 332.018 159.624C331.074 159.624 330.312 158.862 330.312 157.919C330.313 156.976 331.075 156.215 332.018 156.215ZM320.371 140.875C320.78 140.876 321.132 141.172 321.212 141.581L321.7 144.285H336.278C336.539 144.285 336.789 144.41 336.948 144.614C337.107 144.818 337.164 145.091 337.107 145.341L334.835 154.431C334.744 154.806 334.403 155.079 334.006 155.079H322.644C322.235 155.079 321.882 154.784 321.803 154.374L319.655 142.581H318.099C317.633 142.581 317.246 142.194 317.246 141.728C317.246 141.262 317.633 140.875 318.099 140.875H320.371ZM323.348 153.374H333.335L335.188 145.989H322.007L323.348 153.374Z" fill="#FAFAFA"/>
</g>
</g>
<g id="Icon box_5" filter="url(#filter4_dd_1616_203)">
<mask id="path-19-inside-5_1616_203" fill="white">
<path d="M360.5 136.25C360.5 130.037 365.537 125 371.75 125H399.875C406.088 125 411.125 130.037 411.125 136.25V164.25C411.125 170.463 406.088 175.5 399.875 175.5H371.75C365.537 175.5 360.5 170.463 360.5 164.25V136.25Z"/>
</mask>
<path d="M360.5 136.25C360.5 130.037 365.537 125 371.75 125H399.875C406.088 125 411.125 130.037 411.125 136.25V164.25C411.125 170.463 406.088 175.5 399.875 175.5H371.75C365.537 175.5 360.5 170.463 360.5 164.25V136.25Z" fill="#0A0A0A"/>
<path d="M371.75 125V126.125H399.875V125V123.875H371.75V125ZM411.125 136.25H410V164.25H411.125H412.25V136.25H411.125ZM399.875 175.5V174.375H371.75V175.5V176.625H399.875V175.5ZM360.5 164.25H361.625V136.25H360.5H359.375V164.25H360.5ZM371.75 175.5V174.375C366.158 174.375 361.625 169.842 361.625 164.25H360.5H359.375C359.375 171.085 364.915 176.625 371.75 176.625V175.5ZM411.125 164.25H410C410 169.842 405.467 174.375 399.875 174.375V175.5V176.625C406.71 176.625 412.25 171.085 412.25 164.25H411.125ZM399.875 125V126.125C405.467 126.125 410 130.658 410 136.25H411.125H412.25C412.25 129.415 406.71 123.875 399.875 123.875V125ZM371.75 125V123.875C364.915 123.875 359.375 129.415 359.375 136.25H360.5H361.625C361.625 130.658 366.158 126.125 371.75 126.125V125Z" fill="url(#paint4_linear_1616_203)" mask="url(#path-19-inside-5_1616_203)"/>
<g id="ai-edge-application">
<path id="Vector_5" d="M388.52 140.637C388.985 140.637 389.363 141.015 389.363 141.481C389.363 141.947 388.985 142.324 388.52 142.325H376.578C376.445 142.325 376.336 142.433 376.336 142.567V155.284C376.336 155.417 376.445 155.525 376.578 155.525H394.258C394.391 155.525 394.499 155.417 394.499 155.284V152.957C394.499 152.492 394.877 152.114 395.343 152.114C395.809 152.114 396.186 152.492 396.187 152.957V155.284C396.186 156.349 395.323 157.212 394.258 157.212H386.262V158.937H389.76C390.226 158.937 390.603 159.315 390.604 159.781C390.604 160.247 390.226 160.624 389.76 160.624H381.075C380.609 160.624 380.231 160.247 380.231 159.781C380.232 159.315 380.609 158.937 381.075 158.937H384.574V157.212H376.578C375.513 157.212 374.649 156.349 374.648 155.284V142.567C374.649 141.501 375.513 140.637 376.578 140.637H388.52ZM392.396 139.086C392.862 139.087 393.24 139.464 393.24 139.93V148.451L395.535 146.157C395.865 145.827 396.399 145.827 396.729 146.157C397.058 146.486 397.058 147.021 396.729 147.35L392.993 151.084C392.664 151.414 392.129 151.414 391.8 151.084L388.065 147.35C387.736 147.021 387.736 146.486 388.065 146.157C388.395 145.827 388.929 145.827 389.259 146.157L391.553 148.451V139.93C391.553 139.464 391.931 139.087 392.396 139.086Z" fill="#FAFAFA"/>
</g>
</g>
</g>
<g id="Icon box_6" filter="url(#filter5_dd_1616_203)">
<mask id="path-22-inside-6_1616_203" fill="white">
<path d="M446.125 136.25C446.125 130.037 451.162 125 457.375 125H485.5C491.713 125 496.75 130.037 496.75 136.25V164.25C496.75 170.463 491.713 175.5 485.5 175.5H457.375C451.162 175.5 446.125 170.463 446.125 164.25V136.25Z"/>
</mask>
<path d="M446.125 136.25C446.125 130.037 451.162 125 457.375 125H485.5C491.713 125 496.75 130.037 496.75 136.25V164.25C496.75 170.463 491.713 175.5 485.5 175.5H457.375C451.162 175.5 446.125 170.463 446.125 164.25V136.25Z" fill="#0A0A0A"/>
<path d="M457.375 125V126.125H485.5V125V123.875H457.375V125ZM496.75 136.25H495.625V164.25H496.75H497.875V136.25H496.75ZM485.5 175.5V174.375H457.375V175.5V176.625H485.5V175.5ZM446.125 164.25H447.25V136.25H446.125H445V164.25H446.125ZM457.375 175.5V174.375C451.783 174.375 447.25 169.842 447.25 164.25H446.125H445C445 171.085 450.54 176.625 457.375 176.625V175.5ZM496.75 164.25H495.625C495.625 169.842 491.092 174.375 485.5 174.375V175.5V176.625C492.335 176.625 497.875 171.085 497.875 164.25H496.75ZM485.5 125V126.125C491.092 126.125 495.625 130.658 495.625 136.25H496.75H497.875C497.875 129.415 492.335 123.875 485.5 123.875V125ZM457.375 125V123.875C450.54 123.875 445 129.415 445 136.25H446.125H447.25C447.25 130.658 451.783 126.125 457.375 126.125V125Z" fill="url(#paint5_linear_1616_203)" fill-opacity="0.1" mask="url(#path-22-inside-6_1616_203)"/>
<g id="pi-server">
<path id="Vector_6" d="M479.959 141.729C480.26 141.729 480.55 141.848 480.763 142.061C480.976 142.274 481.096 142.563 481.096 142.865V146.274C481.096 146.575 480.976 146.864 480.763 147.077C480.55 147.29 480.26 147.41 479.959 147.41C480.26 147.41 480.55 147.53 480.763 147.743C480.976 147.956 481.096 148.245 481.096 148.546V151.955C481.096 152.256 480.976 152.545 480.763 152.758C480.55 152.971 480.26 153.091 479.959 153.091C480.26 153.091 480.55 153.211 480.763 153.424C480.976 153.637 481.096 153.926 481.096 154.227V157.636C481.096 157.938 480.976 158.227 480.763 158.44C480.55 158.653 480.26 158.772 479.959 158.772H462.916C462.615 158.772 462.325 158.653 462.112 158.44C461.899 158.227 461.779 157.938 461.779 157.636V154.227C461.779 153.926 461.899 153.637 462.112 153.424C462.325 153.211 462.615 153.091 462.916 153.091C462.615 153.091 462.325 152.971 462.112 152.758C461.899 152.545 461.779 152.256 461.779 151.955V148.546C461.779 148.245 461.899 147.956 462.112 147.743C462.325 147.53 462.615 147.41 462.916 147.41C462.615 147.41 462.325 147.29 462.112 147.077C461.899 146.864 461.779 146.575 461.779 146.274V142.865C461.779 142.563 461.899 142.274 462.112 142.061C462.325 141.848 462.615 141.729 462.916 141.729H479.959ZM462.916 157.636H479.959V154.227H462.916V157.636ZM464.904 155.08C465.375 155.08 465.757 155.461 465.757 155.931C465.757 156.402 465.375 156.784 464.904 156.784C464.434 156.784 464.052 156.402 464.052 155.931C464.052 155.461 464.434 155.08 464.904 155.08ZM467.744 155.08C468.215 155.08 468.597 155.461 468.597 155.931C468.597 156.402 468.215 156.784 467.744 156.784C467.274 156.783 466.893 156.402 466.893 155.931C466.893 155.461 467.274 155.08 467.744 155.08ZM462.916 151.955H479.959V148.546H462.916V151.955ZM464.904 149.398C465.375 149.398 465.757 149.78 465.757 150.25C465.757 150.721 465.375 151.102 464.904 151.102C464.434 151.102 464.052 150.721 464.052 150.25C464.052 149.78 464.434 149.398 464.904 149.398ZM467.744 149.398C468.215 149.398 468.597 149.78 468.597 150.25C468.597 150.721 468.215 151.102 467.744 151.102C467.274 151.102 466.893 150.721 466.893 150.25C466.893 149.78 467.274 149.398 467.744 149.398ZM462.916 146.274H479.959V142.865H462.916V146.274ZM464.904 143.716C465.375 143.716 465.757 144.098 465.757 144.569C465.757 145.039 465.375 145.421 464.904 145.421C464.434 145.421 464.052 145.039 464.052 144.569C464.052 144.098 464.434 143.716 464.904 143.716ZM467.744 143.716C468.215 143.716 468.597 144.098 468.597 144.569C468.597 145.039 468.215 145.421 467.744 145.421C467.274 145.421 466.893 145.039 466.893 144.569C466.893 144.098 467.274 143.716 467.744 143.716Z" fill="#FAFAFA"/>
</g>
</g>
</g>
<defs>
<filter id="filter0_dd_1616_203" x="90.7812" y="122.188" width="59.0625" height="58.9375" filterUnits="userSpaceOnUse" color-interpolation-filters="sRGB">
<feFlood flood-opacity="0" result="BackgroundImageFix"/>
<feColorMatrix in="SourceAlpha" type="matrix" values="0 0 0 0 0 0 0 0 0 0 0 0 0 0 0 0 0 0 127 0" result="hardAlpha"/>
<feMorphology radius="1.40625" operator="erode" in="SourceAlpha" result="effect1_dropShadow_1616_203"/>
<feOffset dy="1.40625"/>
<feGaussianBlur stdDeviation="1.40625"/>
<feColorMatrix type="matrix" values="0 0 0 0 0 0 0 0 0 0 0 0 0 0 0 0 0 0 0.1 0"/>
<feBlend mode="normal" in2="BackgroundImageFix" result="effect1_dropShadow_1616_203"/>
<feColorMatrix in="SourceAlpha" type="matrix" values="0 0 0 0 0 0 0 0 0 0 0 0 0 0 0 0 0 0 127 0" result="hardAlpha"/>
<feOffset dy="1.40625"/>
<feGaussianBlur stdDeviation="2.10938"/>
<feColorMatrix type="matrix" values="0 0 0 0 0 0 0 0 0 0 0 0 0 0 0 0 0 0 0.1 0"/>
<feBlend mode="normal" in2="effect1_dropShadow_1616_203" result="effect2_dropShadow_1616_203"/>
<feBlend mode="normal" in="SourceGraphic" in2="effect2_dropShadow_1616_203" result="shape"/>
</filter>
<filter id="filter1_dd_1616_203" x="153.406" y="122.188" width="59.0625" height="58.9375" filterUnits="userSpaceOnUse" color-interpolation-filters="sRGB">
<feFlood flood-opacity="0" result="BackgroundImageFix"/>
<feColorMatrix in="SourceAlpha" type="matrix" values="0 0 0 0 0 0 0 0 0 0 0 0 0 0 0 0 0 0 127 0" result="hardAlpha"/>
<feMorphology radius="1.40625" operator="erode" in="SourceAlpha" result="effect1_dropShadow_1616_203"/>
<feOffset dy="1.40625"/>
<feGaussianBlur stdDeviation="1.40625"/>
<feColorMatrix type="matrix" values="0 0 0 0 0 0 0 0 0 0 0 0 0 0 0 0 0 0 0.1 0"/>
<feBlend mode="normal" in2="BackgroundImageFix" result="effect1_dropShadow_1616_203"/>
<feColorMatrix in="SourceAlpha" type="matrix" values="0 0 0 0 0 0 0 0 0 0 0 0 0 0 0 0 0 0 127 0" result="hardAlpha"/>
<feOffset dy="1.40625"/>
<feGaussianBlur stdDeviation="2.10938"/>
<feColorMatrix type="matrix" values="0 0 0 0 0 0 0 0 0 0 0 0 0 0 0 0 0 0 0.1 0"/>
<feBlend mode="normal" in2="effect1_dropShadow_1616_203" result="effect2_dropShadow_1616_203"/>
<feBlend mode="normal" in="SourceGraphic" in2="effect2_dropShadow_1616_203" result="shape"/>
</filter>
<filter id="filter2_dd_1616_203" x="239.031" y="122.188" width="59.0625" height="58.9375" filterUnits="userSpaceOnUse" color-interpolation-filters="sRGB">
<feFlood flood-opacity="0" result="BackgroundImageFix"/>
<feColorMatrix in="SourceAlpha" type="matrix" values="0 0 0 0 0 0 0 0 0 0 0 0 0 0 0 0 0 0 127 0" result="hardAlpha"/>
<feMorphology radius="1.40625" operator="erode" in="SourceAlpha" result="effect1_dropShadow_1616_203"/>
<feOffset dy="1.40625"/>
<feGaussianBlur stdDeviation="1.40625"/>
<feColorMatrix type="matrix" values="0 0 0 0 0 0 0 0 0 0 0 0 0 0 0 0 0 0 0.1 0"/>
<feBlend mode="normal" in2="BackgroundImageFix" result="effect1_dropShadow_1616_203"/>
<feColorMatrix in="SourceAlpha" type="matrix" values="0 0 0 0 0 0 0 0 0 0 0 0 0 0 0 0 0 0 127 0" result="hardAlpha"/>
<feOffset dy="1.40625"/>
<feGaussianBlur stdDeviation="2.10938"/>
<feColorMatrix type="matrix" values="0 0 0 0 0 0 0 0 0 0 0 0 0 0 0 0 0 0 0.1 0"/>
<feBlend mode="normal" in2="effect1_dropShadow_1616_203" result="effect2_dropShadow_1616_203"/>
<feBlend mode="normal" in="SourceGraphic" in2="effect2_dropShadow_1616_203" result="shape"/>
</filter>
<filter id="filter3_dd_1616_203" x="297.656" y="122.188" width="59.0625" height="58.9375" filterUnits="userSpaceOnUse" color-interpolation-filters="sRGB">
<feFlood flood-opacity="0" result="BackgroundImageFix"/>
<feColorMatrix in="SourceAlpha" type="matrix" values="0 0 0 0 0 0 0 0 0 0 0 0 0 0 0 0 0 0 127 0" result="hardAlpha"/>
<feMorphology radius="1.40625" operator="erode" in="SourceAlpha" result="effect1_dropShadow_1616_203"/>
<feOffset dy="1.40625"/>
<feGaussianBlur stdDeviation="1.40625"/>
<feColorMatrix type="matrix" values="0 0 0 0 0 0 0 0 0 0 0 0 0 0 0 0 0 0 0.1 0"/>
<feBlend mode="normal" in2="BackgroundImageFix" result="effect1_dropShadow_1616_203"/>
<feColorMatrix in="SourceAlpha" type="matrix" values="0 0 0 0 0 0 0 0 0 0 0 0 0 0 0 0 0 0 127 0" result="hardAlpha"/>
<feOffset dy="1.40625"/>
<feGaussianBlur stdDeviation="2.10938"/>
<feColorMatrix type="matrix" values="0 0 0 0 0 0 0 0 0 0 0 0 0 0 0 0 0 0 0.1 0"/>
<feBlend mode="normal" in2="effect1_dropShadow_1616_203" result="effect2_dropShadow_1616_203"/>
<feBlend mode="normal" in="SourceGraphic" in2="effect2_dropShadow_1616_203" result="shape"/>
</filter>
<filter id="filter4_dd_1616_203" x="356.281" y="122.188" width="59.0625" height="58.9375" filterUnits="userSpaceOnUse" color-interpolation-filters="sRGB">
<feFlood flood-opacity="0" result="BackgroundImageFix"/>
<feColorMatrix in="SourceAlpha" type="matrix" values="0 0 0 0 0 0 0 0 0 0 0 0 0 0 0 0 0 0 127 0" result="hardAlpha"/>
<feMorphology radius="1.40625" operator="erode" in="SourceAlpha" result="effect1_dropShadow_1616_203"/>
<feOffset dy="1.40625"/>
<feGaussianBlur stdDeviation="1.40625"/>
<feColorMatrix type="matrix" values="0 0 0 0 0 0 0 0 0 0 0 0 0 0 0 0 0 0 0.1 0"/>
<feBlend mode="normal" in2="BackgroundImageFix" result="effect1_dropShadow_1616_203"/>
<feColorMatrix in="SourceAlpha" type="matrix" values="0 0 0 0 0 0 0 0 0 0 0 0 0 0 0 0 0 0 127 0" result="hardAlpha"/>
<feOffset dy="1.40625"/>
<feGaussianBlur stdDeviation="2.10938"/>
<feColorMatrix type="matrix" values="0 0 0 0 0 0 0 0 0 0 0 0 0 0 0 0 0 0 0.1 0"/>
<feBlend mode="normal" in2="effect1_dropShadow_1616_203" result="effect2_dropShadow_1616_203"/>
<feBlend mode="normal" in="SourceGraphic" in2="effect2_dropShadow_1616_203" result="shape"/>
</filter>
<filter id="filter5_dd_1616_203" x="441.906" y="122.188" width="59.0625" height="58.9375" filterUnits="userSpaceOnUse" color-interpolation-filters="sRGB">
<feFlood flood-opacity="0" result="BackgroundImageFix"/>
<feColorMatrix in="SourceAlpha" type="matrix" values="0 0 0 0 0 0 0 0 0 0 0 0 0 0 0 0 0 0 127 0" result="hardAlpha"/>
<feMorphology radius="1.40625" operator="erode" in="SourceAlpha" result="effect1_dropShadow_1616_203"/>
<feOffset dy="1.40625"/>
<feGaussianBlur stdDeviation="1.40625"/>
<feColorMatrix type="matrix" values="0 0 0 0 0 0 0 0 0 0 0 0 0 0 0 0 0 0 0.1 0"/>
<feBlend mode="normal" in2="BackgroundImageFix" result="effect1_dropShadow_1616_203"/>
<feColorMatrix in="SourceAlpha" type="matrix" values="0 0 0 0 0 0 0 0 0 0 0 0 0 0 0 0 0 0 127 0" result="hardAlpha"/>
<feOffset dy="1.40625"/>
<feGaussianBlur stdDeviation="2.10938"/>
<feColorMatrix type="matrix" values="0 0 0 0 0 0 0 0 0 0 0 0 0 0 0 0 0 0 0.1 0"/>
<feBlend mode="normal" in2="effect1_dropShadow_1616_203" result="effect2_dropShadow_1616_203"/>
<feBlend mode="normal" in="SourceGraphic" in2="effect2_dropShadow_1616_203" result="shape"/>
</filter>
<linearGradient id="paint0_linear_1616_203" x1="95" y1="125" x2="120.213" y2="175.55" gradientUnits="userSpaceOnUse">
<stop stop-color="white"/>
<stop offset="0.548077" stop-color="white" stop-opacity="0.1"/>
<stop offset="0.817308" stop-color="white" stop-opacity="0.1"/>
<stop offset="1" stop-color="white"/>
</linearGradient>
<linearGradient id="paint1_linear_1616_203" x1="157.625" y1="125" x2="182.838" y2="175.55" gradientUnits="userSpaceOnUse">
<stop stop-color="white"/>
<stop offset="0.548077" stop-color="white" stop-opacity="0.1"/>
<stop offset="0.817308" stop-color="white" stop-opacity="0.1"/>
<stop offset="1" stop-color="white"/>
</linearGradient>
<linearGradient id="paint2_linear_1616_203" x1="253.731" y1="134.469" x2="288.642" y2="171.641" gradientUnits="userSpaceOnUse">
<stop stop-color="#F3652B"/>
<stop offset="0.284697" stop-color="#F3652B" stop-opacity="0.1"/>
<stop offset="0.600155" stop-color="#F3652B" stop-opacity="0.1"/>
<stop offset="1" stop-color="#F3652B"/>
</linearGradient>
<linearGradient id="paint3_linear_1616_203" x1="312.356" y1="134.469" x2="347.267" y2="171.641" gradientUnits="userSpaceOnUse">
<stop stop-color="#F3652B"/>
<stop offset="0.284697" stop-color="#F3652B" stop-opacity="0.1"/>
<stop offset="0.600155" stop-color="#F3652B" stop-opacity="0.1"/>
<stop offset="1" stop-color="#F3652B"/>
</linearGradient>
<linearGradient id="paint4_linear_1616_203" x1="370.981" y1="134.469" x2="405.892" y2="171.641" gradientUnits="userSpaceOnUse">
<stop stop-color="#F3652B"/>
<stop offset="0.284697" stop-color="#F3652B" stop-opacity="0.1"/>
<stop offset="0.600155" stop-color="#F3652B" stop-opacity="0.1"/>
<stop offset="1" stop-color="#F3652B"/>
</linearGradient>
<linearGradient id="paint5_linear_1616_203" x1="446.125" y1="125" x2="471.338" y2="175.55" gradientUnits="userSpaceOnUse">
<stop stop-color="white"/>
<stop offset="0.548077" stop-color="white" stop-opacity="0.1"/>
<stop offset="0.817308" stop-color="white" stop-opacity="0.1"/>
<stop offset="1" stop-color="white"/>
</linearGradient>
<clipPath id="clip0_1616_203">
<rect width="592" height="300" fill="white"/>
</clipPath>
</defs>
</svg>
