<svg xmlns="http://www.w3.org/2000/svg" width="592" height="300" viewBox="0 0 592 300" fill="none">
<g id="Quick start with templates">
<g id="UI Element">
<mask id="path-5-inside-1_1616_203" fill="white">
<path d="M197 84C197 75.1634 204.163 68 213 68H379C387.837 68 395 75.1634 395 84V217C395 225.837 387.837 233 379 233H213C204.163 233 197 225.837 197 217V84Z" />
</mask>
<path d="M197 84C197 75.1634 204.163 68 213 68H379C387.837 68 395 75.1634 395 84V217C395 225.837 387.837 233 379 233H213C204.163 233 197 225.837 197 217V84Z" fill="black" />
<path d="M213 68V70H379V68V66H213V68ZM395 84H393V217H395H397V84H395ZM379 233V231H213V233V235H379V233ZM197 217H199V84H197H195V217H197ZM213 233V231C205.268 231 199 224.732 199 217H197H195C195 226.941 203.059 235 213 235V233ZM395 217H393C393 224.732 386.732 231 379 231V233V235C388.941 235 397 226.941 397 217H395ZM379 68V70C386.732 70 393 76.268 393 84H395H397C397 74.0589 388.941 66 379 66V68ZM213 68V66C203.059 66 195 74.0589 195 84H197H199C199 76.268 205.268 70 213 70V68Z" fill="url(#paint0_linear_1616_203)" mask="url(#path-5-inside-1_1616_203)" />
<g id="Frame 636040">
<circle id="Ellipse 4" cx="210.905" cy="81.905" r="1.90497" fill="#E51A1A" />
<circle id="Ellipse 5" cx="216.716" cy="81.905" r="1.90497" fill="#F8CA3A" />
<circle id="Ellipse 6" cx="222.524" cy="81.905" r="1.90497" fill="#18B452" />
</g>
<g id="Frame 636041">
<path id="Rectangle 1151" d="M209 101.81C209 98.4962 211.686 95.81 215 95.81H377C380.314 95.81 383 98.4962 383 101.81V109.81C383 113.124 380.314 115.81 377 115.81H215C211.686 115.81 209 113.124 209 109.81V101.81Z" fill="white" fill-opacity="0.1" />
<path id="Rectangle 1152" d="M209 125.81C209 122.496 211.686 119.81 215 119.81H377C380.314 119.81 383 122.496 383 125.81V136.81C383 140.124 380.314 142.81 377 142.81H215C211.686 142.81 209 140.124 209 136.81V125.81Z" fill="white" fill-opacity="0.1" />
<path id="Rectangle 1153" d="M209 152.81C209 149.496 211.686 146.81 215 146.81H377C380.314 146.81 383 149.496 383 152.81V215C383 218.314 380.314 221 377 221H215C211.686 221 209 218.314 209 215V152.81Z" fill="white" fill-opacity="0.1" />
</g>
</g>
<g id="Frame 636097">
<g id="Icon box" filter="url(#filter0_dd_1616_203)">
<mask id="path-13-inside-2_1616_203" fill="white">
<path d="M142 90.25C142 84.0368 147.037 79 153.25 79H176.75C182.963 79 188 84.0368 188 90.25V112.75C188 118.963 182.963 124 176.75 124H153.25C147.037 124 142 118.963 142 112.75V90.25Z" />
</mask>
<path d="M142 90.25C142 84.0368 147.037 79 153.25 79H176.75C182.963 79 188 84.0368 188 90.25V112.75C188 118.963 182.963 124 176.75 124H153.25C147.037 124 142 118.963 142 112.75V90.25Z" fill="#0A0A0A" />
<path d="M153.25 79V80.125H176.75V79V77.875H153.25V79ZM188 90.25H186.875V112.75H188H189.125V90.25H188ZM176.75 124V122.875H153.25V124V125.125H176.75V124ZM142 112.75H143.125V90.25H142H140.875V112.75H142ZM153.25 124V122.875C147.658 122.875 143.125 118.342 143.125 112.75H142H140.875C140.875 119.585 146.415 125.125 153.25 125.125V124ZM188 112.75H186.875C186.875 118.342 182.342 122.875 176.75 122.875V124V125.125C183.585 125.125 189.125 119.585 189.125 112.75H188ZM176.75 79V80.125C182.342 80.125 186.875 84.6581 186.875 90.25H188H189.125C189.125 83.4155 183.585 77.875 176.75 77.875V79ZM153.25 79V77.875C146.415 77.875 140.875 83.4155 140.875 90.25H142H143.125C143.125 84.6581 147.658 80.125 153.25 80.125V79Z" fill="url(#paint1_linear_1616_203)" fill-opacity="0.1" mask="url(#path-13-inside-2_1616_203)" />
<g id="ai-astro-cor">
<g id="Vector_alt" clip-path="url(#clip0_1616_203)">
<g id="Vector">
<path d="M162.337 109.409C161.321 108.48 161.024 106.528 161.448 105.114C162.182 106.006 163.199 106.288 164.252 106.447C165.879 106.694 167.476 106.602 168.987 105.858C169.16 105.773 169.32 105.66 169.509 105.545C169.65 105.956 169.687 106.372 169.638 106.794C169.517 107.824 169.005 108.619 168.19 109.221C167.865 109.463 167.52 109.678 167.183 109.906C166.15 110.604 165.87 111.423 166.259 112.615C166.268 112.644 166.276 112.673 166.297 112.744C165.769 112.508 165.384 112.164 165.09 111.712C164.78 111.234 164.632 110.706 164.624 110.135C164.62 109.857 164.62 109.577 164.583 109.303C164.492 108.635 164.178 108.335 163.587 108.318C162.981 108.301 162.501 108.675 162.374 109.266C162.364 109.311 162.351 109.356 162.337 109.409Z" fill="url(#paint2_linear_1616_203)" />
<path d="M156.537 104.879C156.537 104.879 159.546 103.413 162.564 103.413L164.839 96.3718C164.924 96.0312 165.173 95.7999 165.453 95.7999C165.734 95.7999 165.983 96.0312 166.068 96.3718L168.343 103.413C171.917 103.413 174.37 104.878 174.37 104.878C174.37 104.878 169.259 90.9547 169.249 90.9268C169.102 90.5151 168.854 90.25 168.52 90.25H162.387C162.053 90.25 161.816 90.5151 161.659 90.9268C161.648 90.9542 156.537 104.879 156.537 104.879Z" fill="#FAFAFA" />
</g>
</g>
</g>
</g>
<g id="Icon box_2" filter="url(#filter1_dd_1616_203)">
<mask id="path-16-inside-3_1616_203" fill="white">
<path d="M142 139.25C142 133.037 147.037 128 153.25 128H176.75C182.963 128 188 133.037 188 139.25V161.75C188 167.963 182.963 173 176.75 173H153.25C147.037 173 142 167.963 142 161.75V139.25Z" />
</mask>
<path d="M142 139.25C142 133.037 147.037 128 153.25 128H176.75C182.963 128 188 133.037 188 139.25V161.75C188 167.963 182.963 173 176.75 173H153.25C147.037 173 142 167.963 142 161.75V139.25Z" fill="#0A0A0A" />
<path d="M153.25 128V129.125H176.75V128V126.875H153.25V128ZM188 139.25H186.875V161.75H188H189.125V139.25H188ZM176.75 173V171.875H153.25V173V174.125H176.75V173ZM142 161.75H143.125V139.25H142H140.875V161.75H142ZM153.25 173V171.875C147.658 171.875 143.125 167.342 143.125 161.75H142H140.875C140.875 168.585 146.415 174.125 153.25 174.125V173ZM188 161.75H186.875C186.875 167.342 182.342 171.875 176.75 171.875V173V174.125C183.585 174.125 189.125 168.585 189.125 161.75H188ZM176.75 128V129.125C182.342 129.125 186.875 133.658 186.875 139.25H188H189.125C189.125 132.415 183.585 126.875 176.75 126.875V128ZM153.25 128V126.875C146.415 126.875 140.875 132.415 140.875 139.25H142H143.125C143.125 133.658 147.658 129.125 153.25 129.125V128Z" fill="url(#paint3_linear_1616_203)" fill-opacity="0.1" mask="url(#path-16-inside-3_1616_203)" />
<g id="ai-vue-cor">
<g id="Vector_alt_2">
<path d="M153.75 140.857L165 160.263L176.25 140.857H171.75L165 152.501L158.194 140.857H153.75Z" fill="#41B883" />
<path d="M158.194 140.857L165 152.557L171.75 140.857H167.588L165 145.357L162.356 140.857H158.194Z" fill="#35495E" />
</g>
</g>
</g>
<g id="Icon box_3" filter="url(#filter2_dd_1616_203)">
<mask id="path-19-inside-4_1616_203" fill="white">
<path d="M142 188.25C142 182.037 147.037 177 153.25 177H176.75C182.963 177 188 182.037 188 188.25V210.75C188 216.963 182.963 222 176.75 222H153.25C147.037 222 142 216.963 142 210.75V188.25Z" />
</mask>
<path d="M142 188.25C142 182.037 147.037 177 153.25 177H176.75C182.963 177 188 182.037 188 188.25V210.75C188 216.963 182.963 222 176.75 222H153.25C147.037 222 142 216.963 142 210.75V188.25Z" fill="#0A0A0A" />
<path d="M153.25 177V178.125H176.75V177V175.875H153.25V177ZM188 188.25H186.875V210.75H188H189.125V188.25H188ZM176.75 222V220.875H153.25V222V223.125H176.75V222ZM142 210.75H143.125V188.25H142H140.875V210.75H142ZM153.25 222V220.875C147.658 220.875 143.125 216.342 143.125 210.75H142H140.875C140.875 217.585 146.415 223.125 153.25 223.125V222ZM188 210.75H186.875C186.875 216.342 182.342 220.875 176.75 220.875V222V223.125C183.585 223.125 189.125 217.585 189.125 210.75H188ZM176.75 177V178.125C182.342 178.125 186.875 182.658 186.875 188.25H188H189.125C189.125 181.415 183.585 175.875 176.75 175.875V177ZM153.25 177V175.875C146.415 175.875 140.875 181.415 140.875 188.25H142H143.125C143.125 182.658 147.658 178.125 153.25 178.125V177Z" fill="url(#paint4_linear_1616_203)" fill-opacity="0.1" mask="url(#path-19-inside-4_1616_203)" />
<g id="ai-open">
<path id="Vector_2" d="M162.648 188.373C163.624 188.166 164.637 188.221 165.586 188.53C166.534 188.839 167.385 189.392 168.052 190.134C169.226 189.883 170.45 190.011 171.546 190.5C172.643 190.988 173.557 191.812 174.155 192.853C174.558 193.542 174.81 194.309 174.893 195.103C174.977 195.897 174.89 196.7 174.638 197.458C175.439 198.348 175.939 199.468 176.065 200.659C176.191 201.85 175.937 203.051 175.339 204.088C174.944 204.782 174.405 205.383 173.758 205.852C173.112 206.321 172.373 206.647 171.591 206.807C171.224 207.953 170.501 208.952 169.529 209.661C168.556 210.369 167.384 210.751 166.18 210.75C165.382 210.754 164.593 210.588 163.864 210.263C163.135 209.938 162.484 209.462 161.954 208.865C160.779 209.117 159.554 208.989 158.457 208.501C157.359 208.012 156.445 207.188 155.846 206.146C155.443 205.457 155.192 204.69 155.109 203.896C155.026 203.102 155.114 202.3 155.367 201.543C154.56 200.651 154.058 199.526 153.933 198.33C153.808 197.134 154.066 195.929 154.67 194.889C155.066 194.195 155.605 193.594 156.252 193.126C156.898 192.657 157.636 192.331 158.419 192.17C158.728 191.222 159.283 190.372 160.025 189.706C160.767 189.039 161.672 188.579 162.648 188.373ZM168.464 205.002C168.464 205.131 168.429 205.258 168.365 205.37C168.3 205.482 168.208 205.575 168.096 205.64L163.617 208.226L163.484 208.301C164.24 208.933 165.195 209.278 166.18 209.277C167.297 209.275 168.367 208.83 169.157 208.041C169.946 207.251 170.392 206.181 170.394 205.064V199.831C170.392 199.82 170.388 199.81 170.381 199.801C170.375 199.793 170.367 199.786 170.358 199.782L168.464 198.686V205.002ZM161.971 205.251C161.86 205.316 161.734 205.349 161.605 205.349C161.477 205.349 161.351 205.315 161.24 205.251L156.755 202.665L156.623 202.585C156.452 203.556 156.629 204.556 157.124 205.41C157.683 206.377 158.603 207.083 159.682 207.373C160.762 207.662 161.912 207.511 162.88 206.954L167.418 204.336C167.427 204.33 167.435 204.321 167.44 204.311C167.445 204.301 167.448 204.29 167.449 204.279V202.092L161.971 205.251ZM167.923 195L166.034 196.091L171.503 199.267C171.615 199.329 171.709 199.419 171.776 199.529C171.843 199.639 171.88 199.764 171.884 199.892V205.214C172.633 204.935 173.287 204.449 173.77 203.812C174.253 203.175 174.544 202.413 174.611 201.617C174.677 200.82 174.517 200.021 174.146 199.313C173.775 198.605 173.211 198.016 172.518 197.617L167.99 195C167.98 194.994 167.968 194.992 167.957 194.992C167.945 194.992 167.934 194.994 167.923 195ZM158.162 193.802C157.227 194.138 156.442 194.793 155.944 195.652V195.63C155.387 196.599 155.237 197.749 155.526 198.828C155.815 199.907 156.52 200.827 157.487 201.387L162.015 204C162.025 204.005 162.037 204.007 162.048 204.007C162.06 204.007 162.071 204.005 162.082 204L163.976 202.904L158.525 199.759C158.413 199.696 158.32 199.603 158.256 199.492C158.192 199.38 158.16 199.253 158.162 199.125V193.802ZM162.565 198.091L162.57 200.904L165.013 202.309L167.449 200.904V198.091L165.004 196.685L162.565 198.091ZM164.363 189.766C163.569 189.664 162.762 189.791 162.037 190.13C161.311 190.47 160.697 191.009 160.267 191.684C159.837 192.36 159.608 193.144 159.607 193.945V199.165C159.609 199.176 159.613 199.187 159.619 199.196C159.625 199.205 159.634 199.213 159.643 199.218L161.537 200.309L161.541 194.006C161.541 193.877 161.576 193.75 161.64 193.638C161.705 193.526 161.797 193.433 161.909 193.368L166.388 190.782L166.522 190.707C165.906 190.195 165.157 189.868 164.363 189.766ZM169.413 191.487C168.613 191.452 167.819 191.647 167.126 192.046L162.596 194.659C162.587 194.665 162.58 194.674 162.576 194.684C162.571 194.694 162.569 194.705 162.57 194.716V196.903L168.044 193.745C168.155 193.679 168.282 193.645 168.412 193.645C168.541 193.645 168.668 193.679 168.78 193.745L173.254 196.353L173.387 196.433V196.415C173.523 195.625 173.431 194.814 173.123 194.075C172.814 193.336 172.301 192.7 171.644 192.242C170.987 191.784 170.213 191.521 169.413 191.487Z" fill="#FAFAFA" />
</g>
</g>
</g>
<g id="Frame 636096">
<g id="Content Pill" filter="url(#filter3_dd_1616_203)">
<mask id="path-22-inside-5_1616_203" fill="white">
<path d="M366 103C366 98.5817 369.582 95 374 95H455C459.418 95 463 98.5817 463 103V119C463 123.418 459.418 127 455 127H374C369.582 127 366 123.418 366 119V103Z" />
</mask>
<path d="M366 103C366 98.5817 369.582 95 374 95H455C459.418 95 463 98.5817 463 103V119C463 123.418 459.418 127 455 127H374C369.582 127 366 123.418 366 119V103Z" fill="#0A0A0A" />
<path d="M374 95V97H455V95V93H374V95ZM463 103H461V119H463H465V103H463ZM455 127V125H374V127V129H455V127ZM366 119H368V103H366H364V119H366ZM374 127V125C370.686 125 368 122.314 368 119H366H364C364 124.523 368.477 129 374 129V127ZM463 119H461C461 122.314 458.314 125 455 125V127V129C460.523 129 465 124.523 465 119H463ZM455 95V97C458.314 97 461 99.6863 461 103H463H465C465 97.4772 460.523 93 455 93V95ZM374 95V93C368.477 93 364 97.4772 364 103H366H368C368 99.6863 370.686 97 374 97V95Z" fill="url(#paint5_linear_1616_203)" fill-opacity="0.1" mask="url(#path-22-inside-5_1616_203)" />
<path id="Label" d="M382.516 108.402V114.461C382.516 114.609 382.463 114.736 382.357 114.842C382.252 114.947 382.125 115 381.977 115C381.828 115 381.699 114.947 381.59 114.842C381.48 114.736 381.426 114.609 381.426 114.461V112.158C381.426 112.01 381.373 111.883 381.268 111.777C381.162 111.668 381.035 111.613 380.887 111.613H378.807C378.658 111.613 378.531 111.668 378.426 111.777C378.32 111.883 378.268 112.01 378.268 112.158V114.461C378.268 114.609 378.213 114.736 378.104 114.842C377.994 114.947 377.865 115 377.717 115C377.568 115 377.441 114.947 377.336 114.842C377.23 114.736 377.178 114.609 377.178 114.461V108.402C377.178 108.246 377.229 108.117 377.33 108.016L378.59 106.768C378.691 106.654 378.82 106.598 378.977 106.598H380.717C380.865 106.598 380.992 106.65 381.098 106.756L382.346 108.016C382.459 108.117 382.516 108.246 382.516 108.402ZM381.426 109.984V108.807C381.426 108.689 381.385 108.59 381.303 108.508L380.605 107.811C380.527 107.732 380.428 107.693 380.307 107.693H379.387C379.262 107.693 379.16 107.732 379.082 107.811L378.391 108.508C378.309 108.59 378.268 108.689 378.268 108.807V109.984C378.268 110.133 378.32 110.26 378.426 110.365C378.531 110.471 378.658 110.523 378.807 110.523H380.887C381.035 110.523 381.162 110.471 381.268 110.365C381.373 110.26 381.426 110.133 381.426 109.984ZM385.006 112.539L388.979 108.566C389.061 108.484 389.102 108.385 389.102 108.268V108.232C389.102 108.084 389.049 107.957 388.943 107.852C388.838 107.746 388.711 107.693 388.562 107.693H385.393C385.244 107.693 385.117 107.639 385.012 107.529C384.906 107.42 384.854 107.291 384.854 107.143C384.854 106.994 384.906 106.867 385.012 106.762C385.117 106.652 385.244 106.598 385.393 106.598H389.652C389.801 106.598 389.928 106.652 390.033 106.762C390.139 106.867 390.191 106.994 390.191 107.143V108.678C390.191 108.826 390.139 108.953 390.033 109.059L386.066 113.031C385.984 113.113 385.943 113.213 385.943 113.33V113.365C385.943 113.514 385.996 113.643 386.102 113.752C386.207 113.857 386.334 113.91 386.482 113.91H389.652C389.801 113.91 389.928 113.965 390.033 114.074C390.139 114.184 390.191 114.312 390.191 114.461C390.191 114.609 390.139 114.736 390.033 114.842C389.928 114.947 389.801 115 389.652 115H385.393C385.244 115 385.117 114.947 385.012 114.842C384.906 114.736 384.854 114.609 384.854 114.461V112.926C384.854 112.77 384.904 112.641 385.006 112.539ZM396.789 115H393.607C393.459 115 393.332 114.947 393.227 114.842C393.121 114.736 393.068 114.609 393.068 114.461C393.068 114.312 393.121 114.184 393.227 114.074C393.332 113.965 393.459 113.91 393.607 113.91H394.111C394.26 113.91 394.387 113.857 394.492 113.752C394.598 113.643 394.65 113.514 394.65 113.365V108.232C394.65 108.084 394.598 107.957 394.492 107.852C394.387 107.746 394.26 107.693 394.111 107.693H393.607C393.459 107.693 393.332 107.639 393.227 107.529C393.121 107.42 393.068 107.291 393.068 107.143C393.068 106.994 393.121 106.867 393.227 106.762C393.332 106.652 393.459 106.598 393.607 106.598H396.789C396.938 106.598 397.064 106.652 397.17 106.762C397.275 106.867 397.328 106.994 397.328 107.143C397.328 107.291 397.275 107.42 397.17 107.529C397.064 107.639 396.938 107.693 396.789 107.693H396.285C396.137 107.693 396.01 107.746 395.904 107.852C395.799 107.957 395.746 108.084 395.746 108.232V113.365C395.746 113.514 395.799 113.643 395.904 113.752C396.01 113.857 396.137 113.91 396.285 113.91H396.789C396.938 113.91 397.064 113.965 397.17 114.074C397.275 114.184 397.328 114.312 397.328 114.461C397.328 114.609 397.275 114.736 397.17 114.842C397.064 114.947 396.938 115 396.789 115ZM404.377 106.768L405.385 107.764C405.49 107.869 405.543 107.998 405.543 108.15V113.453C405.543 113.602 405.49 113.729 405.385 113.834L404.377 114.83C404.275 114.943 404.145 115 403.984 115H401.752C401.596 115 401.467 114.943 401.365 114.83L400.357 113.834C400.256 113.732 400.205 113.605 400.205 113.453V108.15C400.205 107.994 400.256 107.865 400.357 107.764L401.365 106.768C401.467 106.654 401.596 106.598 401.752 106.598H403.984C404.145 106.598 404.275 106.654 404.377 106.768ZM403.885 113.787L404.33 113.342C404.412 113.26 404.453 113.16 404.453 113.043V108.555C404.453 108.438 404.412 108.338 404.33 108.256L403.885 107.811C403.807 107.732 403.707 107.693 403.586 107.693H402.162C402.037 107.693 401.936 107.732 401.857 107.811L401.418 108.256C401.336 108.338 401.295 108.438 401.295 108.555V113.043C401.295 113.16 401.336 113.26 401.418 113.342L401.857 113.787C401.939 113.869 402.041 113.91 402.162 113.91H403.586C403.703 113.91 403.803 113.869 403.885 113.787ZM408.9 106.879L412.041 112.275C412.068 112.314 412.09 112.334 412.105 112.334C412.121 112.334 412.129 112.307 412.129 112.252V107.143C412.129 106.994 412.184 106.867 412.293 106.762C412.402 106.652 412.531 106.598 412.68 106.598C412.828 106.598 412.955 106.652 413.061 106.762C413.166 106.867 413.219 106.994 413.219 107.143V114.461C413.219 114.609 413.166 114.736 413.061 114.842C412.955 114.947 412.828 115 412.68 115C412.465 115 412.305 114.908 412.199 114.725L409.053 109.311C409.041 109.271 409.021 109.252 408.994 109.252C408.979 109.252 408.971 109.279 408.971 109.334V114.461C408.971 114.609 408.916 114.736 408.807 114.842C408.697 114.947 408.568 115 408.42 115C408.271 115 408.145 114.947 408.039 114.842C407.934 114.736 407.881 114.609 407.881 114.461V107.143C407.881 106.994 407.934 106.867 408.039 106.762C408.145 106.652 408.271 106.598 408.42 106.598C408.631 106.598 408.791 106.691 408.9 106.879ZM427.492 115H424.311C424.162 115 424.035 114.947 423.93 114.842C423.824 114.736 423.771 114.609 423.771 114.461C423.771 114.312 423.824 114.184 423.93 114.074C424.035 113.965 424.162 113.91 424.311 113.91H424.814C424.963 113.91 425.09 113.857 425.195 113.752C425.301 113.643 425.354 113.514 425.354 113.365V108.232C425.354 108.084 425.301 107.957 425.195 107.852C425.09 107.746 424.963 107.693 424.814 107.693H424.311C424.162 107.693 424.035 107.639 423.93 107.529C423.824 107.42 423.771 107.291 423.771 107.143C423.771 106.994 423.824 106.867 423.93 106.762C424.035 106.652 424.162 106.598 424.311 106.598H427.492C427.641 106.598 427.768 106.652 427.873 106.762C427.979 106.867 428.031 106.994 428.031 107.143C428.031 107.291 427.979 107.42 427.873 107.529C427.768 107.639 427.641 107.693 427.492 107.693H426.988C426.84 107.693 426.713 107.746 426.607 107.852C426.502 107.957 426.449 108.084 426.449 108.232V113.365C426.449 113.514 426.502 113.643 426.607 113.752C426.713 113.857 426.84 113.91 426.988 113.91H427.492C427.641 113.91 427.768 113.965 427.873 114.074C427.979 114.184 428.031 114.312 428.031 114.461C428.031 114.609 427.979 114.736 427.873 114.842C427.768 114.947 427.641 115 427.492 115ZM431.928 106.879L435.068 112.275C435.096 112.314 435.117 112.334 435.133 112.334C435.148 112.334 435.156 112.307 435.156 112.252V107.143C435.156 106.994 435.211 106.867 435.32 106.762C435.43 106.652 435.559 106.598 435.707 106.598C435.855 106.598 435.982 106.652 436.088 106.762C436.193 106.867 436.246 106.994 436.246 107.143V114.461C436.246 114.609 436.193 114.736 436.088 114.842C435.982 114.947 435.855 115 435.707 115C435.492 115 435.332 114.908 435.227 114.725L432.08 109.311C432.068 109.271 432.049 109.252 432.021 109.252C432.006 109.252 431.998 109.279 431.998 109.334V114.461C431.998 114.609 431.943 114.736 431.834 114.842C431.725 114.947 431.596 115 431.447 115C431.299 115 431.172 114.947 431.066 114.842C430.961 114.736 430.908 114.609 430.908 114.461V107.143C430.908 106.994 430.961 106.867 431.066 106.762C431.172 106.652 431.299 106.598 431.447 106.598C431.658 106.598 431.818 106.691 431.928 106.879ZM442.844 115H439.662C439.514 115 439.387 114.947 439.281 114.842C439.176 114.736 439.123 114.609 439.123 114.461C439.123 114.312 439.176 114.184 439.281 114.074C439.387 113.965 439.514 113.91 439.662 113.91H440.166C440.314 113.91 440.441 113.857 440.547 113.752C440.652 113.643 440.705 113.514 440.705 113.365V108.232C440.705 108.084 440.652 107.957 440.547 107.852C440.441 107.746 440.314 107.693 440.166 107.693H439.662C439.514 107.693 439.387 107.639 439.281 107.529C439.176 107.42 439.123 107.291 439.123 107.143C439.123 106.994 439.176 106.867 439.281 106.762C439.387 106.652 439.514 106.598 439.662 106.598H442.844C442.992 106.598 443.119 106.652 443.225 106.762C443.33 106.867 443.383 106.994 443.383 107.143C443.383 107.291 443.33 107.42 443.225 107.529C443.119 107.639 442.992 107.693 442.844 107.693H442.34C442.191 107.693 442.064 107.746 441.959 107.852C441.854 107.957 441.801 108.084 441.801 108.232V113.365C441.801 113.514 441.854 113.643 441.959 113.752C442.064 113.857 442.191 113.91 442.34 113.91H442.844C442.992 113.91 443.119 113.965 443.225 114.074C443.33 114.184 443.383 114.312 443.383 114.461C443.383 114.609 443.33 114.736 443.225 114.842C443.119 114.947 442.992 115 442.844 115ZM449.477 108.232V114.461C449.477 114.613 449.424 114.742 449.318 114.848C449.213 114.949 449.08 115 448.92 115C448.771 115 448.645 114.947 448.539 114.842C448.434 114.736 448.381 114.609 448.381 114.461V108.232C448.381 108.084 448.328 107.957 448.223 107.852C448.117 107.746 447.99 107.693 447.842 107.693H446.799C446.65 107.693 446.523 107.639 446.418 107.529C446.312 107.42 446.26 107.291 446.26 107.143C446.26 106.994 446.312 106.867 446.418 106.762C446.523 106.652 446.65 106.598 446.799 106.598H451.059C451.207 106.598 451.334 106.652 451.439 106.762C451.545 106.867 451.598 106.994 451.598 107.143C451.598 107.291 451.545 107.42 451.439 107.529C451.334 107.639 451.207 107.693 451.059 107.693H450.016C449.867 107.693 449.74 107.746 449.635 107.852C449.529 107.957 449.477 108.084 449.477 108.232Z" fill="#FAFAFA" />
</g>
<g id="Content Pill_2" filter="url(#filter4_dd_1616_203)">
<mask id="path-25-inside-6_1616_203" fill="white">
<path d="M366 139C366 134.582 369.582 131 374 131H463C467.418 131 471 134.582 471 139V155C471 159.418 467.418 163 463 163H374C369.582 163 366 159.418 366 155V139Z" />
</mask>
<path d="M366 139C366 134.582 369.582 131 374 131H463C467.418 131 471 134.582 471 139V155C471 159.418 467.418 163 463 163H374C369.582 163 366 159.418 366 155V139Z" fill="#0A0A0A" />
<path d="M374 131V133H463V131V129H374V131ZM471 139H469V155H471H473V139H471ZM463 163V161H374V163V165H463V163ZM366 155H368V139H366H364V155H366ZM374 163V161C370.686 161 368 158.314 368 155H366H364C364 160.523 368.477 165 374 165V163ZM471 155H469C469 158.314 466.314 161 463 161V163V165C468.523 165 473 160.523 473 155H471ZM463 131V133C466.314 133 469 135.686 469 139H471H473C473 133.477 468.523 129 463 129V131ZM374 131V129C368.477 129 364 133.477 364 139H366H368C368 135.686 370.686 133 374 133V131Z" fill="url(#paint6_linear_1616_203)" fill-opacity="0.1" mask="url(#path-25-inside-6_1616_203)" />
<path id="Label_2" d="M382.516 144.402V150.461C382.516 150.609 382.463 150.736 382.357 150.842C382.252 150.947 382.125 151 381.977 151C381.828 151 381.699 150.947 381.59 150.842C381.48 150.736 381.426 150.609 381.426 150.461V148.158C381.426 148.01 381.373 147.883 381.268 147.777C381.162 147.668 381.035 147.613 380.887 147.613H378.807C378.658 147.613 378.531 147.668 378.426 147.777C378.32 147.883 378.268 148.01 378.268 148.158V150.461C378.268 150.609 378.213 150.736 378.104 150.842C377.994 150.947 377.865 151 377.717 151C377.568 151 377.441 150.947 377.336 150.842C377.23 150.736 377.178 150.609 377.178 150.461V144.402C377.178 144.246 377.229 144.117 377.33 144.016L378.59 142.768C378.691 142.654 378.82 142.598 378.977 142.598H380.717C380.865 142.598 380.992 142.65 381.098 142.756L382.346 144.016C382.459 144.117 382.516 144.246 382.516 144.402ZM381.426 145.984V144.807C381.426 144.689 381.385 144.59 381.303 144.508L380.605 143.811C380.527 143.732 380.428 143.693 380.307 143.693H379.387C379.262 143.693 379.16 143.732 379.082 143.811L378.391 144.508C378.309 144.59 378.268 144.689 378.268 144.807V145.984C378.268 146.133 378.32 146.26 378.426 146.365C378.531 146.471 378.658 146.523 378.807 146.523H380.887C381.035 146.523 381.162 146.471 381.268 146.365C381.373 146.26 381.426 146.133 381.426 145.984ZM385.006 148.539L388.979 144.566C389.061 144.484 389.102 144.385 389.102 144.268V144.232C389.102 144.084 389.049 143.957 388.943 143.852C388.838 143.746 388.711 143.693 388.562 143.693H385.393C385.244 143.693 385.117 143.639 385.012 143.529C384.906 143.42 384.854 143.291 384.854 143.143C384.854 142.994 384.906 142.867 385.012 142.762C385.117 142.652 385.244 142.598 385.393 142.598H389.652C389.801 142.598 389.928 142.652 390.033 142.762C390.139 142.867 390.191 142.994 390.191 143.143V144.678C390.191 144.826 390.139 144.953 390.033 145.059L386.066 149.031C385.984 149.113 385.943 149.213 385.943 149.33V149.365C385.943 149.514 385.996 149.643 386.102 149.752C386.207 149.857 386.334 149.91 386.482 149.91H389.652C389.801 149.91 389.928 149.965 390.033 150.074C390.139 150.184 390.191 150.312 390.191 150.461C390.191 150.609 390.139 150.736 390.033 150.842C389.928 150.947 389.801 151 389.652 151H385.393C385.244 151 385.117 150.947 385.012 150.842C384.906 150.736 384.854 150.609 384.854 150.461V148.926C384.854 148.77 384.904 148.641 385.006 148.539ZM396.789 151H393.607C393.459 151 393.332 150.947 393.227 150.842C393.121 150.736 393.068 150.609 393.068 150.461C393.068 150.312 393.121 150.184 393.227 150.074C393.332 149.965 393.459 149.91 393.607 149.91H394.111C394.26 149.91 394.387 149.857 394.492 149.752C394.598 149.643 394.65 149.514 394.65 149.365V144.232C394.65 144.084 394.598 143.957 394.492 143.852C394.387 143.746 394.26 143.693 394.111 143.693H393.607C393.459 143.693 393.332 143.639 393.227 143.529C393.121 143.42 393.068 143.291 393.068 143.143C393.068 142.994 393.121 142.867 393.227 142.762C393.332 142.652 393.459 142.598 393.607 142.598H396.789C396.938 142.598 397.064 142.652 397.17 142.762C397.275 142.867 397.328 142.994 397.328 143.143C397.328 143.291 397.275 143.42 397.17 143.529C397.064 143.639 396.938 143.693 396.789 143.693H396.285C396.137 143.693 396.01 143.746 395.904 143.852C395.799 143.957 395.746 144.084 395.746 144.232V149.365C395.746 149.514 395.799 149.643 395.904 149.752C396.01 149.857 396.137 149.91 396.285 149.91H396.789C396.938 149.91 397.064 149.965 397.17 150.074C397.275 150.184 397.328 150.312 397.328 150.461C397.328 150.609 397.275 150.736 397.17 150.842C397.064 150.947 396.938 151 396.789 151ZM404.377 142.768L405.385 143.764C405.49 143.869 405.543 143.998 405.543 144.15V149.453C405.543 149.602 405.49 149.729 405.385 149.834L404.377 150.83C404.275 150.943 404.145 151 403.984 151H401.752C401.596 151 401.467 150.943 401.365 150.83L400.357 149.834C400.256 149.732 400.205 149.605 400.205 149.453V144.15C400.205 143.994 400.256 143.865 400.357 143.764L401.365 142.768C401.467 142.654 401.596 142.598 401.752 142.598H403.984C404.145 142.598 404.275 142.654 404.377 142.768ZM403.885 149.787L404.33 149.342C404.412 149.26 404.453 149.16 404.453 149.043V144.555C404.453 144.438 404.412 144.338 404.33 144.256L403.885 143.811C403.807 143.732 403.707 143.693 403.586 143.693H402.162C402.037 143.693 401.936 143.732 401.857 143.811L401.418 144.256C401.336 144.338 401.295 144.438 401.295 144.555V149.043C401.295 149.16 401.336 149.26 401.418 149.342L401.857 149.787C401.939 149.869 402.041 149.91 402.162 149.91H403.586C403.703 149.91 403.803 149.869 403.885 149.787ZM408.9 142.879L412.041 148.275C412.068 148.314 412.09 148.334 412.105 148.334C412.121 148.334 412.129 148.307 412.129 148.252V143.143C412.129 142.994 412.184 142.867 412.293 142.762C412.402 142.652 412.531 142.598 412.68 142.598C412.828 142.598 412.955 142.652 413.061 142.762C413.166 142.867 413.219 142.994 413.219 143.143V150.461C413.219 150.609 413.166 150.736 413.061 150.842C412.955 150.947 412.828 151 412.68 151C412.465 151 412.305 150.908 412.199 150.725L409.053 145.311C409.041 145.271 409.021 145.252 408.994 145.252C408.979 145.252 408.971 145.279 408.971 145.334V150.461C408.971 150.609 408.916 150.736 408.807 150.842C408.697 150.947 408.568 151 408.42 151C408.271 151 408.145 150.947 408.039 150.842C407.934 150.736 407.881 150.609 407.881 150.461V143.143C407.881 142.994 407.934 142.867 408.039 142.762C408.145 142.652 408.271 142.598 408.42 142.598C408.631 142.598 408.791 142.691 408.9 142.879ZM426.912 146.143L427.357 145.686C427.439 145.604 427.48 145.504 427.48 145.387V144.555C427.48 144.438 427.439 144.338 427.357 144.256L426.912 143.811C426.834 143.732 426.734 143.693 426.613 143.693H424.861C424.713 143.693 424.586 143.746 424.48 143.852C424.375 143.957 424.322 144.084 424.322 144.232V145.709C424.322 145.857 424.375 145.986 424.48 146.096C424.586 146.205 424.713 146.26 424.861 146.26H426.613C426.734 146.26 426.834 146.221 426.912 146.143ZM426.912 149.787L427.357 149.342C427.439 149.26 427.48 149.16 427.48 149.043V148.229C427.48 148.111 427.439 148.012 427.357 147.93L426.912 147.473C426.83 147.391 426.73 147.35 426.613 147.35H424.861C424.713 147.35 424.586 147.404 424.48 147.514C424.375 147.623 424.322 147.754 424.322 147.906V149.365C424.322 149.514 424.375 149.643 424.48 149.752C424.586 149.857 424.713 149.91 424.861 149.91H426.613C426.73 149.91 426.83 149.869 426.912 149.787ZM428.412 146.178L428.172 146.418C428.07 146.52 428.02 146.646 428.02 146.799C428.02 146.963 428.07 147.096 428.172 147.197L428.412 147.438C428.518 147.543 428.57 147.67 428.57 147.818V149.441C428.57 149.598 428.518 149.729 428.412 149.834L427.404 150.83C427.303 150.943 427.172 151 427.012 151H423.771C423.623 151 423.496 150.947 423.391 150.842C423.285 150.736 423.232 150.609 423.232 150.461V143.143C423.232 142.994 423.285 142.867 423.391 142.762C423.496 142.652 423.623 142.598 423.771 142.598H427.012C427.172 142.598 427.303 142.654 427.404 142.768L428.412 143.764C428.518 143.869 428.57 143.998 428.57 144.15V145.791C428.57 145.943 428.518 146.072 428.412 146.178ZM431.998 143.143V149.043C431.998 149.16 432.039 149.26 432.121 149.342L432.561 149.787C432.643 149.869 432.744 149.91 432.865 149.91H434.289C434.406 149.91 434.506 149.869 434.588 149.787L435.033 149.342C435.115 149.26 435.156 149.16 435.156 149.043V143.143C435.156 142.994 435.211 142.867 435.32 142.762C435.43 142.652 435.559 142.598 435.707 142.598C435.855 142.598 435.982 142.652 436.088 142.762C436.193 142.867 436.246 142.994 436.246 143.143V149.453C436.246 149.602 436.193 149.729 436.088 149.834L435.08 150.83C434.979 150.943 434.848 151 434.688 151H432.455C432.299 151 432.17 150.943 432.068 150.83L431.061 149.834C430.959 149.732 430.908 149.605 430.908 149.453V143.143C430.908 142.994 430.961 142.867 431.066 142.762C431.172 142.652 431.299 142.598 431.447 142.598C431.596 142.598 431.725 142.652 431.834 142.762C431.943 142.867 431.998 142.994 431.998 143.143ZM442.844 151H439.662C439.514 151 439.387 150.947 439.281 150.842C439.176 150.736 439.123 150.609 439.123 150.461C439.123 150.312 439.176 150.184 439.281 150.074C439.387 149.965 439.514 149.91 439.662 149.91H440.166C440.314 149.91 440.441 149.857 440.547 149.752C440.652 149.643 440.705 149.514 440.705 149.365V144.232C440.705 144.084 440.652 143.957 440.547 143.852C440.441 143.746 440.314 143.693 440.166 143.693H439.662C439.514 143.693 439.387 143.639 439.281 143.529C439.176 143.42 439.123 143.291 439.123 143.143C439.123 142.994 439.176 142.867 439.281 142.762C439.387 142.652 439.514 142.598 439.662 142.598H442.844C442.992 142.598 443.119 142.652 443.225 142.762C443.33 142.867 443.383 142.994 443.383 143.143C443.383 143.291 443.33 143.42 443.225 143.529C443.119 143.639 442.992 143.693 442.844 143.693H442.34C442.191 143.693 442.064 143.746 441.959 143.852C441.854 143.957 441.801 144.084 441.801 144.232V149.365C441.801 149.514 441.854 149.643 441.959 149.752C442.064 149.857 442.191 149.91 442.34 149.91H442.844C442.992 149.91 443.119 149.965 443.225 150.074C443.33 150.184 443.383 150.312 443.383 150.461C443.383 150.609 443.33 150.736 443.225 150.842C443.119 150.947 442.992 151 442.844 151ZM447.35 143.143V149.365C447.35 149.514 447.402 149.643 447.508 149.752C447.613 149.857 447.74 149.91 447.889 149.91H451.059C451.207 149.91 451.334 149.965 451.439 150.074C451.545 150.184 451.598 150.312 451.598 150.461C451.598 150.609 451.545 150.736 451.439 150.842C451.334 150.947 451.207 151 451.059 151H446.799C446.65 151 446.523 150.947 446.418 150.842C446.312 150.736 446.26 150.609 446.26 150.461V143.143C446.26 142.994 446.312 142.867 446.418 142.762C446.523 142.652 446.65 142.598 446.799 142.598C446.947 142.598 447.076 142.652 447.186 142.762C447.295 142.867 447.35 142.994 447.35 143.143ZM457.363 149.787L458.061 149.09C458.143 149.008 458.184 148.908 458.184 148.791V144.807C458.184 144.689 458.143 144.59 458.061 144.508L457.363 143.811C457.285 143.732 457.186 143.693 457.064 143.693H455.564C455.416 143.693 455.289 143.746 455.184 143.852C455.078 143.957 455.025 144.084 455.025 144.232V149.365C455.025 149.514 455.078 149.643 455.184 149.752C455.289 149.857 455.416 149.91 455.564 149.91H457.064C457.182 149.91 457.281 149.869 457.363 149.787ZM457.855 142.756L459.104 144.016C459.217 144.117 459.273 144.246 459.273 144.402V149.201C459.273 149.354 459.217 149.48 459.104 149.582L457.855 150.842C457.75 150.947 457.623 151 457.475 151H454.475C454.326 151 454.199 150.947 454.094 150.842C453.988 150.736 453.936 150.609 453.936 150.461V143.143C453.936 142.994 453.988 142.867 454.094 142.762C454.199 142.652 454.326 142.598 454.475 142.598H457.475C457.623 142.598 457.75 142.65 457.855 142.756Z" fill="#FAFAFA" />
</g>
<g id="Content Pill_3" filter="url(#filter5_dd_1616_203)">
<mask id="path-28-inside-7_1616_203" fill="white">
<path d="M366 175C366 170.582 369.582 167 374 167H471C475.418 167 479 170.582 479 175V191C479 195.418 475.418 199 471 199H374C369.582 199 366 195.418 366 191V175Z" />
</mask>
<path d="M366 175C366 170.582 369.582 167 374 167H471C475.418 167 479 170.582 479 175V191C479 195.418 475.418 199 471 199H374C369.582 199 366 195.418 366 191V175Z" fill="#0A0A0A" />
<path d="M374 167V169H471V167V165H374V167ZM479 175H477V191H479H481V175H479ZM471 199V197H374V199V201H471V199ZM366 191H368V175H366H364V191H366ZM374 199V197C370.686 197 368 194.314 368 191H366H364C364 196.523 368.477 201 374 201V199ZM479 191H477C477 194.314 474.314 197 471 197V199V201C476.523 201 481 196.523 481 191H479ZM471 167V169C474.314 169 477 171.686 477 175H479H481C481 169.477 476.523 165 471 165V167ZM374 167V165C368.477 165 364 169.477 364 175H366H368C368 171.686 370.686 169 374 169V167Z" fill="url(#paint7_linear_1616_203)" fill-opacity="0.1" mask="url(#path-28-inside-7_1616_203)" />
<path id="Label_3" d="M382.516 180.402V186.461C382.516 186.609 382.463 186.736 382.357 186.842C382.252 186.947 382.125 187 381.977 187C381.828 187 381.699 186.947 381.59 186.842C381.48 186.736 381.426 186.609 381.426 186.461V184.158C381.426 184.01 381.373 183.883 381.268 183.777C381.162 183.668 381.035 183.613 380.887 183.613H378.807C378.658 183.613 378.531 183.668 378.426 183.777C378.32 183.883 378.268 184.01 378.268 184.158V186.461C378.268 186.609 378.213 186.736 378.104 186.842C377.994 186.947 377.865 187 377.717 187C377.568 187 377.441 186.947 377.336 186.842C377.23 186.736 377.178 186.609 377.178 186.461V180.402C377.178 180.246 377.229 180.117 377.33 180.016L378.59 178.768C378.691 178.654 378.82 178.598 378.977 178.598H380.717C380.865 178.598 380.992 178.65 381.098 178.756L382.346 180.016C382.459 180.117 382.516 180.246 382.516 180.402ZM381.426 181.984V180.807C381.426 180.689 381.385 180.59 381.303 180.508L380.605 179.811C380.527 179.732 380.428 179.693 380.307 179.693H379.387C379.262 179.693 379.16 179.732 379.082 179.811L378.391 180.508C378.309 180.59 378.268 180.689 378.268 180.807V181.984C378.268 182.133 378.32 182.26 378.426 182.365C378.531 182.471 378.658 182.523 378.807 182.523H380.887C381.035 182.523 381.162 182.471 381.268 182.365C381.373 182.26 381.426 182.133 381.426 181.984ZM385.006 184.539L388.979 180.566C389.061 180.484 389.102 180.385 389.102 180.268V180.232C389.102 180.084 389.049 179.957 388.943 179.852C388.838 179.746 388.711 179.693 388.562 179.693H385.393C385.244 179.693 385.117 179.639 385.012 179.529C384.906 179.42 384.854 179.291 384.854 179.143C384.854 178.994 384.906 178.867 385.012 178.762C385.117 178.652 385.244 178.598 385.393 178.598H389.652C389.801 178.598 389.928 178.652 390.033 178.762C390.139 178.867 390.191 178.994 390.191 179.143V180.678C390.191 180.826 390.139 180.953 390.033 181.059L386.066 185.031C385.984 185.113 385.943 185.213 385.943 185.33V185.365C385.943 185.514 385.996 185.643 386.102 185.752C386.207 185.857 386.334 185.91 386.482 185.91H389.652C389.801 185.91 389.928 185.965 390.033 186.074C390.139 186.184 390.191 186.312 390.191 186.461C390.191 186.609 390.139 186.736 390.033 186.842C389.928 186.947 389.801 187 389.652 187H385.393C385.244 187 385.117 186.947 385.012 186.842C384.906 186.736 384.854 186.609 384.854 186.461V184.926C384.854 184.77 384.904 184.641 385.006 184.539ZM396.789 187H393.607C393.459 187 393.332 186.947 393.227 186.842C393.121 186.736 393.068 186.609 393.068 186.461C393.068 186.312 393.121 186.184 393.227 186.074C393.332 185.965 393.459 185.91 393.607 185.91H394.111C394.26 185.91 394.387 185.857 394.492 185.752C394.598 185.643 394.65 185.514 394.65 185.365V180.232C394.65 180.084 394.598 179.957 394.492 179.852C394.387 179.746 394.26 179.693 394.111 179.693H393.607C393.459 179.693 393.332 179.639 393.227 179.529C393.121 179.42 393.068 179.291 393.068 179.143C393.068 178.994 393.121 178.867 393.227 178.762C393.332 178.652 393.459 178.598 393.607 178.598H396.789C396.938 178.598 397.064 178.652 397.17 178.762C397.275 178.867 397.328 178.994 397.328 179.143C397.328 179.291 397.275 179.42 397.17 179.529C397.064 179.639 396.938 179.693 396.789 179.693H396.285C396.137 179.693 396.01 179.746 395.904 179.852C395.799 179.957 395.746 180.084 395.746 180.232V185.365C395.746 185.514 395.799 185.643 395.904 185.752C396.01 185.857 396.137 185.91 396.285 185.91H396.789C396.938 185.91 397.064 185.965 397.17 186.074C397.275 186.184 397.328 186.312 397.328 186.461C397.328 186.609 397.275 186.736 397.17 186.842C397.064 186.947 396.938 187 396.789 187ZM404.377 178.768L405.385 179.764C405.49 179.869 405.543 179.998 405.543 180.15V185.453C405.543 185.602 405.49 185.729 405.385 185.834L404.377 186.83C404.275 186.943 404.145 187 403.984 187H401.752C401.596 187 401.467 186.943 401.365 186.83L400.357 185.834C400.256 185.732 400.205 185.605 400.205 185.453V180.15C400.205 179.994 400.256 179.865 400.357 179.764L401.365 178.768C401.467 178.654 401.596 178.598 401.752 178.598H403.984C404.145 178.598 404.275 178.654 404.377 178.768ZM403.885 185.787L404.33 185.342C404.412 185.26 404.453 185.16 404.453 185.043V180.555C404.453 180.438 404.412 180.338 404.33 180.256L403.885 179.811C403.807 179.732 403.707 179.693 403.586 179.693H402.162C402.037 179.693 401.936 179.732 401.857 179.811L401.418 180.256C401.336 180.338 401.295 180.438 401.295 180.555V185.043C401.295 185.16 401.336 185.26 401.418 185.342L401.857 185.787C401.939 185.869 402.041 185.91 402.162 185.91H403.586C403.703 185.91 403.803 185.869 403.885 185.787ZM408.9 178.879L412.041 184.275C412.068 184.314 412.09 184.334 412.105 184.334C412.121 184.334 412.129 184.307 412.129 184.252V179.143C412.129 178.994 412.184 178.867 412.293 178.762C412.402 178.652 412.531 178.598 412.68 178.598C412.828 178.598 412.955 178.652 413.061 178.762C413.166 178.867 413.219 178.994 413.219 179.143V186.461C413.219 186.609 413.166 186.736 413.061 186.842C412.955 186.947 412.828 187 412.68 187C412.465 187 412.305 186.908 412.199 186.725L409.053 181.311C409.041 181.271 409.021 181.252 408.994 181.252C408.979 181.252 408.971 181.279 408.971 181.334V186.461C408.971 186.609 408.916 186.736 408.807 186.842C408.697 186.947 408.568 187 408.42 187C408.271 187 408.145 186.947 408.039 186.842C407.934 186.736 407.881 186.609 407.881 186.461V179.143C407.881 178.994 407.934 178.867 408.039 178.762C408.145 178.652 408.271 178.598 408.42 178.598C408.631 178.598 408.791 178.691 408.9 178.879ZM426.66 185.787L427.357 185.09C427.439 185.008 427.48 184.908 427.48 184.791V180.807C427.48 180.689 427.439 180.59 427.357 180.508L426.66 179.811C426.582 179.732 426.482 179.693 426.361 179.693H424.861C424.713 179.693 424.586 179.746 424.48 179.852C424.375 179.957 424.322 180.084 424.322 180.232V185.365C424.322 185.514 424.375 185.643 424.48 185.752C424.586 185.857 424.713 185.91 424.861 185.91H426.361C426.479 185.91 426.578 185.869 426.66 185.787ZM427.152 178.756L428.4 180.016C428.514 180.117 428.57 180.246 428.57 180.402V185.201C428.57 185.354 428.514 185.48 428.4 185.582L427.152 186.842C427.047 186.947 426.92 187 426.771 187H423.771C423.623 187 423.496 186.947 423.391 186.842C423.285 186.736 423.232 186.609 423.232 186.461V179.143C423.232 178.994 423.285 178.867 423.391 178.762C423.496 178.652 423.623 178.598 423.771 178.598H426.771C426.92 178.598 427.047 178.65 427.152 178.756ZM430.908 186.461V179.143C430.908 178.994 430.961 178.867 431.066 178.762C431.172 178.652 431.299 178.598 431.447 178.598H435.707C435.855 178.598 435.982 178.652 436.088 178.762C436.193 178.867 436.246 178.994 436.246 179.143C436.246 179.291 436.193 179.42 436.088 179.529C435.982 179.639 435.855 179.693 435.707 179.693H432.537C432.389 179.693 432.262 179.746 432.156 179.852C432.051 179.957 431.998 180.084 431.998 180.232V181.709C431.998 181.857 432.051 181.986 432.156 182.096C432.262 182.205 432.389 182.26 432.537 182.26H434.893C435.041 182.26 435.17 182.312 435.279 182.418C435.389 182.523 435.443 182.65 435.443 182.799C435.443 182.947 435.389 183.076 435.279 183.186C435.17 183.295 435.041 183.35 434.893 183.35H432.537C432.389 183.35 432.262 183.404 432.156 183.514C432.051 183.623 431.998 183.754 431.998 183.906V185.365C431.998 185.514 432.051 185.643 432.156 185.752C432.262 185.857 432.389 185.91 432.537 185.91H435.707C435.855 185.91 435.982 185.965 436.088 186.074C436.193 186.184 436.246 186.312 436.246 186.461C436.246 186.609 436.193 186.736 436.088 186.842C435.982 186.947 435.855 187 435.707 187H431.447C431.299 187 431.172 186.947 431.066 186.842C430.961 186.736 430.908 186.609 430.908 186.461ZM439.674 184.158V186.461C439.674 186.609 439.619 186.736 439.51 186.842C439.4 186.947 439.271 187 439.123 187C438.975 187 438.848 186.947 438.742 186.842C438.637 186.736 438.584 186.609 438.584 186.461V179.143C438.584 178.994 438.637 178.867 438.742 178.762C438.848 178.652 438.975 178.598 439.123 178.598H442.363C442.523 178.598 442.654 178.654 442.756 178.768L443.764 179.764C443.869 179.869 443.922 179.998 443.922 180.15V182.055C443.922 182.215 443.869 182.348 443.764 182.453L442.756 183.449C442.658 183.559 442.527 183.613 442.363 183.613H440.213C440.064 183.613 439.938 183.668 439.832 183.777C439.727 183.883 439.674 184.01 439.674 184.158ZM440.213 182.523H441.965C442.086 182.523 442.186 182.484 442.264 182.406L442.709 181.961C442.791 181.879 442.832 181.779 442.832 181.662V180.555C442.832 180.438 442.791 180.338 442.709 180.256L442.264 179.811C442.186 179.732 442.086 179.693 441.965 179.693H440.213C440.064 179.693 439.938 179.746 439.832 179.852C439.727 179.957 439.674 180.084 439.674 180.232V181.984C439.674 182.133 439.727 182.26 439.832 182.365C439.938 182.471 440.064 182.523 440.213 182.523ZM447.35 179.143V185.365C447.35 185.514 447.402 185.643 447.508 185.752C447.613 185.857 447.74 185.91 447.889 185.91H451.059C451.207 185.91 451.334 185.965 451.439 186.074C451.545 186.184 451.598 186.312 451.598 186.461C451.598 186.609 451.545 186.736 451.439 186.842C451.334 186.947 451.207 187 451.059 187H446.799C446.65 187 446.523 186.947 446.418 186.842C446.312 186.736 446.26 186.609 446.26 186.461V179.143C446.26 178.994 446.312 178.867 446.418 178.762C446.523 178.652 446.65 178.598 446.799 178.598C446.947 178.598 447.076 178.652 447.186 178.762C447.295 178.867 447.35 178.994 447.35 179.143ZM458.107 178.768L459.115 179.764C459.221 179.869 459.273 179.998 459.273 180.15V185.453C459.273 185.602 459.221 185.729 459.115 185.834L458.107 186.83C458.006 186.943 457.875 187 457.715 187H455.482C455.326 187 455.197 186.943 455.096 186.83L454.088 185.834C453.986 185.732 453.936 185.605 453.936 185.453V180.15C453.936 179.994 453.986 179.865 454.088 179.764L455.096 178.768C455.197 178.654 455.326 178.598 455.482 178.598H457.715C457.875 178.598 458.006 178.654 458.107 178.768ZM457.615 185.787L458.061 185.342C458.143 185.26 458.184 185.16 458.184 185.043V180.555C458.184 180.438 458.143 180.338 458.061 180.256L457.615 179.811C457.537 179.732 457.438 179.693 457.316 179.693H455.893C455.768 179.693 455.666 179.732 455.588 179.811L455.148 180.256C455.066 180.338 455.025 180.438 455.025 180.555V185.043C455.025 185.16 455.066 185.26 455.148 185.342L455.588 185.787C455.67 185.869 455.771 185.91 455.893 185.91H457.316C457.434 185.91 457.533 185.869 457.615 185.787ZM463.615 183.402L461.775 181.562C461.666 181.453 461.611 181.322 461.611 181.17V179.143C461.611 178.994 461.664 178.867 461.77 178.762C461.875 178.652 462.002 178.598 462.15 178.598C462.299 178.598 462.428 178.652 462.537 178.762C462.646 178.867 462.701 178.994 462.701 179.143V180.76C462.701 180.877 462.742 180.977 462.824 181.059L463.891 182.143C463.992 182.244 464.119 182.295 464.271 182.295C464.436 182.295 464.568 182.244 464.67 182.143L465.736 181.059C465.818 180.977 465.859 180.877 465.859 180.76V179.143C465.859 178.994 465.914 178.867 466.023 178.762C466.133 178.652 466.262 178.598 466.41 178.598C466.559 178.598 466.686 178.652 466.791 178.762C466.896 178.867 466.949 178.994 466.949 179.143V181.17C466.949 181.318 466.893 181.449 466.779 181.562L464.945 183.402C464.867 183.48 464.828 183.58 464.828 183.701V186.461C464.828 186.613 464.775 186.742 464.67 186.848C464.564 186.949 464.432 187 464.271 187C464.123 187 463.996 186.947 463.891 186.842C463.785 186.736 463.732 186.609 463.732 186.461V183.701C463.732 183.58 463.693 183.48 463.615 183.402Z" fill="#FAFAFA" />
</g>
</g>
</g>
<defs>
<filter id="filter0_dd_1616_203" x="137.781" y="76.1875" width="54.4375" height="53.4375" filterUnits="userSpaceOnUse" color-interpolation-filters="sRGB">
<feFlood flood-opacity="0" result="BackgroundImageFix" />
<feColorMatrix in="SourceAlpha" type="matrix" values="0 0 0 0 0 0 0 0 0 0 0 0 0 0 0 0 0 0 127 0" result="hardAlpha" />
<feMorphology radius="1.40625" operator="erode" in="SourceAlpha" result="effect1_dropShadow_1616_203" />
<feOffset dy="1.40625" />
<feGaussianBlur stdDeviation="1.40625" />
<feColorMatrix type="matrix" values="0 0 0 0 0 0 0 0 0 0 0 0 0 0 0 0 0 0 0.1 0" />
<feBlend mode="normal" in2="BackgroundImageFix" result="effect1_dropShadow_1616_203" />
<feColorMatrix in="SourceAlpha" type="matrix" values="0 0 0 0 0 0 0 0 0 0 0 0 0 0 0 0 0 0 127 0" result="hardAlpha" />
<feOffset dy="1.40625" />
<feGaussianBlur stdDeviation="2.10938" />
<feColorMatrix type="matrix" values="0 0 0 0 0 0 0 0 0 0 0 0 0 0 0 0 0 0 0.1 0" />
<feBlend mode="normal" in2="effect1_dropShadow_1616_203" result="effect2_dropShadow_1616_203" />
<feBlend mode="normal" in="SourceGraphic" in2="effect2_dropShadow_1616_203" result="shape" />
</filter>
<filter id="filter1_dd_1616_203" x="137.781" y="125.188" width="54.4375" height="53.4375" filterUnits="userSpaceOnUse" color-interpolation-filters="sRGB">
<feFlood flood-opacity="0" result="BackgroundImageFix" />
<feColorMatrix in="SourceAlpha" type="matrix" values="0 0 0 0 0 0 0 0 0 0 0 0 0 0 0 0 0 0 127 0" result="hardAlpha" />
<feMorphology radius="1.40625" operator="erode" in="SourceAlpha" result="effect1_dropShadow_1616_203" />
<feOffset dy="1.40625" />
<feGaussianBlur stdDeviation="1.40625" />
<feColorMatrix type="matrix" values="0 0 0 0 0 0 0 0 0 0 0 0 0 0 0 0 0 0 0.1 0" />
<feBlend mode="normal" in2="BackgroundImageFix" result="effect1_dropShadow_1616_203" />
<feColorMatrix in="SourceAlpha" type="matrix" values="0 0 0 0 0 0 0 0 0 0 0 0 0 0 0 0 0 0 127 0" result="hardAlpha" />
<feOffset dy="1.40625" />
<feGaussianBlur stdDeviation="2.10938" />
<feColorMatrix type="matrix" values="0 0 0 0 0 0 0 0 0 0 0 0 0 0 0 0 0 0 0.1 0" />
<feBlend mode="normal" in2="effect1_dropShadow_1616_203" result="effect2_dropShadow_1616_203" />
<feBlend mode="normal" in="SourceGraphic" in2="effect2_dropShadow_1616_203" result="shape" />
</filter>
<filter id="filter2_dd_1616_203" x="137.781" y="174.188" width="54.4375" height="53.4375" filterUnits="userSpaceOnUse" color-interpolation-filters="sRGB">
<feFlood flood-opacity="0" result="BackgroundImageFix" />
<feColorMatrix in="SourceAlpha" type="matrix" values="0 0 0 0 0 0 0 0 0 0 0 0 0 0 0 0 0 0 127 0" result="hardAlpha" />
<feMorphology radius="1.40625" operator="erode" in="SourceAlpha" result="effect1_dropShadow_1616_203" />
<feOffset dy="1.40625" />
<feGaussianBlur stdDeviation="1.40625" />
<feColorMatrix type="matrix" values="0 0 0 0 0 0 0 0 0 0 0 0 0 0 0 0 0 0 0.1 0" />
<feBlend mode="normal" in2="BackgroundImageFix" result="effect1_dropShadow_1616_203" />
<feColorMatrix in="SourceAlpha" type="matrix" values="0 0 0 0 0 0 0 0 0 0 0 0 0 0 0 0 0 0 127 0" result="hardAlpha" />
<feOffset dy="1.40625" />
<feGaussianBlur stdDeviation="2.10938" />
<feColorMatrix type="matrix" values="0 0 0 0 0 0 0 0 0 0 0 0 0 0 0 0 0 0 0.1 0" />
<feBlend mode="normal" in2="effect1_dropShadow_1616_203" result="effect2_dropShadow_1616_203" />
<feBlend mode="normal" in="SourceGraphic" in2="effect2_dropShadow_1616_203" result="shape" />
</filter>
<filter id="filter3_dd_1616_203" x="363" y="93" width="103" height="38" filterUnits="userSpaceOnUse" color-interpolation-filters="sRGB">
<feFlood flood-opacity="0" result="BackgroundImageFix" />
<feColorMatrix in="SourceAlpha" type="matrix" values="0 0 0 0 0 0 0 0 0 0 0 0 0 0 0 0 0 0 127 0" result="hardAlpha" />
<feMorphology radius="1" operator="erode" in="SourceAlpha" result="effect1_dropShadow_1616_203" />
<feOffset dy="1" />
<feGaussianBlur stdDeviation="1" />
<feColorMatrix type="matrix" values="0 0 0 0 0 0 0 0 0 0 0 0 0 0 0 0 0 0 0.1 0" />
<feBlend mode="normal" in2="BackgroundImageFix" result="effect1_dropShadow_1616_203" />
<feColorMatrix in="SourceAlpha" type="matrix" values="0 0 0 0 0 0 0 0 0 0 0 0 0 0 0 0 0 0 127 0" result="hardAlpha" />
<feOffset dy="1" />
<feGaussianBlur stdDeviation="1.5" />
<feColorMatrix type="matrix" values="0 0 0 0 0 0 0 0 0 0 0 0 0 0 0 0 0 0 0.1 0" />
<feBlend mode="normal" in2="effect1_dropShadow_1616_203" result="effect2_dropShadow_1616_203" />
<feBlend mode="normal" in="SourceGraphic" in2="effect2_dropShadow_1616_203" result="shape" />
</filter>
<filter id="filter4_dd_1616_203" x="363" y="129" width="111" height="38" filterUnits="userSpaceOnUse" color-interpolation-filters="sRGB">
<feFlood flood-opacity="0" result="BackgroundImageFix" />
<feColorMatrix in="SourceAlpha" type="matrix" values="0 0 0 0 0 0 0 0 0 0 0 0 0 0 0 0 0 0 127 0" result="hardAlpha" />
<feMorphology radius="1" operator="erode" in="SourceAlpha" result="effect1_dropShadow_1616_203" />
<feOffset dy="1" />
<feGaussianBlur stdDeviation="1" />
<feColorMatrix type="matrix" values="0 0 0 0 0 0 0 0 0 0 0 0 0 0 0 0 0 0 0.1 0" />
<feBlend mode="normal" in2="BackgroundImageFix" result="effect1_dropShadow_1616_203" />
<feColorMatrix in="SourceAlpha" type="matrix" values="0 0 0 0 0 0 0 0 0 0 0 0 0 0 0 0 0 0 127 0" result="hardAlpha" />
<feOffset dy="1" />
<feGaussianBlur stdDeviation="1.5" />
<feColorMatrix type="matrix" values="0 0 0 0 0 0 0 0 0 0 0 0 0 0 0 0 0 0 0.1 0" />
<feBlend mode="normal" in2="effect1_dropShadow_1616_203" result="effect2_dropShadow_1616_203" />
<feBlend mode="normal" in="SourceGraphic" in2="effect2_dropShadow_1616_203" result="shape" />
</filter>
<filter id="filter5_dd_1616_203" x="363" y="165" width="119" height="38" filterUnits="userSpaceOnUse" color-interpolation-filters="sRGB">
<feFlood flood-opacity="0" result="BackgroundImageFix" />
<feColorMatrix in="SourceAlpha" type="matrix" values="0 0 0 0 0 0 0 0 0 0 0 0 0 0 0 0 0 0 127 0" result="hardAlpha" />
<feMorphology radius="1" operator="erode" in="SourceAlpha" result="effect1_dropShadow_1616_203" />
<feOffset dy="1" />
<feGaussianBlur stdDeviation="1" />
<feColorMatrix type="matrix" values="0 0 0 0 0 0 0 0 0 0 0 0 0 0 0 0 0 0 0.1 0" />
<feBlend mode="normal" in2="BackgroundImageFix" result="effect1_dropShadow_1616_203" />
<feColorMatrix in="SourceAlpha" type="matrix" values="0 0 0 0 0 0 0 0 0 0 0 0 0 0 0 0 0 0 127 0" result="hardAlpha" />
<feOffset dy="1" />
<feGaussianBlur stdDeviation="1.5" />
<feColorMatrix type="matrix" values="0 0 0 0 0 0 0 0 0 0 0 0 0 0 0 0 0 0 0.1 0" />
<feBlend mode="normal" in2="effect1_dropShadow_1616_203" result="effect2_dropShadow_1616_203" />
<feBlend mode="normal" in="SourceGraphic" in2="effect2_dropShadow_1616_203" result="shape" />
</filter>
<linearGradient id="paint0_linear_1616_203" x1="237.992" y1="98.9375" x2="348.999" y2="240.424" gradientUnits="userSpaceOnUse">
<stop stop-color="#F3652B" />
<stop offset="0.284697" stop-color="#F3652B" stop-opacity="0.1" />
<stop offset="0.600155" stop-color="#F3652B" stop-opacity="0.1" />
<stop offset="1" stop-color="#F3652B" />
</linearGradient>
<linearGradient id="paint1_linear_1616_203" x1="142" y1="79" x2="164.202" y2="124.39" gradientUnits="userSpaceOnUse">
<stop stop-color="white" />
<stop offset="0.548077" stop-color="white" stop-opacity="0.1" />
<stop offset="0.817308" stop-color="white" stop-opacity="0.1" />
<stop offset="1" stop-color="white" />
</linearGradient>
<linearGradient id="paint2_linear_1616_203" x1="161.261" y1="112.078" x2="170.76" y2="107.589" gradientUnits="userSpaceOnUse">
<stop stop-color="#D83333" />
<stop offset="1" stop-color="#F041FF" />
</linearGradient>
<linearGradient id="paint3_linear_1616_203" x1="142" y1="128" x2="164.202" y2="173.39" gradientUnits="userSpaceOnUse">
<stop stop-color="white" />
<stop offset="0.548077" stop-color="white" stop-opacity="0.1" />
<stop offset="0.817308" stop-color="white" stop-opacity="0.1" />
<stop offset="1" stop-color="white" />
</linearGradient>
<linearGradient id="paint4_linear_1616_203" x1="142" y1="177" x2="164.202" y2="222.39" gradientUnits="userSpaceOnUse">
<stop stop-color="white" />
<stop offset="0.548077" stop-color="white" stop-opacity="0.1" />
<stop offset="0.817308" stop-color="white" stop-opacity="0.1" />
<stop offset="1" stop-color="white" />
</linearGradient>
<linearGradient id="paint5_linear_1616_203" x1="366" y1="95" x2="372.423" y2="133.941" gradientUnits="userSpaceOnUse">
<stop stop-color="white" />
<stop offset="0.548077" stop-color="white" stop-opacity="0.1" />
<stop offset="0.817308" stop-color="white" stop-opacity="0.1" />
<stop offset="1" stop-color="white" />
</linearGradient>
<linearGradient id="paint6_linear_1616_203" x1="366" y1="131" x2="371.957" y2="170.092" gradientUnits="userSpaceOnUse">
<stop stop-color="white" />
<stop offset="0.548077" stop-color="white" stop-opacity="0.1" />
<stop offset="0.817308" stop-color="white" stop-opacity="0.1" />
<stop offset="1" stop-color="white" />
</linearGradient>
<linearGradient id="paint7_linear_1616_203" x1="366" y1="167" x2="371.552" y2="206.214" gradientUnits="userSpaceOnUse">
<stop stop-color="white" />
<stop offset="0.548077" stop-color="white" stop-opacity="0.1" />
<stop offset="0.817308" stop-color="white" stop-opacity="0.1" />
<stop offset="1" stop-color="white" />
</linearGradient>
<clipPath id="clip0_1616_203">
<rect width="17.8328" height="22.5" fill="white" transform="translate(156.537 90.25)" />
</clipPath>
</defs>
</svg>
