<svg width="48" height="48" viewBox="0 0 48 48" fill="none" xmlns="http://www.w3.org/2000/svg">
<path fill-rule="evenodd" clip-rule="evenodd" d="M13.2937 2.28174H34.7061V8.50308H40.8009V9.35508H34.7061V15.5764H13.2937V9.38847H7.19897V8.53647H13.2937V2.28174ZM14.1457 3.13374V14.7244H33.8541V3.13374H14.1457ZM19.0342 7.61689C18.3386 7.61689 17.7747 8.18078 17.7747 8.87637C17.7747 9.57197 18.3386 10.1359 19.0342 10.1359C19.7298 10.1359 20.2937 9.57197 20.2937 8.87637C20.2937 8.18078 19.7298 7.61689 19.0342 7.61689ZM16.9227 8.87637C16.9227 7.71023 17.8681 6.76489 19.0342 6.76489C20.2004 6.76489 21.1457 7.71023 21.1457 8.87637C21.1457 10.0425 20.2004 10.9879 19.0342 10.9879C17.8681 10.9879 16.9227 10.0425 16.9227 8.87637ZM28.9656 7.61689C28.27 7.61689 27.7061 8.18078 27.7061 8.87637C27.7061 9.57197 28.27 10.1359 28.9656 10.1359C29.6612 10.1359 30.2251 9.57197 30.2251 8.87637C30.2251 8.18078 29.6612 7.61689 28.9656 7.61689ZM26.8541 8.87637C26.8541 7.71023 27.7995 6.76489 28.9656 6.76489C30.1318 6.76489 31.0771 7.71023 31.0771 8.87637C31.0771 10.0425 30.1318 10.9879 28.9656 10.9879C27.7995 10.9879 26.8541 10.0425 26.8541 8.87637ZM8.63605 20.0473H39.3638V33.4483H38.5118V20.8993H9.48805V33.4483H8.63605V20.0473ZM16.9534 45.2924V28.6572H17.8054V45.2924H16.9534ZM31.113 28.6572V45.2924H30.261V28.6572H31.113Z" fill="#1E1E1E"/>
</svg>
