<svg width="48" height="48" viewBox="0 0 48 48" fill="none" xmlns="http://www.w3.org/2000/svg">
<path fill-rule="evenodd" clip-rule="evenodd" d="M22.4129 4.15662C22.4129 4.15626 22.4129 4.15698 22.4129 4.15662L22.4819 17.9256C22.8878 17.8548 23.226 17.7959 23.482 17.7514L24.0325 17.6557C24.0326 17.6556 24.0331 17.6556 24.1059 18.0753L24.0325 17.6557C24.0566 17.6515 24.0815 17.6493 24.1059 17.6493C25.1648 17.6493 26.0698 18.4589 26.0698 19.5139V45.2397C26.0698 45.475 25.879 45.6657 25.6438 45.6657C25.4085 45.6657 25.2178 45.475 25.2178 45.2397V19.5139C25.2178 18.9909 24.7645 18.5184 24.14 18.5017L23.628 18.5907C23.2737 18.6524 22.7617 18.7416 22.1305 18.8518C20.8682 19.0723 19.1297 19.3767 17.225 19.7129C13.4152 20.3852 8.94342 21.1836 6.28537 21.6897C5.51752 21.841 5.09246 22.2347 5.09246 22.7101V45.2608C5.09246 45.496 4.90173 45.6868 4.66646 45.6868C4.43118 45.6868 4.24046 45.496 4.24046 45.2608V22.7101C4.24046 21.5983 5.23236 21.0284 6.12215 20.8535L6.12464 20.853C8.78904 20.3457 13.2672 19.5461 17.0769 18.8738C18.8103 18.5679 20.406 18.2883 21.6306 18.0743L21.5609 4.15875L21.5609 4.15662C21.5609 3.11052 22.4716 2.31323 23.5248 2.31323H41.5327C42.5859 2.31323 43.4966 3.11052 43.4966 4.15662V27.2671C43.4966 27.5024 43.3058 27.6931 43.0706 27.6931C42.8353 27.6931 42.6446 27.5024 42.6446 27.2671V4.15662C42.6446 3.64359 42.1804 3.16523 41.5327 3.16523H23.5248C22.8776 3.16523 22.4136 3.644 22.4129 4.15662ZM14.3581 2.65048C14.5246 2.48428 14.7943 2.48454 14.9605 2.65107L18.4832 6.18079C18.5885 6.25835 18.6568 6.38318 18.6568 6.52397C18.6568 6.52505 18.6568 6.52613 18.6568 6.5272C18.6577 6.63746 18.6162 6.74801 18.532 6.83213L14.9602 10.4039C14.7939 10.5703 14.5241 10.5703 14.3578 10.4039C14.1914 10.2376 14.1914 9.96785 14.3578 9.80149L17.2093 6.94997H12.1998C8.34044 6.94997 5.09242 10.5112 5.09242 14.9645V18.0757C5.09242 18.3109 4.90169 18.5017 4.66642 18.5017C4.43114 18.5017 4.24042 18.3109 4.24042 18.0757V14.9645C4.24042 10.134 7.78168 6.09797 12.1998 6.09797H17.1969L14.3575 3.25293C14.1913 3.0864 14.1915 2.81667 14.3581 2.65048ZM30.7456 9.18047C30.7456 8.64046 31.1844 8.20169 31.7244 8.20169H33.3331C33.8731 8.20169 34.3119 8.64046 34.3119 9.18047V10.5624C34.3119 11.1024 33.8731 11.5412 33.3331 11.5412H31.7244C31.1844 11.5412 30.7456 11.1024 30.7456 10.5624V9.18047ZM31.7244 9.05369C31.6549 9.05369 31.5976 9.111 31.5976 9.18047V10.5624C31.5976 10.6319 31.6549 10.6892 31.7244 10.6892H33.3331C33.4026 10.6892 33.4599 10.6319 33.4599 10.5624V9.18047C33.4599 9.111 33.4026 9.05369 33.3331 9.05369H31.7244ZM36.1742 9.18047C36.1742 8.64045 36.613 8.20169 37.153 8.20169H38.7617C39.3017 8.20169 39.7405 8.64046 39.7405 9.18047V10.5624C39.7405 11.1024 39.3017 11.5412 38.7617 11.5412H37.153C36.613 11.5412 36.1742 11.1024 36.1742 10.5624V9.18047ZM37.153 9.05369C37.0835 9.05369 37.0262 9.11101 37.0262 9.18047V10.5624C37.0262 10.6319 37.0835 10.6892 37.153 10.6892H38.7617C38.8312 10.6892 38.8885 10.6319 38.8885 10.5624V9.18047C38.8885 9.111 38.8312 9.05369 38.7617 9.05369H37.153ZM25.3241 9.18058C25.3241 8.64057 25.7629 8.2018 26.3029 8.2018H27.9116C28.4516 8.2018 28.8904 8.64057 28.8904 9.18058V10.5625C28.8904 11.1025 28.4516 11.5413 27.9116 11.5413H26.3029C25.7629 11.5413 25.3241 11.1025 25.3241 10.5625V9.18058ZM26.3029 9.0538C26.2334 9.0538 26.1761 9.11111 26.1761 9.18058V10.5625C26.1761 10.632 26.2334 10.6893 26.3029 10.6893H27.9116C27.9811 10.6893 28.0384 10.632 28.0384 10.5625V9.18058C28.0384 9.11111 27.9811 9.0538 27.9116 9.0538H26.3029ZM25.3241 14.6941C25.3241 14.154 25.7629 13.7153 26.3029 13.7153H27.9116C28.4516 13.7153 28.8904 14.154 28.8904 14.6941V16.076C28.8904 16.616 28.4516 17.0548 27.9116 17.0548H26.3029C25.7629 17.0548 25.3241 16.616 25.3241 16.076V14.6941ZM26.3029 14.5673C26.2334 14.5673 26.1761 14.6246 26.1761 14.6941V16.076C26.1761 16.1455 26.2334 16.2028 26.3029 16.2028H27.9116C27.9811 16.2028 28.0384 16.1455 28.0384 16.076V14.6941C28.0384 14.6246 27.9811 14.5673 27.9116 14.5673H26.3029ZM30.7456 14.6941C30.7456 14.1541 31.1844 13.7153 31.7244 13.7153H33.3331C33.8731 13.7153 34.3119 14.1541 34.3119 14.6941V16.0761C34.3119 16.6161 33.8731 17.0548 33.3331 17.0548H31.7244C31.1844 17.0548 30.7456 16.6161 30.7456 16.0761V14.6941ZM31.7244 14.5673C31.6549 14.5673 31.5976 14.6247 31.5976 14.6941V16.0761C31.5976 16.1455 31.6549 16.2029 31.7244 16.2029H33.3331C33.4026 16.2029 33.4599 16.1455 33.4599 16.0761V14.6941C33.4599 14.6247 33.4026 14.5673 33.3331 14.5673H31.7244ZM36.1742 20.2005C36.1742 19.6605 36.613 19.2217 37.153 19.2217H38.7617C39.3017 19.2217 39.7405 19.6605 39.7405 20.2005V21.5825C39.7405 22.1225 39.3017 22.5612 38.7617 22.5612H37.153C36.613 22.5612 36.1742 22.1225 36.1742 21.5825V20.2005ZM37.153 20.0737C37.0835 20.0737 37.0262 20.1311 37.0262 20.2005V21.5825C37.0262 21.6519 37.0835 21.7092 37.153 21.7092H38.7617C38.8312 21.7092 38.8885 21.6519 38.8885 21.5825V20.2005C38.8885 20.131 38.8312 20.0737 38.7617 20.0737H37.153ZM30.7456 20.2006C30.7456 19.6605 31.1844 19.2218 31.7244 19.2218H33.3331C33.8731 19.2218 34.3119 19.6605 34.3119 20.2006V21.5825C34.3119 22.1225 33.8731 22.5613 33.3331 22.5613H31.7244C31.1844 22.5613 30.7456 22.1225 30.7456 21.5825V20.2006ZM31.7244 20.0738C31.6549 20.0738 31.5976 20.1311 31.5976 20.2006V21.5825C31.5976 21.652 31.6549 21.7093 31.7244 21.7093H33.3331C33.4026 21.7093 33.4599 21.652 33.4599 21.5825V20.2006C33.4599 20.1311 33.4026 20.0738 33.3331 20.0738H31.7244ZM30.7456 25.7141C30.7456 25.1741 31.1844 24.7354 31.7244 24.7354H33.3331C33.8731 24.7354 34.3119 25.1741 34.3119 25.7141V27.0961C34.3119 27.6361 33.8731 28.0749 33.3331 28.0749H31.7244C31.1844 28.0749 30.7456 27.6361 30.7456 27.0961V25.7141ZM31.7244 25.5874C31.6549 25.5874 31.5976 25.6447 31.5976 25.7141V27.0961C31.5976 27.1656 31.6549 27.2229 31.7244 27.2229H33.3331C33.4026 27.2229 33.4599 27.1656 33.4599 27.0961V25.7141C33.4599 25.6447 33.4026 25.5874 33.3331 25.5874H31.7244ZM16.4585 26.4722C16.4585 25.8613 16.9539 25.3659 17.5648 25.3659H20.3783C20.9864 25.3659 21.4733 25.864 21.4846 26.4642L21.4847 26.4722L21.4847 27.5636C21.4847 28.1745 20.9892 28.6699 20.3783 28.6699H17.5648C16.9539 28.6699 16.4585 28.1745 16.4585 27.5636V26.4722ZM17.5648 26.2179C17.4245 26.2179 17.3105 26.3319 17.3105 26.4722V27.5636C17.3105 27.7039 17.4245 27.8179 17.5648 27.8179H20.3783C20.5186 27.8179 20.6327 27.7039 20.6327 27.5636V26.4771C20.6282 26.3277 20.5063 26.2179 20.3783 26.2179H17.5648ZM8.93208 26.4726C8.93208 25.8618 9.42755 25.3663 10.0384 25.3663H12.8519C13.47 25.3663 13.9469 25.8674 13.9582 26.4646L13.9584 26.4726L13.9583 27.564C13.9583 28.1749 13.4628 28.6704 12.8519 28.6704H10.0384C9.42755 28.6704 8.93208 28.1749 8.93208 27.564V26.4726ZM10.0384 26.2183C9.89809 26.2183 9.78408 26.3323 9.78408 26.4726V27.564C9.78408 27.7044 9.89809 27.8184 10.0384 27.8184H12.8519C12.9923 27.8184 13.1063 27.7044 13.1063 27.564V26.4775C13.1018 26.3252 12.9842 26.2183 12.8519 26.2183H10.0384ZM43.0705 29.6899C43.3058 29.6899 43.4965 29.8807 43.4965 30.1159V33.2271C43.4965 38.0576 39.9553 42.0936 35.5371 42.0936H30.5345L33.3792 44.9385C33.5455 45.1049 33.5455 45.3746 33.3791 45.541C33.2128 45.7073 32.943 45.7073 32.7767 45.5409L29.2049 41.9688C29.0387 41.8026 29.0385 41.5331 29.2046 41.3667L32.7764 37.7881C32.9426 37.6215 33.2123 37.6213 33.3789 37.7875C33.5454 37.9537 33.5456 38.2234 33.3794 38.3899L30.5332 41.2416H35.5371C39.3965 41.2416 42.6445 37.6804 42.6445 33.2271V30.1159C42.6445 29.8807 42.8353 29.6899 43.0705 29.6899ZM8.93212 31.7592C8.93212 31.1483 9.42758 30.6528 10.0385 30.6528H12.852C13.47 30.6528 13.947 31.1539 13.9582 31.7511L13.9584 31.7592L13.9583 32.8505C13.9583 33.4614 13.4629 33.9569 12.852 33.9569H10.0385C9.42759 33.9569 8.93212 33.4614 8.93212 32.8505V31.7592ZM10.0385 31.5048C9.89814 31.5048 9.78412 31.6188 9.78412 31.7592V32.8505C9.78412 32.9909 9.89813 33.1049 10.0385 33.1049H12.852C12.9923 33.1049 13.1063 32.9909 13.1063 32.8505V31.764C13.1019 31.6117 12.9842 31.5048 12.852 31.5048H10.0385ZM16.4585 37.0456C16.4585 36.4347 16.954 35.9392 17.5648 35.9392H20.3784C20.9807 35.9392 21.4732 36.4245 21.4846 37.0304L21.4848 37.0385L21.4847 38.137C21.4847 38.7478 20.9892 39.2433 20.3784 39.2433H17.5648C16.954 39.2433 16.4585 38.7478 16.4585 38.137V37.0456ZM17.5648 36.7912C17.4245 36.7912 17.3105 36.9052 17.3105 37.0456V38.137C17.3105 38.2773 17.4245 38.3913 17.5648 38.3913H20.3784C20.5187 38.3913 20.6327 38.2773 20.6327 38.137V37.0434C20.6284 36.8997 20.512 36.7912 20.3784 36.7912H17.5648ZM8.93212 37.0457C8.93212 36.4349 9.42759 35.9394 10.0385 35.9394H12.852C13.4643 35.9394 13.9469 36.4275 13.9582 37.0306L13.9584 37.0387L13.9583 38.1371C13.9583 38.748 13.4629 39.2435 12.852 39.2435H10.0385C9.42759 39.2435 8.93212 38.748 8.93212 38.1371V37.0457ZM10.0385 36.7914C9.89813 36.7914 9.78412 36.9054 9.78412 37.0457V38.1371C9.78412 38.2775 9.89813 38.3915 10.0385 38.3915H12.852C12.9923 38.3915 13.1063 38.2775 13.1063 38.1371V37.0435C13.102 36.897 12.9899 36.7914 12.852 36.7914H10.0385ZM16.4585 42.3256C16.4585 41.7147 16.9539 41.2193 17.5648 41.2193H20.3783C20.9864 41.2193 21.4733 41.7174 21.4846 42.3176L21.4847 42.3256L21.4847 43.417C21.4847 44.0279 20.9892 44.5233 20.3783 44.5233H17.5648C16.9539 44.5233 16.4585 44.0279 16.4585 43.417V42.3256ZM17.5648 42.0713C17.4245 42.0713 17.3105 42.1853 17.3105 42.3256V43.417C17.3105 43.5573 17.4245 43.6713 17.5648 43.6713H20.3783C20.5186 43.6713 20.6327 43.5573 20.6327 43.417V42.3306C20.6282 42.1811 20.5063 42.0713 20.3783 42.0713H17.5648Z" fill="#1E1E1E"/>
</svg>
