<svg width="48" height="48" viewBox="0 0 48 48" fill="none" xmlns="http://www.w3.org/2000/svg">
<path fill-rule="evenodd" clip-rule="evenodd" d="M14.1989 5.62442C14.3246 5.55714 14.4756 5.55716 14.6012 5.62447L24 10.66L33.3988 5.62447C33.5245 5.55716 33.6755 5.55714 33.8011 5.62442L43.4011 10.7648C43.5396 10.839 43.6261 10.9834 43.626 11.1405L43.6234 21.4256C43.6233 21.5826 43.5369 21.7269 43.3985 21.801L34.0234 26.8238V36.8553C34.0234 37.0123 33.937 37.1566 33.7986 37.2307L24.2013 42.3754C24.0756 42.4428 23.9245 42.4428 23.7988 42.3754L14.2014 37.2307C14.063 37.1566 13.9767 37.0123 13.9767 36.8553V26.8238L4.6015 21.801C4.46311 21.7269 4.37672 21.5826 4.37668 21.4256L4.37402 11.1405C4.37398 10.9834 4.46042 10.839 4.59893 10.7648L14.1989 5.62442ZM14.8287 27.2774V36.6003L24 41.5166L33.1714 36.6003V27.2774L26.6207 30.787C26.4133 30.8981 26.1551 30.82 26.044 30.6127C25.9329 30.4053 26.011 30.1471 26.2184 30.036L32.6898 26.5689L24 21.9158L15.3103 26.5689L21.822 30.0576C22.0294 30.1687 22.1075 30.4269 21.9964 30.6343C21.8853 30.8417 21.6271 30.9197 21.4197 30.8086L14.8287 27.2774ZM33.1687 25.8528L33.1687 18.8358C33.1687 18.6006 33.3594 18.4098 33.5947 18.4098C33.83 18.4098 34.0207 18.6006 34.0207 18.8358L34.0207 25.8587L42.7714 21.1704L42.774 11.3955L33.6001 6.48323L24.8994 11.1447L31.3764 14.6147C31.5838 14.7258 31.6618 14.984 31.5507 15.1914C31.4396 15.3988 31.1814 15.4768 30.974 15.3657L24.4289 11.8591L24.4313 21.169L33.1687 25.8528ZM23.1006 11.1447L14.4 6.48323L5.22609 11.3955L5.22861 21.1704L13.9793 25.8587L13.9793 18.8358C13.9793 18.6006 14.1701 18.4098 14.4053 18.4098C14.6406 18.4098 14.8313 18.6006 14.8313 18.8358L14.8313 25.8528L23.5688 21.169L23.5712 11.8591L17.026 15.3657C16.8186 15.4768 16.5605 15.3988 16.4493 15.1914C16.3382 14.984 16.4163 14.7258 16.6237 14.6147L23.1006 11.1447Z" fill="#1E1E1E"/>
</svg>
