<svg width="48" height="48" viewBox="0 0 48 48" fill="none" xmlns="http://www.w3.org/2000/svg">
<path fill-rule="evenodd" clip-rule="evenodd" d="M4.00338 17.0204C3.24061 19.2058 2.826 21.5546 2.826 24.0002C2.826 24.8443 2.87539 25.6768 2.97143 26.4951L10.8105 20.6808C10.1801 19.9012 9.80256 18.9086 9.80256 17.8279C9.80256 17.7723 9.80356 17.717 9.80554 17.6619L4.00338 17.0204ZM4.31017 16.1971L9.91552 16.8169C10.3481 14.9146 11.975 13.4663 13.966 13.3025C13.9908 13.1331 14.0275 12.9053 14.0806 12.6199C14.2072 11.9391 14.4267 10.9312 14.7997 9.60978C15.1753 8.27884 15.776 6.67293 16.2788 5.40788C16.4822 4.89626 16.6704 4.4382 16.8227 4.07365C11.1125 6.13071 6.54113 10.5724 4.31017 16.1971ZM17.8068 3.93247C17.7779 4.00037 17.7457 4.07615 17.7108 4.15907C17.5466 4.54845 17.3201 5.09487 17.0706 5.72258C16.5702 6.98156 15.9829 8.55417 15.6196 9.84121C15.2537 11.1377 15.0401 12.1204 14.9182 12.7757C14.8785 12.9896 14.8485 13.1687 14.8261 13.3124C16.2305 13.4608 17.444 14.2494 18.1692 15.3809C18.229 15.3773 18.2985 15.3732 18.3772 15.3686C18.6713 15.3513 19.0925 15.3272 19.6017 15.2997C20.6197 15.2447 21.9898 15.1761 23.3971 15.1218C24.4639 15.0798 25.8985 15.1041 27.0588 15.1384C27.6406 15.1556 28.1564 15.1754 28.5267 15.1908C28.6191 15.1947 28.7025 15.1983 28.7757 15.2015C29.0324 14.3554 29.5295 13.6138 30.1875 13.0562C30.1503 13.0004 30.1075 12.9375 30.0591 12.8681C29.8332 12.5443 29.4841 12.0784 28.9969 11.52C28.0226 10.4031 26.4964 8.91654 24.2992 7.45591C22.7434 6.41871 21.023 5.49419 19.6877 4.8277C19.021 4.49493 18.4522 4.22745 18.0505 4.04334C17.9606 4.00213 17.8791 3.96511 17.8068 3.93247ZM30.8863 12.5685C31.5462 12.1946 32.3089 11.9812 33.1215 11.9812C33.4862 11.9812 33.8408 12.0242 34.1806 12.1053L33.5059 5.07485C30.6474 3.63627 27.4183 2.82624 24 2.82624C22.2146 2.82624 20.4809 3.0472 18.8247 3.46326C19.1757 3.62798 19.598 3.83072 20.0682 4.06537C21.4191 4.73966 23.1737 5.68167 24.7709 6.74638C27.0389 8.25407 28.6211 9.79315 29.639 10.9599C30.1479 11.5432 30.5158 12.0336 30.7579 12.3806C30.8055 12.4489 30.8483 12.5117 30.8863 12.5685ZM34.408 5.5566L35.0665 12.4176C36.6012 13.1462 37.6624 14.7102 37.6624 16.5221C37.6624 16.6414 37.6578 16.7596 37.6488 16.8766C37.8259 16.9278 38.0604 17.0029 38.3476 17.1104C39.0316 17.3665 40.0141 17.8064 41.2344 18.5463C42.6331 19.3934 43.7993 20.3136 44.6154 21.0214C44.7587 21.1456 44.8913 21.2634 45.0125 21.3732C44.1718 14.5792 40.1127 8.7828 34.408 5.5566ZM45.1322 22.66C45.0879 22.6157 45.0346 22.563 44.9726 22.5028C44.7621 22.2984 44.4522 22.0075 44.0572 21.665C43.2666 20.9794 42.1397 20.0906 40.793 19.2751C39.6183 18.5628 38.6834 18.1459 38.0489 17.9083C37.8303 17.8265 37.6473 17.7659 37.5022 17.7218C37.1874 18.8742 36.43 19.8438 35.424 20.4367C35.4189 20.5303 35.4115 20.6632 35.4022 20.8253C35.3833 21.1567 35.3565 21.6104 35.3254 22.0988C35.2635 23.0696 35.1832 24.1968 35.1111 24.7668C34.9931 25.7049 34.8575 26.727 34.7516 27.5142C34.6996 27.9 34.6548 28.2295 34.6225 28.4654C35.7473 28.8591 36.67 29.6831 37.1933 30.7399C37.2159 30.7324 37.2394 30.7246 37.2638 30.7163C37.5361 30.6246 37.9209 30.4874 38.368 30.3064C39.2657 29.9429 40.3981 29.4093 41.3735 28.7223C41.8589 28.3818 42.8218 27.676 43.667 27.0525C44.0886 26.7414 44.4796 26.4518 44.7653 26.24L45.0801 26.0063C45.1422 25.346 45.1739 24.6768 45.1739 24.0002C45.1739 23.55 45.1599 23.1032 45.1322 22.66ZM44.9379 27.1726C44.7096 27.3416 44.4477 27.5353 44.1728 27.7381C43.3299 28.3599 42.3589 29.0718 41.8634 29.4193C41.8631 29.4195 41.8636 29.4192 41.8634 29.4193C40.8133 30.1589 39.6147 30.7208 38.6877 31.0961C38.2223 31.2845 37.8212 31.4276 37.5358 31.5237C37.5229 31.5281 37.5103 31.5323 37.4978 31.5365C37.6051 31.9234 37.6624 32.3312 37.6624 32.7523C37.6624 35.2601 35.6294 37.2932 33.1215 37.2932C32.9684 37.2932 32.8171 37.2856 32.6679 37.2708C32.6583 37.2988 32.648 37.3283 32.6371 37.3593C32.5411 37.6308 32.3938 38.0122 32.1871 38.4581C31.7748 39.3475 31.1205 40.505 30.1549 41.5568C28.889 42.9354 27.1181 44.0392 25.6874 44.7923C25.4406 44.9223 25.2029 45.0423 24.9785 45.1519C35.1521 44.6891 43.4543 37.0469 44.9379 27.1726ZM22.8909 45.1456C22.9197 45.1344 22.9561 45.1201 22.9995 45.1027C23.1225 45.0536 23.302 44.9801 23.5254 44.8835C23.9725 44.6902 24.5942 44.405 25.2905 44.0384C26.6912 43.3011 28.3601 42.2518 29.5273 40.9806C30.4154 40.0132 31.0255 38.9381 31.4141 38.0997C31.6004 37.6979 31.7346 37.3532 31.8233 37.1049C29.948 36.5464 28.5807 34.809 28.5807 32.7523C28.5807 32.6061 28.5876 32.4615 28.6011 32.3189L22.9858 32.3243C22.7713 34.6326 20.829 36.4396 18.4646 36.4396C17.6541 36.4396 16.8932 36.2273 16.2345 35.8552C16.2076 36.0116 16.1772 36.1926 16.1446 36.3932C16.029 37.1047 15.8869 38.0603 15.7797 39.041C15.6353 40.3628 15.6007 41.533 15.6023 42.3723C15.6031 42.7917 15.6129 43.1278 15.6224 43.3582C15.6238 43.3925 15.6253 43.4245 15.6266 43.4541C17.8736 44.4225 20.3217 45.013 22.8909 45.1456ZM14.7598 43.0569C14.7546 42.8631 14.7508 42.6338 14.7503 42.3739C14.7487 41.5108 14.7842 40.3083 14.9327 38.9484C15.0421 37.9481 15.1866 36.9768 15.3036 36.2567C15.3621 35.8963 15.4138 35.5981 15.451 35.3897C15.4561 35.3609 15.461 35.3337 15.4656 35.3084C14.6553 34.5952 14.1014 33.5977 13.9596 32.4719L12.3773 32.5754C11.3042 32.6455 10.0774 32.7252 9.46517 32.7634C8.45499 32.8264 7.18092 32.9622 6.15462 33.083C5.67664 33.1393 5.25407 33.1921 4.93935 33.2324C7.01413 37.508 10.4852 40.9804 14.7598 43.0569ZM4.56685 32.4215C4.6258 32.4138 4.69203 32.4052 4.7648 32.3959C5.08754 32.3543 5.53918 32.2976 6.05499 32.2368C7.08451 32.1156 8.37751 31.9775 9.41202 31.9131C10.0228 31.8749 11.2484 31.7953 12.3218 31.7252L13.9322 31.6198C14.063 29.4598 15.7039 27.7074 17.8129 27.4043L15.8058 22.1282C15.3469 22.2842 14.8551 22.3688 14.3434 22.3688C13.226 22.3688 12.2028 21.9651 11.4117 21.2957L3.10655 27.4556C3.3914 29.191 3.88723 30.8554 4.56685 32.4215ZM16.5843 21.7783L18.7092 27.3643C19.481 27.4053 20.2017 27.639 20.8239 28.0181L20.8314 28.0123C20.9072 27.9538 21.0181 27.8676 21.1584 27.7575C21.439 27.5374 21.8367 27.2219 22.3041 26.8412C23.2398 26.0792 24.4513 25.0589 25.5624 24.0205C26.7608 22.8983 27.9756 21.7328 28.8912 20.8474C29.3346 20.4186 29.7077 20.0557 29.9745 19.7956C29.1153 18.9694 28.5807 17.8082 28.5807 16.5221C28.5807 16.3616 28.589 16.2031 28.6052 16.0469C28.5689 16.0454 28.5309 16.0438 28.4911 16.0421C28.1234 16.0267 27.6112 16.0071 27.0337 15.99C25.8754 15.9558 24.4659 15.9324 23.4307 15.9732C22.029 16.0272 20.6631 16.0956 19.6477 16.1504C19.2264 16.1732 18.8656 16.1936 18.5875 16.2097C18.7793 16.7124 18.8843 17.2579 18.8843 17.8279C18.8843 19.5209 17.9579 20.9974 16.5843 21.7783ZM30.6468 20.33C30.63 20.3464 30.6127 20.3632 30.5948 20.3806C30.3258 20.6431 29.9422 21.0163 29.4835 21.4599C28.5662 22.347 27.3477 23.5159 26.1447 24.6424C25.0137 25.6995 23.7854 26.7336 22.8421 27.5019C22.37 27.8863 21.9683 28.2051 21.6843 28.4278C21.6281 28.4719 21.5766 28.5122 21.53 28.5486C22.3385 29.2888 22.8782 30.3178 22.9858 31.4723L28.7652 31.4667C29.3196 29.5849 31.0602 28.2114 33.1215 28.2114C33.3489 28.2114 33.5723 28.2281 33.7906 28.2604C33.8215 28.0341 33.8616 27.739 33.9072 27.4006C34.013 26.6144 34.1482 25.595 34.2658 24.6604C34.3339 24.122 34.4128 23.0229 34.4751 22.0446C34.5043 21.5862 34.5297 21.1585 34.5483 20.8343C34.0996 20.9826 33.62 21.063 33.1215 21.063C32.2086 21.063 31.3587 20.7936 30.6468 20.33ZM17.4651 2.95982C19.5299 2.31925 21.7246 1.97424 24 1.97424C36.1646 1.97424 46.0259 11.8356 46.0259 24.0002C46.0259 36.1648 36.1646 46.0261 24 46.0261C11.8354 46.0261 1.974 36.1648 1.974 24.0002C1.974 14.1151 8.48578 5.75098 17.4537 2.96337C17.4575 2.96213 17.4613 2.96095 17.4651 2.95982ZM33.1215 12.8332C31.0842 12.8332 29.4327 14.4848 29.4327 16.5221C29.4327 18.5594 31.0842 20.211 33.1215 20.211C35.1589 20.211 36.8104 18.5594 36.8104 16.5221C36.8104 14.4848 35.1589 12.8332 33.1215 12.8332ZM14.3434 14.139C12.3061 14.139 10.6546 15.7906 10.6546 17.8279C10.6546 19.8652 12.3061 21.5168 14.3434 21.5168C16.3808 21.5168 18.0323 19.8652 18.0323 17.8279C18.0323 15.7906 16.3808 14.139 14.3434 14.139ZM18.4646 28.2098C16.4273 28.2098 14.7757 29.8614 14.7757 31.8987C14.7757 33.936 16.4273 35.5876 18.4646 35.5876C20.5019 35.5876 22.1535 33.936 22.1535 31.8987C22.1535 29.8614 20.5019 28.2098 18.4646 28.2098ZM33.1215 29.0634C31.0842 29.0634 29.4327 30.715 29.4327 32.7523C29.4327 34.7896 31.0842 36.4412 33.1215 36.4412C35.1589 36.4412 36.8104 34.7896 36.8104 32.7523C36.8104 30.715 35.1589 29.0634 33.1215 29.0634Z" fill="#1E1E1E"/>
</svg>
