<svg width="48" height="48" viewBox="0 0 48 48" fill="none" xmlns="http://www.w3.org/2000/svg">
<path fill-rule="evenodd" clip-rule="evenodd" d="M5.89038 7.62519C4.68031 7.62519 3.69935 8.60615 3.69935 9.81622V37.9386C3.69935 39.2832 4.78934 40.3731 6.13391 40.3731H41.864C43.2086 40.3731 44.2986 39.2832 44.2986 37.9386V12.6768C44.2986 11.3322 43.2086 10.2422 41.864 10.2422H23.6195C21.9908 10.2422 20.4499 9.50368 19.4298 8.23407C19.1204 7.84912 18.6532 7.62519 18.1594 7.62519H5.89038ZM2.84735 9.81622C2.84735 8.1356 4.20976 6.77319 5.89038 6.77319H18.1594C18.9114 6.77319 19.6229 7.11419 20.0939 7.7004C20.9524 8.76875 22.249 9.39022 23.6195 9.39022H41.864C43.6791 9.39022 45.1506 10.8617 45.1506 12.6768V37.9386C45.1506 39.7537 43.6791 41.2252 41.864 41.2252H6.13391C4.31879 41.2252 2.84735 39.7537 2.84735 37.9386V9.81622Z" fill="#1E1E1E"/>
<path d="M25.5715 16.4041V17.4889H27.0839V16.4041H27.9359V17.4889H29.4385V16.4041H30.2905V17.5473C30.8211 17.6961 31.2435 18.1155 31.3884 18.6498H32.5272V19.5018H31.4425V21.0531H32.5272V21.9051H31.4425V23.398H32.5272V24.25H31.4425V25.1641H30.5905V19.0577C30.5905 18.6662 30.2648 18.3409 29.8645 18.3409H18.0754C17.7116 18.3409 17.4168 18.6357 17.4168 18.9994V25.1641H16.5648V24.25H15.4801V23.398H16.5648V21.9051H15.4801V21.0531H16.5648V19.5018H15.4801V18.6498H16.6055C16.7305 18.122 17.1324 17.7014 17.6494 17.5498V16.4042H18.5014V17.4889H20.0526V16.4042H20.9046V17.4889H22.3976V16.4042H23.2496V17.4889H24.7195V16.4041H25.5715Z" fill="#1E1E1E"/>
<path d="M16.5648 25.1641V25.7199H15.48V26.5719H16.5648V28.0843H15.48V28.9363H16.5648V30.4389H15.48V31.2909H16.6439C16.804 31.7748 17.1932 32.1543 17.6831 32.301V33.5415H18.5351V32.3666H20.0864V33.5415H20.9384V32.3666H22.4313V33.5415H23.2833V32.3666H24.7532V33.5416H25.6052V32.3666H27.1176V33.5416H27.9696V32.3666H29.4722V33.5416H30.3242V32.301C30.8141 32.1543 31.2034 31.7748 31.3635 31.2909H32.5273V30.4389H31.4425V28.9363H32.5273V28.0843H31.4425V26.5719H32.5273V25.7199H31.4425V25.1641H30.5905V30.7978C30.5905 31.1937 30.2696 31.5146 29.8737 31.5146H18.1336C17.7377 31.5146 17.4168 31.1937 17.4168 30.7978V25.1641H16.5648Z" fill="#1E1E1E"/>
<path d="M19.0818 25.1641V28.3259C19.0818 29.1924 19.7842 29.8947 20.6506 29.8947H27.3567C28.2232 29.8947 28.9256 29.1924 28.9256 28.3259V25.1641H28.0736V28.3259C28.0736 28.7218 27.7526 29.0427 27.3567 29.0427H20.6506C20.2547 29.0427 19.9338 28.7218 19.9338 28.3259V25.1641H19.0818Z" fill="#1E1E1E"/>
<path d="M28.0736 25.1641V21.6198C28.0736 21.2239 27.7526 20.9029 27.3567 20.9029H20.6506C20.2547 20.9029 19.9338 21.2239 19.9338 21.6198V25.1641H19.0818V21.6198C19.0818 20.7533 19.7842 20.0509 20.6506 20.0509H27.3567C28.2232 20.0509 28.9256 20.7533 28.9256 21.6198V25.1641H28.0736Z" fill="#1E1E1E"/>
</svg>
