<svg width="48" height="48" viewBox="0 0 48 48" fill="none" xmlns="http://www.w3.org/2000/svg">
<path d="M12.2225 13.1659C10.6447 15.7028 9.75686 19.0209 9.25468 21.7481C8.8769 23.7997 8.71259 25.5467 8.64307 26.4106C8.1118 26.1634 7.40142 25.68 6.77512 24.9567C5.94571 23.9988 5.29452 22.6546 5.40167 20.9471L5.47891 19.7163L4.65846 20.637C3.69092 21.7227 2.62085 23.9618 2.38685 26.7403C2.15142 29.5359 2.76018 32.8965 5.1828 36.2107C6.98852 38.6796 10.7549 40.1713 14.5818 40.2453L14.5983 39.3935C10.9253 39.3224 7.46332 37.8854 5.87063 35.708C3.57915 32.5731 3.01617 29.4203 3.23585 26.8118C3.39681 24.9005 3.97682 23.2911 4.59901 22.1995C4.78962 23.5639 5.40521 24.6762 6.13101 25.5144C7.06302 26.5908 8.20794 27.2508 8.93134 27.4137L9.40446 27.5202L9.44913 27.0373C9.45251 27.0007 9.45721 26.938 9.4637 26.8511C9.51155 26.2115 9.65692 24.2685 10.0926 21.9024C10.5889 19.207 11.4536 16.0153 12.946 13.6158C14.2972 11.4421 15.6257 10.1794 16.6011 9.46381C16.8497 9.28141 17.0758 9.13426 17.274 9.01643C17.0556 9.63126 16.7696 10.4953 16.4927 11.5083C15.9353 13.5466 15.4052 16.221 15.5554 18.6904C15.7153 21.3578 16.4241 23.5563 17.0931 25.0886C17.4277 25.8551 17.753 26.4564 17.9961 26.868C18.1177 27.0738 18.2188 27.2324 18.2903 27.3407C18.3281 27.3979 18.3663 27.4548 18.4063 27.5104L18.5889 27.7616C18.8485 27.6779 19.0998 27.5911 19.3431 27.4655C19.6098 27.3279 19.9695 27.1097 20.3548 26.7826C21.129 26.1255 21.998 25.0359 22.426 23.3052C23.0021 20.9792 22.919 19.4437 22.7577 17.208C23.7559 18.6123 25.0495 20.9564 25.7852 23.7129C26.7493 27.3256 26.7402 31.5821 23.9262 35.3534C21.7774 38.2333 18.1292 39.4467 14.5983 39.3935L14.5818 40.2453C18.2918 40.3013 22.2475 39.028 24.6091 35.863C27.63 31.8143 27.6141 27.2615 26.6084 23.4932C25.6059 19.7369 23.6052 16.696 22.5443 15.588L21.7337 14.7414L21.8116 15.9109C21.8374 16.2987 21.8636 16.6614 21.8884 17.0044C22.0605 19.3871 22.1639 20.8195 21.599 23.1005C21.2187 24.6382 20.4574 25.578 19.8035 26.1331C19.4747 26.4121 19.1708 26.5957 18.9525 26.7084L18.91 26.7299C18.8584 26.6485 18.7977 26.5499 18.7297 26.4348C18.502 26.0491 18.193 25.4787 17.8739 24.7477C17.2353 23.2851 16.5584 21.1853 16.4059 18.6394C16.264 16.3075 16.7663 13.7379 17.3145 11.733C17.5875 10.7344 17.8696 9.88399 18.0832 9.28374C18.2918 8.6977 18.529 8.12456 18.7669 7.54998L18.7776 7.52393L17.9121 7.77275C17.6673 7.84831 14.9465 8.78351 12.2225 13.1659Z" fill="#1E1E1E"/>
<path fill-rule="evenodd" clip-rule="evenodd" d="M24.2413 13.1609H33.3953V20.6444H32.9693H28.3393L28.2327 20.3753C28.1714 20.2207 28.0263 19.8615 27.85 19.4249C27.5326 18.6394 27.1141 17.6034 26.901 17.0585C26.5797 16.2478 26.076 15.4516 25.6438 14.8501C25.4291 14.5512 25.2351 14.3045 25.0951 14.1331C25.0253 14.0475 24.969 13.9808 24.9307 13.936C24.9115 13.9136 24.8968 13.8967 24.8871 13.8857L24.8764 13.8735L24.874 13.8708L24.2413 13.1609ZM26.0845 14.0129C26.1637 14.1171 26.2481 14.2309 26.3358 14.353C26.7865 14.9803 27.3354 15.8416 27.6935 16.7458L27.6941 16.7474C27.9071 17.2918 28.315 18.3014 28.63 19.0811C28.7416 19.3574 28.8416 19.6047 28.9171 19.7924H32.5433V14.0129H26.0845ZM35.539 13.1609H45.7785V20.6444H35.539V13.1609ZM36.391 14.0129V19.7924H44.9265V14.0129H36.391ZM30.7704 23.1081H45.7851V30.6455H30.7704V23.1081ZM31.6224 23.9601V29.7935H44.9331V23.9601H31.6224ZM28.7617 32.8456H33.3953V40.248H32.9693H24.039L24.9146 39.4984C25.3893 39.0921 26.4577 38.127 27.3407 36.6704L27.3415 36.6691C27.6985 36.0848 28.0326 35.219 28.2817 34.4751C28.4047 34.1079 28.5042 33.779 28.5729 33.5419C28.6073 33.4235 28.6339 33.3282 28.6518 33.2629L28.672 33.1883L28.677 33.1695L28.6782 33.165L28.7617 32.8456ZM29.4147 33.6976C29.4073 33.7235 29.3995 33.7507 29.3912 33.7792C29.3201 34.0246 29.2171 34.365 29.0896 34.7457C28.8378 35.4974 28.4792 36.441 28.0689 37.1127C27.4796 38.0845 26.8156 38.851 26.2759 39.396H32.5433V33.6976H29.4147ZM35.3689 32.8456H45.785V40.248H35.3689V32.8456ZM36.2209 33.6976V39.396H44.933V33.6976H36.2209Z" fill="#1E1E1E"/>
</svg>
