<svg width="48" height="48" viewBox="0 0 48 48" fill="none" xmlns="http://www.w3.org/2000/svg">
<path fill-rule="evenodd" clip-rule="evenodd" d="M6.74347 10.2705C7.21025 10.0769 7.72173 9.97032 8.25705 9.97032C8.79236 9.97032 9.30385 10.0769 9.77062 10.2705L10.1641 10.4337L9.83776 11.2207L9.44426 11.0575C9.07912 10.9061 8.67841 10.8223 8.25705 10.8223C7.83569 10.8223 7.43497 10.9061 7.06984 11.0575L6.67633 11.2207L6.34997 10.4337L6.74347 10.2705ZM11.7475 12.017L11.9106 12.4105C12.1042 12.8773 12.2108 13.3888 12.2108 13.9241C12.2108 14.4594 12.1042 14.9709 11.9106 15.4377L11.7475 15.8312L10.9604 15.5048L11.1236 15.1113C11.275 14.7462 11.3588 14.3455 11.3588 13.9241C11.3588 13.5027 11.275 13.102 11.1236 12.7369L10.9604 12.3434L11.7475 12.017ZM5.55364 12.3434L5.39046 12.7369C5.23905 13.102 5.15527 13.5027 5.15527 13.9241C5.15527 14.3455 5.23905 14.7462 5.39046 15.1113L5.55364 15.5048L4.76663 15.8312L4.60345 15.4377C4.40989 14.9709 4.30327 14.4594 4.30327 13.9241C4.30327 13.3888 4.40989 12.8773 4.60345 12.4105L4.76663 12.017L5.55364 12.3434ZM6.67633 16.6275L7.06984 16.7907C7.43497 16.9421 7.83569 17.0259 8.25705 17.0259C8.67841 17.0259 9.07912 16.9421 9.44426 16.7907L9.83776 16.6275L10.1641 17.4145L9.77062 17.5777C9.30385 17.7713 8.79236 17.8779 8.25705 17.8779C7.72173 17.8779 7.21025 17.7713 6.74347 17.5777L6.34997 17.4145L6.67633 16.6275Z" fill="#1E1E1E"/>
<path fill-rule="evenodd" clip-rule="evenodd" d="M25.1548 8.83186L26.0104 12.3976L25.1819 12.5964L24.7682 10.8722L24.2787 11.5724L23.5804 11.0843L25.1548 8.83186ZM23.1911 13.1285L21.1274 16.0812L20.429 15.5931L22.4928 12.6404L23.1911 13.1285ZM26.8822 16.0307L27.6163 19.0899L26.7878 19.2888L26.0537 16.2295L26.8822 16.0307ZM20.0398 17.6372L18.7638 19.4627L18.0655 18.9746L19.3414 17.1491L20.0398 17.6372ZM12.334 17.5209L14.0621 19.1761L13.4728 19.7914L12.5768 18.9332L11.6399 20.7939L10.8789 20.4107L12.334 17.5209ZM15.4557 20.5108L16.4161 21.4305L16.839 20.8507L17.5274 21.3528L16.5303 22.7197L14.8664 21.1261L15.4557 20.5108ZM10.0142 24.0225L9.12916 25.7801H11.0151V26.6321H7.74624L9.25322 23.6393L10.0142 24.0225ZM14.4659 25.7801H17.4694V26.6321H14.4659V25.7801Z" fill="#1E1E1E"/>
<path fill-rule="evenodd" clip-rule="evenodd" d="M22.8258 23.1043C21.1127 23.1043 19.724 24.493 19.724 26.2061C19.724 27.9191 21.1127 29.3078 22.8258 29.3078C24.5389 29.3078 25.9276 27.9191 25.9276 26.2061C25.9276 24.493 24.5389 23.1043 22.8258 23.1043ZM18.872 26.2061C18.872 24.0224 20.6422 22.2523 22.8258 22.2523C25.0094 22.2523 26.7796 24.0224 26.7796 26.2061C26.7796 28.3897 25.0094 30.1598 22.8258 30.1598C20.6422 30.1598 18.872 28.3897 18.872 26.2061Z" fill="#1E1E1E"/>
<path fill-rule="evenodd" clip-rule="evenodd" d="M39.7201 21.1157L44.0927 38.9141H22.3164L26.9042 29.8029L30.9779 33.7045L39.7201 21.1157ZM39.3431 23.1523L31.1088 35.0096L27.147 31.2151L23.6993 38.0621H43.006L39.3431 23.1523Z" fill="#1E1E1E"/>
<path fill-rule="evenodd" clip-rule="evenodd" d="M2.35809 7.14209H31.3264V18.7588H45.6423V40.8584H16.674V29.2417H2.35809V7.14209ZM16.674 28.3897V18.7588H30.4744V7.99409H3.21009V28.3897H16.674ZM17.526 19.6108V40.0064H44.7903V19.6108H17.526Z" fill="#1E1E1E"/>
</svg>
