<svg width="48" height="48" viewBox="0 0 48 48" fill="none" xmlns="http://www.w3.org/2000/svg">
<path fill-rule="evenodd" clip-rule="evenodd" d="M6.53689 11.2386C7.15635 19.0393 8.2736 25.4467 10.8308 30.6227C13.405 35.833 17.4525 39.8229 24.0003 42.7125C30.548 39.8229 34.5956 35.833 37.1697 30.6227C39.7268 25.4469 40.8441 19.0399 41.4635 11.2397C36.1337 11.1586 31.9213 9.67961 28.9373 8.20147C27.403 7.44148 26.194 6.68195 25.328 6.11545C25.1597 6.00536 25.0068 5.90417 24.8677 5.81214C24.6442 5.66428 24.4564 5.54006 24.2981 5.44049C24.1706 5.36034 24.0755 5.30478 24.0068 5.27031C24.0022 5.26802 23.9979 5.2659 23.9939 5.26394C23.9842 5.268 23.9732 5.27273 23.961 5.27823C23.8793 5.3149 23.7674 5.37259 23.6211 5.45306C23.4123 5.56799 23.1544 5.71767 22.8449 5.89723C22.7206 5.96939 22.5879 6.04638 22.4468 6.12788C21.4695 6.69214 20.1269 7.44862 18.5062 8.2057C15.3718 9.66987 11.1775 11.146 6.53689 11.2386ZM24.0508 5.24309C24.0508 5.24313 24.0497 5.24342 24.0478 5.24385L24.0508 5.24309ZM23.7844 4.43347C23.8352 4.41733 23.9132 4.39624 24.0003 4.39624C24.1564 4.39624 24.3045 4.46646 24.3889 4.50882C24.4952 4.56217 24.6183 4.63541 24.7515 4.71918C24.9173 4.8234 25.1197 4.95731 25.3512 5.11044C25.4892 5.20169 25.6374 5.29977 25.7944 5.40246C26.6467 5.96002 27.8241 6.69925 29.3154 7.438C32.2973 8.91507 36.5367 10.3912 41.9238 10.3912H42.3836L42.3485 10.8497C41.7346 18.8783 40.616 25.5707 37.9336 31C35.2411 36.45 30.9877 40.599 24.1704 43.5683L24.0003 43.6423L23.8302 43.5683C17.0129 40.599 12.7594 36.45 10.0669 31C7.38457 25.5707 6.26588 18.8783 5.652 10.8497L5.61694 10.3912H6.07676C10.7267 10.3912 14.9665 8.91886 18.1456 7.43377C19.7333 6.69211 21.0512 5.94983 22.0207 5.39004C22.1558 5.31204 22.285 5.2371 22.4075 5.16596C22.7215 4.98378 22.9925 4.82653 23.2104 4.70662C23.362 4.62316 23.4982 4.55205 23.6122 4.50091C23.6692 4.47533 23.7277 4.45153 23.7844 4.43347ZM16.5859 17.102H21.5403V19.1532H26.4602V17.102H31.4147V22.0564H29.3634V25.9665H31.4147V30.9209H26.4602V28.8697H21.5403V30.9209H16.5859V25.9665H18.6371V22.0564H16.5859V17.102ZM19.4891 22.0564V25.9665H21.5403V28.0177H26.4602V25.9665H28.5114V22.0564H26.4602V20.0052H21.5403V22.0564H19.4891ZM17.4379 17.954V21.2045H20.6883V17.954H17.4379ZM27.3122 17.954V21.2045H30.5627V17.954H27.3122ZM17.4379 26.8185V30.0689H20.6883V26.8185H17.4379ZM27.3122 26.8185V30.0689H30.5627V26.8185H27.3122Z" fill="#1E1E1E"/>
</svg>
