<svg width="14" height="14" viewBox="0 0 14 14" fill="none" xmlns="http://www.w3.org/2000/svg">
<g clip-path="url(#clip0_1524_22)">
<path d="M5.57762 11.9212C4.95079 11.3432 4.76779 10.1287 5.02895 9.24893C5.4818 9.80355 6.10919 9.97936 6.75909 10.0784C7.76241 10.2316 8.74768 10.1743 9.67968 9.71175C9.78632 9.65887 9.88485 9.58831 10.0013 9.51705C10.0888 9.77291 10.1116 10.0313 10.081 10.2943C10.0068 10.9347 9.69076 11.4295 9.18824 11.8045C8.98728 11.9545 8.77462 12.0886 8.56709 12.2301C7.92947 12.6647 7.757 13.1744 7.99659 13.9159C8.00226 13.934 8.00733 13.952 8.02022 13.9961C7.69469 13.8492 7.4569 13.6351 7.2757 13.3538C7.08436 13.0568 6.99331 12.7283 6.9885 12.373C6.98609 12.2 6.98609 12.0254 6.96306 11.855C6.90677 11.4393 6.71328 11.2531 6.34878 11.2424C5.97474 11.2315 5.67886 11.4646 5.60039 11.832C5.59438 11.8602 5.5863 11.8884 5.57762 11.9212Z" fill="url(#paint0_linear_1524_22)"/>
<path d="M2 9.10221C2 9.10221 3.85612 8.19022 5.71744 8.19022L7.1208 3.80913C7.17339 3.59722 7.32679 3.45328 7.49996 3.45328C7.67312 3.45328 7.82656 3.59722 7.87911 3.80913L9.28247 8.19022C11.4869 8.19022 13 9.10217 13 9.10217C13 9.10217 9.84713 0.438508 9.84098 0.421127C9.75049 0.164966 9.59778 0 9.39178 0H5.60852C5.40257 0 5.256 0.164966 5.15932 0.421127C5.15249 0.438161 2 9.10221 2 9.10221Z" fill="#FAFAFA"/>
</g>
<defs>
<linearGradient id="paint0_linear_1524_22" x1="4.91377" y1="13.5816" x2="10.7919" y2="10.8283" gradientUnits="userSpaceOnUse">
<stop stop-color="#D83333"/>
<stop offset="1" stop-color="#F041FF"/>
</linearGradient>
<clipPath id="clip0_1524_22">
<rect width="11" height="14" fill="white" transform="translate(2)"/>
</clipPath>
</defs>
</svg>
