<svg width="14" height="14" viewBox="0 0 14 14" fill="none" xmlns="http://www.w3.org/2000/svg">
<path d="M0.454345 1.00004C0.388876 0.999165 0.324015 1.0131 0.264317 1.04087C0.20462 1.06864 0.151534 1.10957 0.108787 1.16078C0.0660403 1.212 0.0346695 1.27226 0.0168777 1.33732C-0.000914022 1.40239 -0.00469524 1.47069 0.00579962 1.53743L1.90996 13.4742C1.93368 13.6203 2.00648 13.7531 2.11559 13.8492C2.22469 13.9454 2.36311 13.9987 2.50654 14H11.6415C11.749 14.0014 11.8535 13.9629 11.9358 13.8915C12.0181 13.8201 12.0728 13.7205 12.09 13.6109L13.9942 1.53975C14.0047 1.47301 14.0009 1.40472 13.9831 1.33966C13.9653 1.2746 13.9339 1.21436 13.8912 1.16315C13.8484 1.11195 13.7953 1.07104 13.7356 1.04328C13.6759 1.01552 13.6111 1.00159 13.5456 1.00247L0.454345 1.00004ZM8.47238 9.62724H5.55673L4.76726 5.36808H9.17889L8.47238 9.62724Z" fill="#2684FF"/>
<path d="M13.3771 5.36209H9.17074L8.46478 9.61786H5.55148L2.11154 13.8343C2.22055 13.9316 2.35957 13.9858 2.5037 13.987H11.6336C11.7411 13.9884 11.8454 13.9499 11.9277 13.8786C12.01 13.8072 12.0647 13.7077 12.0819 13.5982L13.3771 5.36209Z" fill="url(#paint0_linear_1536_62)"/>
<defs>
<linearGradient id="paint0_linear_1536_62" x1="14.3496" y1="6.55388" x2="9.27976" y2="13.5249" gradientUnits="userSpaceOnUse">
<stop offset="0.18" stop-color="#0052CC"/>
<stop offset="1" stop-color="#2684FF"/>
</linearGradient>
</defs>
</svg>
