<svg width="14" height="14" viewBox="0 0 14 14" fill="none" xmlns="http://www.w3.org/2000/svg">
<path d="M6.99992 13L9.57771 5.61796H4.42241L6.99992 13Z" fill="#E24329"/>
<path d="M6.99992 13L4.42241 5.61796H0.809856L6.99992 13Z" fill="#FC6D26"/>
<path d="M0.809856 5.61796L0.0262666 7.86123C-0.0453119 8.06575 0.0327176 8.28997 0.219933 8.41642L6.99992 13L0.809856 5.61796Z" fill="#FCA326"/>
<path d="M0.809856 5.61796H4.42241L2.86978 1.17154C2.7899 0.942821 2.44189 0.942821 2.36214 1.17154L0.809856 5.61796Z" fill="#E24329"/>
<path d="M6.99992 13L9.57771 5.61796H13.1905L6.99992 13Z" fill="#FC6D26"/>
<path d="M13.1905 5.61796L13.9738 7.86123C14.0453 8.06575 13.967 8.28997 13.78 8.41642L6.99992 13L13.1905 5.61796Z" fill="#FCA326"/>
<path d="M13.1905 5.61796H9.57771L11.1303 1.17154C11.2102 0.942886 11.5582 0.942886 11.6379 1.17154L13.1905 5.61796Z" fill="#E24329"/>
</svg>
