<svg width="14" height="14" viewBox="0 0 14 14" fill="none" xmlns="http://www.w3.org/2000/svg">
<path opacity="0.987" fill-rule="evenodd" clip-rule="evenodd" d="M6.30787 0.92837C6.94225 0.857495 7.31762 0.857495 7.99925 0.92837C9.20582 1.10695 10.3243 1.66467 11.193 2.52087C10.606 3.07574 10.0267 3.63871 9.45525 4.20962C8.36091 3.28212 7.13941 3.06804 5.79075 3.56737C4.80141 4.02237 4.1125 4.7597 3.724 5.77937C3.08913 5.30672 2.46254 4.82306 1.8445 4.32862C1.80155 4.30601 1.75249 4.29773 1.7045 4.30499C2.68625 2.41208 4.22042 1.28624 6.307 0.927495" fill="#F44336"/>
<path opacity="0.997" fill-rule="evenodd" clip-rule="evenodd" d="M1.70275 4.30501C1.75233 4.29742 1.79929 4.3053 1.84362 4.32863C2.46166 4.82308 3.08826 5.30673 3.72312 5.77938C3.62322 6.17668 3.56025 6.58236 3.535 6.99126C3.55658 7.38676 3.61929 7.77496 3.72312 8.15588L1.75 9.72651C0.890749 7.93101 0.874999 6.12384 1.70275 4.30501Z" fill="#FFC107"/>
<path opacity="0.999" fill-rule="evenodd" clip-rule="evenodd" d="M11.0994 11.6287C10.485 11.0869 9.84182 10.5787 9.17263 10.1062C9.84346 9.63257 10.2506 8.98274 10.3941 8.15674H7.10675V5.87386C9.00258 5.85811 10.8975 5.87416 12.7916 5.92199C13.151 7.87324 12.7359 9.63257 11.5465 11.2C11.4051 11.3503 11.2553 11.4934 11.0994 11.6287Z" fill="#448AFF"/>
<path opacity="0.993" fill-rule="evenodd" clip-rule="evenodd" d="M3.72313 8.15674C4.44063 9.93999 5.75604 10.7724 7.66938 10.654C8.20648 10.5918 8.72143 10.4042 9.17263 10.1062C9.84229 10.5799 10.4845 11.0874 11.0994 11.6287C10.1252 12.5041 8.8831 13.0236 7.57575 13.1022C7.27872 13.126 6.98028 13.126 6.68325 13.1022C4.45608 12.8397 2.81167 11.7145 1.75 9.72649L3.72313 8.15674Z" fill="#43A047"/>
</svg>
