<svg width="14" height="14" viewBox="0 0 14 14" fill="none" xmlns="http://www.w3.org/2000/svg">
<path d="M1 1H13V13H1V1Z" fill="#F0DB4F"/>
<path d="M12.0179 10.138C11.93 9.59052 11.573 9.13069 10.5156 8.70191C10.1483 8.53311 9.73878 8.41223 9.61676 8.13386C9.57343 7.97186 9.56768 7.8806 9.59509 7.78254C9.67379 7.46429 10.0537 7.36508 10.3548 7.45633C10.5487 7.52132 10.7323 7.67077 10.843 7.90917C11.3608 7.57385 11.3598 7.57606 11.7213 7.34562C11.589 7.14038 11.5183 7.04568 11.4317 6.95787C11.1202 6.61 10.6958 6.43084 10.0172 6.44455L9.66363 6.49027C9.32487 6.57588 9.00201 6.75369 8.81269 6.99209C8.24463 7.63664 8.40663 8.7647 9.09787 9.22894C9.77885 9.74006 10.7792 9.85633 10.907 10.3343C11.0313 10.9194 10.477 11.1088 9.926 11.0415C9.51994 10.9571 9.2941 10.7507 9.04994 10.3754C8.60056 10.6355 8.60056 10.6355 8.13852 10.9012C8.24808 11.1407 8.36321 11.2492 8.54688 11.4567C9.41612 12.3384 11.5914 12.2951 11.9815 10.9605C11.9973 10.9147 12.1024 10.6091 12.0179 10.138ZM7.52358 6.5152H6.40117L6.39657 9.41701C6.39657 10.0341 6.42849 10.5999 6.32812 10.7733C6.16392 11.1144 5.7384 11.0721 5.54448 11.006C5.34711 10.909 5.24674 10.771 5.13046 10.576C5.09854 10.5201 5.07458 10.4767 5.06653 10.4734L4.15395 11.0322C4.30569 11.3437 4.52924 11.614 4.81557 11.7896C5.24329 12.0463 5.81816 12.125 6.41938 11.987C6.81068 11.873 7.14829 11.6369 7.32506 11.2775C7.58062 10.8064 7.52579 10.2361 7.52349 9.60538C7.52924 8.57634 7.52358 7.54749 7.52358 6.5152Z" fill="#323330"/>
</svg>
