<svg width="14" height="14" viewBox="0 0 14 14" fill="none" xmlns="http://www.w3.org/2000/svg">
<path d="M7.83989 12H13.0198C13.1854 12 13.3438 11.9438 13.4866 11.8647C13.6295 11.7856 13.7775 11.6867 13.8601 11.5498C13.9427 11.4129 14 11.2577 14 11.1C14 10.9424 13.9427 10.7867 13.8601 10.6499L10.3601 4.84516C10.2775 4.70837 10.1764 4.60891 10.0331 4.52971C9.88958 4.4505 9.68527 4.39481 9.51956 4.39481C9.35397 4.39481 9.19614 4.45103 9.0533 4.52971C8.91045 4.60839 8.80917 4.70826 8.72659 4.84516L7.83978 6.33015L6.06648 3.44972C5.98391 3.31292 5.88273 3.16917 5.73989 3.09007C5.59705 3.01097 5.43856 3 5.27297 3C5.10737 3 4.94955 3.01097 4.80659 3.09007C4.66375 3.16917 4.51566 3.31292 4.43308 3.44972L0.0934062 10.6497C0.0108281 10.7865 0 10.9418 0 11.1C0 11.2582 0.0108281 11.4129 0.0934062 11.5497C0.175875 11.6864 0.323422 11.7859 0.466922 11.8646C0.610313 11.9434 0.768141 12 0.933297 12H4.2C5.49445 12 6.43661 11.44 7.0933 10.3796L8.67978 7.72496L9.51956 6.33004L12.0864 10.5597H8.67989L7.83989 12ZM4.15297 10.5596H1.86659L5.2733 4.88967L7 7.72507L5.85627 9.64743C5.4203 10.3354 4.92297 10.5597 4.15308 10.5597L4.15297 10.5596Z" fill="#00DC82"/>
</svg>
