<svg width="14" height="14" viewBox="0 0 14 14" fill="none" xmlns="http://www.w3.org/2000/svg">
<path d="M7 5.07899C10.722 5.07899 13 6.32284 13 7C13 7.67716 10.722 8.92101 7 8.92101C3.278 8.92101 1 7.67716 1 7C1 6.32284 3.278 5.07899 7 5.07899ZM7 4.11848C3.134 4.11848 0 5.40844 0 7C0 8.59156 3.134 9.88152 7 9.88152C10.866 9.88152 14 8.59156 14 7C14 5.40844 10.866 4.11848 7 4.11848Z" fill="#00BCD4"/>
<path d="M7 6.03949C6.80222 6.03949 6.60888 6.09583 6.44443 6.20137C6.27998 6.30691 6.15181 6.45692 6.07612 6.63243C6.00043 6.80794 5.98063 7.00106 6.01922 7.18738C6.0578 7.3737 6.15304 7.54485 6.29289 7.67918C6.43275 7.81351 6.61093 7.90499 6.80491 7.94205C6.99889 7.97911 7.19996 7.96009 7.38268 7.88739C7.56541 7.81469 7.72159 7.69158 7.83147 7.53363C7.94135 7.37567 8 7.18997 8 7C8 6.74526 7.89464 6.50095 7.70711 6.32082C7.51957 6.14069 7.26522 6.03949 7 6.03949Z" fill="#00BCD4"/>
<path d="M4.22901 1.9607C5.23751 1.9607 7.19751 3.48647 8.73201 6.03949C10.593 9.13569 10.6105 11.6522 10 11.9908C9.92958 12.0259 9.85075 12.0424 9.77151 12.0388C8.76301 12.0388 6.80251 10.5135 5.26801 7.96051C3.40701 4.86432 3.38951 2.34779 4.00001 2.00921C4.07058 1.97405 4.1496 1.957 4.22901 1.9607ZM4.22851 1.00068C3.97369 0.996249 3.72224 1.05709 3.50001 1.17693C2.06501 1.97271 2.46901 5.22499 4.40201 8.44076C6.04401 11.1734 8.26201 12.9998 9.77201 12.9998C10.0267 13.0039 10.278 12.9427 10.5 12.8226C11.935 12.0273 11.531 8.77502 9.59801 5.55924C7.95601 2.8266 5.73851 1.00068 4.22851 1.00068Z" fill="#00BCD4"/>
<path d="M9.77148 1.9607C9.85073 1.95709 9.92956 1.97365 9.99998 2.00873C10.6105 2.34779 10.593 4.86431 8.73199 7.96051C7.19699 10.5135 5.23699 12.0393 4.22849 12.0393C4.14924 12.0429 4.07041 12.0263 3.99999 11.9913C3.38949 11.6517 3.40699 9.13521 5.26799 6.03949C6.80299 3.48647 8.76298 1.9607 9.77148 1.9607ZM9.77148 1.0002C8.26148 1.0002 6.04399 2.82708 4.40149 5.55924C2.46949 8.77502 2.06499 12.0273 3.49999 12.8226C3.72212 12.9428 3.97357 13.0039 4.22849 12.9998C5.73849 12.9998 7.95599 11.1729 9.59849 8.44076C11.5305 5.22498 11.935 1.97271 10.5 1.17741C10.2779 1.05723 10.0264 0.996061 9.77148 1.0002Z" fill="#00BCD4"/>
</svg>
