<svg width="14" height="14" viewBox="0 0 14 14" fill="none" xmlns="http://www.w3.org/2000/svg">
<path d="M5.75263 0.198574C5.22415 0.463307 4.11016 0.978816 3.50657 1.39002C2.90298 1.80123 2.97809 2.18437 2.71387 2.44915C2.44966 2.71393 1.65696 3.37587 1.12848 3.77301C0.599997 4.17016 0.73208 5.22929 0.599997 5.62644C0.467915 6.02359 0.203649 6.95031 0.0715665 7.34751C-0.0605158 7.7447 0.335782 8.27422 0.600048 8.80373C0.864263 9.3333 1.52483 10.7896 1.78909 11.3191C2.05331 11.8487 2.84601 11.5839 3.50662 12.1134C4.16724 12.643 5.09201 13.305 5.75263 13.7021C6.41319 14.0993 6.67746 14.0993 7.33802 13.7021C7.99864 13.305 8.92342 12.643 9.58408 12.1134C10.2446 11.5839 11.0373 11.8487 11.3016 11.3191C11.5658 10.7896 12.2264 9.3333 12.4907 8.80379C12.7549 8.27422 13.1512 7.74465 13.0191 7.34751C12.887 6.95036 12.6228 6.02359 12.4907 5.62644C12.3585 5.22929 12.4907 4.17016 11.9622 3.77301C11.4337 3.37587 10.8203 2.87016 10.3768 2.44915C9.9333 2.02814 10.1125 1.78722 9.58408 1.39002C9.0556 0.992872 7.8665 0.463307 7.33802 0.198574C6.80956 -0.0661915 6.28109 -0.0661915 5.75263 0.198574Z" fill="white"/>
<path d="M3.88639 2.49328L6.35914 4.17379C6.41488 4.21073 6.48008 4.23099 6.54703 4.23219C6.61409 4.23167 6.67948 4.21134 6.73492 4.17379L9.2095 2.48761C9.25685 2.45375 9.29458 2.40826 9.31904 2.35557C9.34349 2.30288 9.35383 2.24478 9.34904 2.18693C9.34442 2.12911 9.32481 2.07347 9.29213 2.02546C9.25944 1.97744 9.2148 1.93869 9.16257 1.913L6.68983 0.694048C6.64356 0.671713 6.59281 0.66011 6.54139 0.66011C6.48998 0.66011 6.43923 0.671713 6.39296 0.694048L3.92773 1.91305C3.87459 1.93886 3.82922 1.97815 3.79617 2.02697C3.76312 2.07578 3.74357 2.1324 3.73948 2.19113C3.73524 2.24989 3.74657 2.30873 3.77235 2.36176C3.79814 2.41479 3.83746 2.46014 3.88639 2.49328ZM7.3869 4.70128C7.38693 4.75608 7.40028 4.81006 7.4258 4.85861C7.45132 4.90717 7.48826 4.94885 7.53346 4.98012L9.51581 6.32906C9.57738 6.37138 9.65149 6.39179 9.72615 6.38701C9.80082 6.38222 9.87168 6.3525 9.92729 6.30267L11.5902 4.82187C11.6269 4.78919 11.6559 4.74893 11.6753 4.7039C11.6947 4.65887 11.704 4.61016 11.7026 4.56118C11.7012 4.51221 11.689 4.46414 11.667 4.42032C11.645 4.3765 11.6137 4.33801 11.5751 4.30752L9.98742 3.04342C9.93132 2.99893 9.8624 2.97347 9.79074 2.97076C9.71907 2.96805 9.64841 2.98823 9.58909 3.02835L7.53346 4.42816C7.48904 4.45887 7.45258 4.49966 7.4271 4.54715C7.40162 4.59465 7.38784 4.64744 7.3869 4.70128ZM2.45654 6.53631C2.49608 6.57179 2.5267 6.61602 2.54594 6.66543C2.56519 6.71484 2.57252 6.76806 2.56735 6.82081C2.56231 6.87378 2.54448 6.92476 2.51536 6.96938C2.48624 7.014 2.4467 7.05094 2.40012 7.07705L1.21641 7.78352C1.15785 7.81838 1.08998 7.83458 1.02191 7.82995C0.953838 7.82532 0.888813 7.80009 0.83555 7.75763C0.782114 7.71491 0.742882 7.65711 0.722993 7.59181C0.703104 7.52652 0.703485 7.45676 0.724085 7.39168L1.16187 6.02014C1.17861 5.96677 1.20854 5.91845 1.24892 5.87961C1.2893 5.84076 1.33884 5.81264 1.39298 5.79783C1.44692 5.78218 1.50401 5.78073 1.55868 5.7936C1.61336 5.80648 1.66374 5.83324 1.70493 5.87129L2.45654 6.53631ZM8.87693 6.67949L6.7368 5.22134C6.68128 5.18409 6.61586 5.16418 6.54891 5.16418C6.48196 5.16418 6.41653 5.18409 6.36102 5.22134L4.22084 6.67949C4.17872 6.70858 4.14369 6.74669 4.11833 6.79104C4.09297 6.83538 4.07792 6.88483 4.07428 6.93573C4.07151 6.98702 4.08019 7.03828 4.09968 7.08584C4.11917 7.13339 4.149 7.17606 4.18702 7.21078L6.32532 9.11547C6.38683 9.17016 6.46644 9.20035 6.54891 9.20026C6.63135 9.20021 6.71091 9.17004 6.7725 9.11547L8.91075 7.21078C8.94887 7.17622 8.97864 7.13353 8.99783 7.0859C9.01703 7.03827 9.02516 6.98693 9.02161 6.93573C9.01874 6.88486 9.00421 6.83531 8.97913 6.7909C8.95405 6.74648 8.91909 6.70837 8.87693 6.67949ZM3.1686 6.30272L1.50769 4.82187C1.4707 4.78836 1.44146 4.74725 1.422 4.70138C1.40253 4.65552 1.39331 4.60599 1.39496 4.55623C1.39579 4.50722 1.4075 4.459 1.42926 4.41503C1.45101 4.37106 1.48227 4.33243 1.52079 4.30191L3.10852 3.03022C3.16506 2.98588 3.23427 2.96054 3.30619 2.95783C3.37811 2.95512 3.44904 2.97519 3.50878 3.01516L5.56248 4.41491C5.60951 4.4457 5.6481 4.48765 5.67479 4.53699C5.70147 4.58633 5.7154 4.6415 5.71533 4.69754C5.7154 4.75357 5.70146 4.80873 5.67478 4.85806C5.64809 4.90739 5.6095 4.94934 5.56248 4.98012L3.58201 6.32906C3.52003 6.37121 3.44567 6.39151 3.37076 6.38672C3.29586 6.38194 3.22466 6.3524 3.1686 6.30272ZM11.6974 8.42968L10.0063 7.42176C9.94513 7.38506 9.87377 7.3689 9.80272 7.37569C9.73167 7.38247 9.66469 7.41183 9.61168 7.45943L7.54478 9.29628C7.50186 9.33458 7.46942 9.38312 7.4505 9.43733C7.43158 9.49154 7.4268 9.54965 7.43662 9.60621C7.44629 9.66269 7.47027 9.71579 7.50631 9.76047C7.54234 9.80515 7.58923 9.83994 7.64254 9.86154L10.5098 11.0182C10.5491 11.0346 10.5912 11.0429 10.6338 11.0428C10.7669 11.0432 10.8877 10.9649 10.942 10.8431L11.8307 8.8611C11.9031 8.70427 11.8455 8.51795 11.6974 8.42968ZM11.9321 6.02009L12.37 7.39163H12.3662C12.3822 7.4422 12.386 7.49579 12.3774 7.54811C12.3688 7.60042 12.348 7.65 12.3167 7.69287C12.2855 7.73556 12.2447 7.77031 12.1974 7.79424C12.1502 7.81818 12.0979 7.83064 12.0449 7.83059C11.9846 7.83071 11.9255 7.81442 11.8739 7.78347L10.6882 7.07699C10.6426 7.05033 10.6041 7.01312 10.576 6.96852C10.5479 6.92393 10.531 6.87324 10.5267 6.82076C10.5212 6.76798 10.5284 6.71466 10.5476 6.6652C10.5669 6.61573 10.5977 6.57154 10.6375 6.53626L11.3891 5.86937C11.4307 5.8321 11.4811 5.80585 11.5356 5.793C11.5901 5.78016 11.647 5.78114 11.701 5.79586C11.7551 5.81135 11.8046 5.83993 11.8449 5.87906C11.8852 5.91818 11.9152 5.96663 11.9321 6.02009ZM5.66013 9.6053C5.6701 9.54898 5.6655 9.49106 5.64676 9.43701C5.62803 9.38295 5.59577 9.33453 5.55304 9.29633L3.48618 7.45943C3.43318 7.41183 3.3662 7.38247 3.29515 7.37569C3.2241 7.3689 3.15274 7.38506 3.09161 7.42176L1.40044 8.42968C1.25404 8.51836 1.1961 8.7023 1.26516 8.85923L2.15581 10.8412C2.2296 11.0064 2.42039 11.0838 2.58796 11.0164L5.4534 9.85956C5.50672 9.83816 5.55368 9.80357 5.58985 9.75907C5.62601 9.71458 5.65023 9.66168 5.66013 9.6053ZM6.6747 10.1704L8.97458 11.0973C9.02993 11.121 9.07792 11.159 9.1136 11.2074C9.14928 11.2557 9.17135 11.3127 9.17756 11.3724C9.18477 11.4328 9.17528 11.494 9.1501 11.5495C9.12493 11.6049 9.08503 11.6525 9.03471 11.687L6.73299 13.279C6.67792 13.3176 6.61241 13.3386 6.5451 13.3393C6.47787 13.3381 6.41249 13.3172 6.35721 13.279L4.05732 11.687C4.00684 11.6525 3.96671 11.6051 3.94122 11.5497C3.91574 11.4943 3.90586 11.433 3.91265 11.3724C3.9201 11.3121 3.94351 11.2549 3.98048 11.2065C4.01746 11.1582 4.06667 11.1205 4.12308 11.0974L6.42297 10.1704C6.50381 10.1384 6.59386 10.1384 6.6747 10.1704Z" fill="#BF4722"/>
</svg>
