<svg width="14" height="14" viewBox="0 0 14 14" fill="none" xmlns="http://www.w3.org/2000/svg">
<path d="M13 3.56307C13 3.56307 8.66663 0.374419 5.31446 1.11024L5.06919 1.192C4.57864 1.35551 4.16986 1.60079 3.92458 1.92782L3.76107 2.17309L2.5346 4.29889L4.6603 4.70768C5.55974 5.28009 6.70445 5.52526 7.7673 5.28009L11.5283 6.01591L13 3.56307Z" fill="#76B3E1"/>
<path d="M13 3.56307C13 3.56307 8.66663 0.374419 5.31446 1.11024L5.06919 1.192C4.57864 1.35551 4.16986 1.60079 3.92458 1.92782L3.76107 2.17309L2.5346 4.29889L4.6603 4.70768C5.55974 5.28009 6.70445 5.52526 7.7673 5.28009L11.5283 6.01591L13 3.56307Z" fill="url(#paint0_linear_1267_74)"/>
<path d="M3.92457 3.56307L3.59754 3.64483C2.20745 4.05362 1.79867 5.36185 2.53449 6.50645C3.35206 7.56931 5.06908 8.14161 6.45896 7.73292L11.5283 6.01591C11.5283 6.01591 7.19498 2.82725 3.92457 3.56307Z" fill="#518AC8"/>
<path d="M3.92457 3.56307L3.59754 3.64483C2.20745 4.05362 1.79867 5.36185 2.53449 6.50645C3.35206 7.56931 5.06908 8.14161 6.45896 7.73292L11.5283 6.01591C11.5283 6.01591 7.19498 2.82725 3.92457 3.56307Z" fill="url(#paint1_linear_1267_74)"/>
<path d="M10.6289 7.24238C10.1711 6.67054 9.55312 6.24835 8.85397 6.02985C8.15482 5.81136 7.40637 5.8065 6.70444 6.01591L1.63516 7.65106L0 10.5128L9.15728 12.0662L10.7924 9.1228C11.1195 8.5505 11.0377 7.89654 10.6289 7.24238Z" fill="url(#paint2_linear_1267_74)"/>
<path d="M8.99366 10.1039C8.53587 9.53208 7.91784 9.10991 7.21869 8.89143C6.51955 8.67295 5.7711 8.66811 5.06919 8.87753L0 10.5128C0 10.5128 4.33336 13.7832 7.68554 12.9656L7.93081 12.8838C9.32079 12.475 9.81134 11.1667 8.99366 10.1039Z" fill="url(#paint3_linear_1267_74)"/>
<defs>
<linearGradient id="paint0_linear_1267_74" x1="1.9214" y1="0.946732" x2="12.1006" y2="5.89326" gradientUnits="userSpaceOnUse">
<stop offset="0.1" stop-color="#76B3E1"/>
<stop offset="0.3" stop-color="#DCF2FD"/>
<stop offset="1" stop-color="#76B3E1"/>
</linearGradient>
<linearGradient id="paint1_linear_1267_74" x1="7.50565" y1="3.36685" x2="5.72327" y2="9.30269" gradientUnits="userSpaceOnUse">
<stop stop-color="#76B3E1"/>
<stop offset="0.5" stop-color="#4377BB"/>
<stop offset="1" stop-color="#1F3B77"/>
</linearGradient>
<linearGradient id="paint2_linear_1267_74" x1="1.17737" y1="5.95049" x2="11.4711" y2="12.9492" gradientUnits="userSpaceOnUse">
<stop stop-color="#315AA9"/>
<stop offset="0.5" stop-color="#518AC8"/>
<stop offset="1" stop-color="#315AA9"/>
</linearGradient>
<linearGradient id="paint3_linear_1267_74" x1="5.82138" y1="6.79263" x2="1.66793" y2="22.0247" gradientUnits="userSpaceOnUse">
<stop stop-color="#4377BB"/>
<stop offset="0.5" stop-color="#1A336B"/>
<stop offset="1" stop-color="#1A336B"/>
</linearGradient>
</defs>
</svg>
