<svg width="14" height="14" viewBox="0 0 14 14" fill="none" xmlns="http://www.w3.org/2000/svg">
<path d="M12.2346 1.8524C10.8955 -0.0082995 8.2502 -0.559772 6.33806 0.623016L2.97919 2.70115C2.52468 2.97781 2.13468 3.34345 1.83416 3.77468C1.53363 4.20592 1.32919 4.69326 1.23391 5.20553C1.19144 5.43543 1.16982 5.66991 1.16942 5.90509C1.17147 6.54284 1.3325 7.17064 1.63878 7.73495C1.35166 8.15852 1.15573 8.63401 1.06277 9.13288C0.967503 9.65438 0.980842 10.1949 1.10167 10.7092C1.22262 11.2268 1.44876 11.7159 1.76686 12.1477C3.10603 14.0082 5.75732 14.5598 7.66337 13.3771L11.0189 11.2988C11.4731 11.0218 11.8626 10.6557 12.1623 10.224C12.4621 9.79235 12.6655 9.30462 12.7594 8.79217C12.8026 8.56171 12.8242 8.32793 12.8239 8.0937C12.823 7.45718 12.664 6.83025 12.3603 6.26603C12.6474 5.84285 12.8434 5.36777 12.9366 4.86931C12.9782 4.63852 12.9994 4.40501 13 4.17083C13.0003 3.34018 12.7327 2.53025 12.2348 1.85448L12.2346 1.8524Z" fill="#FF3E00"/>
<path d="M6.00987 12.3225C5.78923 12.3777 5.56423 12.4055 5.33859 12.4056C4.90772 12.4055 4.48329 12.3041 4.10167 12.1101C3.72004 11.916 3.3926 11.6351 3.14741 11.2914C2.84802 10.8848 2.68718 10.3976 2.68741 9.89796C2.6876 9.75708 2.70018 9.6166 2.72495 9.47872C2.74513 9.37497 2.77228 9.27323 2.80613 9.17444L2.86938 8.98762L3.04075 9.11406C3.43853 9.39734 3.88296 9.61309 4.35512 9.75216L4.47959 9.78858L4.46787 9.90933V9.972C4.46763 10.1231 4.51603 10.2704 4.60632 10.3935C4.67927 10.4983 4.7775 10.5842 4.89246 10.6438C5.01018 10.704 5.13732 10.7352 5.26587 10.7353C5.33372 10.7356 5.40139 10.7272 5.46768 10.7103C5.53963 10.692 5.60914 10.6625 5.67434 10.6226L9.0296 8.53415C9.13021 8.47217 9.213 8.38648 9.27025 8.28508C9.3275 8.18368 9.35735 8.06986 9.35701 7.95424C9.35604 7.80315 9.30637 7.65614 9.21496 7.5338C9.14089 7.43039 9.04213 7.34588 8.92712 7.28749C8.80934 7.22853 8.68244 7.19838 8.55428 7.1989C8.48642 7.19866 8.41875 7.2071 8.35246 7.22405C8.28081 7.24189 8.21166 7.27138 8.14704 7.31166L6.86785 8.10464C6.65257 8.23622 6.42327 8.3339 6.18597 8.39514C5.65754 8.52862 5.0996 8.50143 4.58762 8.31723C4.07564 8.13303 3.63434 7.80072 3.3234 7.36526C3.02428 6.95855 2.86347 6.47142 2.8634 5.97181C2.86363 5.83126 2.87626 5.69104 2.90095 5.55258C2.95832 5.24469 3.08101 4.95172 3.26123 4.69225C3.44145 4.43278 3.67528 4.21246 3.94789 4.04527L7.30676 1.96823C7.51753 1.83808 7.74744 1.73973 7.98864 1.67652C8.20798 1.62204 8.4335 1.59448 8.65992 1.59449C9.09168 1.5936 9.51722 1.69432 9.90005 1.888C10.2829 2.08168 10.6116 2.36254 10.858 2.70651C11.1553 3.11418 11.3141 3.60168 11.3122 4.10105C11.312 4.24233 11.2994 4.38321 11.2746 4.52149C11.2545 4.6252 11.2274 4.72691 11.1936 4.82566L11.1303 5.01248L10.9589 4.89063C10.5614 4.60682 10.1169 4.39101 9.64451 4.25254L9.52004 4.21502L9.53177 4.09416V4.0316C9.53174 3.88019 9.48337 3.73251 9.39332 3.60886C9.31945 3.50545 9.22079 3.42099 9.10582 3.36277C8.98831 3.3038 8.86169 3.27354 8.73376 3.27384C8.66652 3.27525 8.59961 3.28519 8.53421 3.30348C8.46215 3.32104 8.39263 3.35058 8.32777 3.3912L4.96879 5.46825C4.88914 5.51649 4.81872 5.5831 4.76179 5.66403C4.70867 5.73959 4.67149 5.82864 4.65322 5.92401C4.64493 5.96363 4.6398 6.00405 4.63788 6.04477C4.63781 6.19548 4.6862 6.34245 4.77633 6.46521C4.85017 6.56861 4.94879 6.65306 5.06372 6.7113C5.18126 6.77028 5.30793 6.80051 5.43589 6.80011C5.50374 6.80034 5.57142 6.79191 5.6377 6.77496C5.70977 6.75724 5.77935 6.72775 5.84436 6.68735L7.12592 5.88978C7.34112 5.75797 7.57044 5.66027 7.8078 5.59928C8.02844 5.54417 8.25344 5.51631 8.47907 5.51615C8.91002 5.51609 9.33456 5.61731 9.71638 5.81117C10.0982 6.00502 10.4259 6.28573 10.6715 6.62927C10.863 6.88963 10.9989 7.18451 11.0713 7.49658C11.1437 7.80864 11.151 8.13159 11.0928 8.44643C11.0358 8.75443 10.9132 9.04753 10.733 9.30704C10.5527 9.56656 10.3187 9.7868 10.0459 9.95374L6.69287 12.0308C6.47736 12.163 6.24759 12.2611 6.00987 12.3225Z" fill="white"/>
</svg>
