<svg width="14" height="14" viewBox="0 0 14 14" fill="none" xmlns="http://www.w3.org/2000/svg">
<path d="M3.03232 5.37664H12.6006V12.449H3.03232V5.37664Z" fill="white"/>
<path d="M1 13H13V1H1V13ZM10.6701 6.52C10.9575 6.5867 11.2187 6.73702 11.4208 6.952C11.532 7.06783 11.6287 7.19678 11.7088 7.336C11.7088 7.35136 11.1904 7.70176 10.8746 7.8976C10.863 7.90528 10.817 7.85536 10.7661 7.77952C10.7084 7.68003 10.6265 7.59677 10.528 7.53751C10.4294 7.47825 10.3175 7.44493 10.2026 7.44064C9.83872 7.41568 9.60448 7.60672 9.6064 7.92064C9.60348 7.99879 9.62137 8.07631 9.65824 8.14528C9.73792 8.31136 9.88672 8.41024 10.3533 8.61184C11.2125 8.98144 11.5802 9.22528 11.8086 9.57184C12.064 9.95584 12.1206 10.576 11.9478 11.0349C11.7558 11.5341 11.2854 11.873 10.6202 11.9853C10.3163 12.0201 10.0093 12.0169 9.70624 11.9757C9.24176 11.8991 8.8139 11.6761 8.48512 11.3392C8.37472 11.2173 8.15968 10.8995 8.17312 10.8765C8.2081 10.8504 8.245 10.8269 8.28352 10.8064L8.728 10.5606L9.07264 10.361L9.14464 10.4675C9.26619 10.6413 9.42082 10.7894 9.59968 10.9034C9.98368 11.105 10.5078 11.0771 10.767 10.8438C10.8541 10.7584 10.9084 10.6451 10.9205 10.5237C10.9326 10.4023 10.9017 10.2805 10.8333 10.1795C10.7373 10.0461 10.5453 9.93376 10.0086 9.69952C9.38944 9.43264 9.12256 9.26752 8.87872 9.00448C8.72655 8.83087 8.61416 8.62609 8.54944 8.40448C8.5012 8.15127 8.49407 7.89195 8.52832 7.63648C8.656 7.0384 9.10432 6.6208 9.75904 6.49696C10.0623 6.4595 10.3694 6.46792 10.6701 6.52192V6.52ZM7.85344 7.02304V7.51456H6.29536V11.9526H5.1904V7.5136H3.62848V7.0336C3.62358 6.86807 3.62743 6.7024 3.64 6.53728C3.64768 6.52864 4.6 6.52864 5.752 6.52864H7.84768L7.85344 7.02304Z" fill="#007ACC"/>
</svg>
