<svg width="125" height="32" viewBox="0 0 125 32" fill="none" xmlns="http://www.w3.org/2000/svg">
<g clip-path="url(#clip0_13019_2671)">
<mask id="mask0_13019_2671" style="mask-type:luminance" maskUnits="userSpaceOnUse" x="-1" y="0" width="126" height="32">
<path d="M124.97 0.000701904H-0.00537109V31.9993H124.97V0.000701904Z" fill="white"/>
</mask>
<g mask="url(#mask0_13019_2671)">
<mask id="mask1_13019_2671" style="mask-type:luminance" maskUnits="userSpaceOnUse" x="-1" y="0" width="126" height="32">
<path d="M124.97 0.000701904H-0.00537109V31.826H124.97V0.000701904Z" fill="white"/>
</mask>
<g mask="url(#mask1_13019_2671)">
<path d="M-0.00537109 3.29347C1.40008 3.15476 2.81612 3.16303 4.21986 3.31819C5.11939 3.43354 5.86287 3.98002 6.53786 4.56771C7.40834 5.34226 8.19201 6.20966 8.875 7.15459C11.4737 10.6551 14.0714 14.1564 16.6683 17.6587L17.1995 18.3645C17.2146 18.0294 17.231 17.8152 17.231 17.6038C17.231 13.0328 17.242 8.4604 17.2201 3.88801C17.2201 3.35116 17.357 3.20149 17.8937 3.21384C19.4888 3.25091 21.0866 3.24266 22.6857 3.21384C23.1335 3.21384 23.2635 3.33468 23.2622 3.78915C23.2485 11.8583 23.2485 19.9275 23.2622 27.9966C23.2622 28.4786 23.1252 28.6269 22.6515 28.6077C21.8081 28.5706 20.962 28.572 20.1199 28.6077C18.9178 28.6516 17.8923 28.2342 16.9709 27.5092C15.9919 26.7403 15.206 25.7942 14.4708 24.8001C11.8237 21.2246 9.17213 17.6495 6.51595 14.0749C6.38726 13.9006 6.24212 13.733 6.01483 13.4378V14.2466C6.01483 18.819 6.01484 23.39 6.02715 27.9623C6.02715 28.458 5.92995 28.6392 5.39461 28.6173C3.59828 28.5445 1.79782 28.6887 0.00148141 28.539L-0.00537109 3.29347Z" fill="white"/>
<path d="M114.403 15.7967C114.795 15.6306 115.022 15.2763 115.308 14.9921C116.62 13.6918 117.931 12.3832 119.213 11.0596C119.573 10.6861 119.78 10.6381 120.171 11.0431C121.576 12.5082 123.02 13.9348 124.457 15.3684C124.61 15.5221 124.715 15.7528 124.976 15.7803V16.0549C124.82 16.3326 124.623 16.5853 124.392 16.8046C121.332 19.8666 118.271 22.9281 115.209 25.9891C114.988 26.2102 114.825 26.662 114.35 26.4134C114.213 26.1086 114.255 25.7845 114.255 25.4674C114.255 22.4795 114.255 19.4917 114.255 16.4256C112.794 17.8893 111.38 19.3091 109.974 20.7151C109.197 21.4895 109.133 21.4882 108.342 20.6973C107.064 19.4249 105.791 18.1507 104.523 16.8746C104.29 16.6571 104.088 16.4085 103.922 16.1359C103.74 15.8613 103.962 15.7034 104.108 15.5551C105.644 13.9989 107.187 12.4492 108.74 10.9058C109.014 10.6312 109.288 10.5996 109.562 10.8866C111.176 12.5192 112.86 14.0873 114.403 15.7967Z" fill="#03A2DC"/>
<path d="M114.403 15.7967C114.116 15.7789 113.992 15.5344 113.816 15.3628C112.377 13.9302 110.943 12.4935 109.513 11.0527C109.321 10.8605 109.185 10.6325 108.871 10.9552C107.275 12.5864 105.657 14.1943 104.051 15.8145C103.998 15.8868 103.956 15.9663 103.926 16.0507C103.934 16.0646 103.938 16.08 103.939 16.0958C103.939 16.1116 103.936 16.1273 103.93 16.1417C103.923 16.1561 103.913 16.1688 103.901 16.1787C103.889 16.1887 103.875 16.1956 103.859 16.199L103.609 16.1702C103.532 15.9782 103.505 15.77 103.529 15.5646C103.538 12.5699 103.529 9.57526 103.529 6.58191C103.529 6.18924 103.546 5.80338 103.75 5.45324C105.363 3.81929 106.974 2.18531 108.586 0.551338C108.759 0.374211 108.922 0.184726 109.091 0.00210571H109.228C110.665 1.61823 112.24 3.09567 113.776 4.6198C113.999 4.82096 114.174 5.06941 114.289 5.34707C114.404 5.6247 114.456 5.92461 114.442 6.22492C114.402 9.41322 114.411 12.6057 114.403 15.7967Z" fill="#6DC6EA"/>
<path d="M103.859 16.199C103.881 16.1496 103.903 16.1002 103.926 16.0507C105.512 17.6284 107.108 19.1951 108.674 20.7906C109.032 21.1559 109.232 21.219 109.623 20.8112C110.993 19.3777 112.418 17.9868 113.821 16.5821C113.979 16.4256 114.146 16.2773 114.435 16.0068V26.4628C112.857 28.0629 111.281 29.6649 109.705 31.2685C109.536 31.443 109.306 31.5707 109.229 31.8276H109.092C107.478 30.192 105.87 28.5513 104.244 26.9297C104.112 26.8084 104.008 26.6593 103.941 26.4931C103.873 26.3269 103.843 26.1478 103.852 25.9685C103.866 22.7157 103.86 19.4574 103.859 16.199Z" fill="#0062A8"/>
<path d="M74.4605 18.4056V13.6369C74.4605 10.3923 74.4702 7.14626 74.4497 3.90167C74.4497 3.39225 74.5414 3.19592 75.1053 3.21515C76.6555 3.25771 78.2068 3.25496 79.7605 3.21515C80.3232 3.20141 80.485 3.35244 80.4835 3.92914C80.4627 11.904 80.4579 19.8794 80.4699 27.8551C80.4657 27.9008 80.4657 27.9468 80.4699 27.9925C80.5424 28.4648 80.3588 28.6323 79.8728 28.6117C79.0309 28.5746 78.1847 28.5746 77.3413 28.6117C76.1405 28.657 75.1138 28.2478 74.184 27.5215C73.2256 26.7691 72.4507 25.8408 71.7292 24.8659C69.082 21.2904 66.4349 17.7144 63.7881 14.138C63.651 13.9444 63.4965 13.7522 63.3253 13.5256C63.1786 13.8126 63.2459 14.0625 63.2459 14.3001C63.2459 18.8477 63.232 23.3954 63.2541 27.943C63.2541 28.4826 63.117 28.6296 62.5791 28.6172C60.9825 28.5829 59.3862 28.5925 57.7868 28.6172C57.3678 28.6172 57.2024 28.5444 57.2036 28.068C57.2202 19.9787 57.2202 11.8889 57.2036 3.7987C57.2036 3.35793 57.3105 3.20552 57.7663 3.22749C58.5636 3.2687 59.3626 3.2687 60.1599 3.22749C61.5726 3.14511 62.7352 3.6765 63.7703 4.58136C64.5875 5.31142 65.3246 6.12711 65.9691 7.01447L73.8966 17.6696C74.0403 17.8591 74.1867 18.0568 74.4605 18.4056Z" fill="white"/>
<path d="M42.2595 9.28829H41.516C37.4084 9.28829 33.3011 9.28829 29.2018 9.29789C28.7472 9.29789 28.5665 9.21415 28.5761 8.70887C28.6089 7.06116 28.6089 5.41573 28.5761 3.7726C28.5665 3.29341 28.7376 3.21378 29.1607 3.21378C36.5267 3.22476 43.8924 3.22476 51.2575 3.21378C51.752 3.21378 51.8806 3.37443 51.8531 3.83989C51.8087 4.45562 51.8087 5.07374 51.8531 5.68944C52.0176 7.59116 51.2973 9.1606 50.1363 10.5941C49.1848 11.7708 48.073 12.791 46.9872 13.8305C44.1912 16.5208 41.392 19.2079 38.5888 21.8918C38.4122 22.0621 38.2368 22.2337 37.9219 22.5399H38.782C42.9098 22.5399 47.0364 22.5495 51.1645 22.5303C51.6807 22.5303 51.8736 22.6306 51.8588 23.199C51.8175 24.8206 51.8314 26.4436 51.8588 28.0652C51.8588 28.4772 51.7532 28.6145 51.3275 28.6145C43.9156 28.6026 36.5043 28.6026 29.0936 28.6145C28.7171 28.6145 28.5747 28.5225 28.5857 28.1202C28.613 27.0217 28.5857 25.9232 28.6062 24.8248C28.635 23.6027 29.2374 22.6045 29.9274 21.6557C30.6142 20.7426 31.3812 19.8934 32.2195 19.1182C35.4689 16.0059 38.7189 12.8981 41.9691 9.79495C42.1116 9.68622 42.2659 9.59409 42.4292 9.52034L42.2595 9.28829Z" fill="white"/>
<path d="M103.751 5.45325C103.756 8.80906 103.762 12.1653 103.767 15.5221C103.785 15.7496 103.729 15.9769 103.608 16.1702C102.061 17.7231 100.504 19.2665 98.9752 20.8386C98.6561 21.1668 98.481 21.1517 98.1701 20.8386C96.664 19.3008 95.1498 17.7863 93.6287 16.2718C93.411 16.0548 93.2794 15.912 93.5725 15.6209C96.9734 12.2367 100.366 8.84748 103.751 5.45325Z" fill="#06A0E1"/>
</g>
</g>
</g>
<defs>
<clipPath id="clip0_13019_2671">
<rect width="124.981" height="32" fill="white" transform="translate(-0.00537109)"/>
</clipPath>
</defs>
</svg>
